<svg width="606" height="339" fill="none" xmlns="http://www.w3.org/2000/svg"><path d="M602.412 24.555c5.718 11.835 2.976 27.185-7.119 44.917-10.086 17.715-27.45 37.693-50.741 58.687-46.577 41.984-116.768 87.956-199.533 127.95-82.766 39.995-162.401 66.422-224.238 76.826-30.922 5.202-57.365 6.393-77.512 3.287-20.165-3.109-33.897-10.499-39.615-22.333-5.719-11.835-2.977-27.185 7.119-44.917 10.085-17.715 27.45-37.692 50.74-58.687 46.578-41.984 116.768-87.956 199.534-127.95 82.765-39.994 162.4-66.422 224.237-76.826 30.922-5.202 57.365-6.393 77.512-3.287 20.166 3.109 33.897 10.499 39.616 22.333z" stroke="#9C9C9C"/></svg>