<svg width="128" height="146" viewBox="0 0 128 146" fill="none" xmlns="http://www.w3.org/2000/svg">
<path d="M63.5508 0C28.4488 0 0 28.447 0 63.5469C0 87.078 12.7823 107.627 31.8246 118.606L19.8289 145.906L63.5508 127.061C98.6528 127.061 127.101 98.614 127.101 63.5141C127.101 28.447 98.6528 0 63.5508 0Z" fill="#00FFCC"/>
<path d="M95.0479 51.5517C89.3779 39.1308 75.5796 35.7224 63.5184 44.8005C51.4572 35.7224 37.6589 39.1308 31.9889 51.5517C26.3188 64.0055 31.2351 78.9828 43.0013 84.9802L63.4857 95.4348L83.97 84.9802C95.8018 78.9828 100.751 64.0055 95.0479 51.5517Z" fill="black"/>
</svg>
