<svg width="23" height="23" fill="none" xmlns="http://www.w3.org/2000/svg"><g clip-path="url(#clip0_108_731)"><path fill-rule="evenodd" clip-rule="evenodd" d="M20.19 0C21.74 0 23 1.26 23 2.81v17.38c0 1.55-1.26 2.81-2.81 2.81H2.81C1.26 23 0 21.74 0 20.19V2.81C0 1.26 1.26 0 2.81 0h17.38zM11.5 3.639c-2.135 0-2.403.009-3.241.047-.837.038-1.408.171-1.908.365-.517.201-.956.47-1.393.907a3.853 3.853 0 00-.907 1.393c-.194.5-.327 1.071-.365 1.908-.038.838-.047 1.106-.047 3.241s.009 2.403.047 3.241c.038.837.171 1.408.365 1.909.201.516.47.955.907 1.392.437.437.876.706 1.393.907.5.194 1.071.327 1.908.365.838.038 1.106.047 3.241.047s2.403-.009 3.241-.047c.837-.038 1.408-.171 1.909-.365.516-.201.955-.47 1.392-.907.437-.437.706-.876.907-1.393.194-.5.327-1.071.365-1.908.038-.838.047-1.106.047-3.241s-.009-2.403-.047-3.241c-.038-.837-.171-1.408-.365-1.908a3.857 3.857 0 00-.907-1.393 3.855 3.855 0 00-1.393-.907c-.5-.194-1.071-.327-1.908-.365-.838-.038-1.106-.047-3.241-.047zm0 1.416c2.1 0 2.348.008 3.177.046.766.035 1.182.163 1.46.27.366.143.628.314.903.589.275.275.446.537.588.904.108.277.236.693.271 1.46.038.828.046 1.077.046 3.176 0 2.1-.008 2.348-.046 3.177-.035.766-.163 1.182-.27 1.46a2.435 2.435 0 01-.589.903 2.435 2.435 0 01-.904.588c-.277.108-.693.236-1.46.271-.828.038-1.077.046-3.176.046-2.1 0-2.348-.008-3.177-.046-.766-.035-1.182-.163-1.46-.27a2.436 2.436 0 01-.903-.589 2.435 2.435 0 01-.588-.904c-.108-.277-.236-.693-.271-1.46-.038-.828-.046-1.077-.046-3.176 0-2.1.008-2.348.046-3.177.035-.766.163-1.182.27-1.46.143-.366.314-.628.589-.903.275-.275.537-.446.904-.588.277-.108.693-.236 1.46-.271.828-.038 1.077-.046 3.176-.046zm0 2.408a4.037 4.037 0 100 8.074 4.037 4.037 0 000-8.074zm0 6.657a2.62 2.62 0 110-5.24 2.62 2.62 0 010 5.24zm5.14-6.816a.943.943 0 11-1.887 0 .943.943 0 011.887 0z" fill="#000"/></g><defs><clipPath id="clip0_108_731"><path fill="#fff" d="M0 0h23v23H0z"/></clipPath></defs></svg>