<svg width="23" height="23" fill="none" xmlns="http://www.w3.org/2000/svg"><path d="M12.28 10.366v-.035a.973.973 0 01-.022.035h.023z" fill="#000"/><path d="M21.15 0H1.688C.756 0 0 .738 0 1.646v19.692c0 .908.756 1.646 1.687 1.646h19.464c.933 0 1.688-.738 1.688-1.646V1.646C22.84.737 22.083 0 21.151 0zM6.924 19.24h-3.45V8.862h3.45V19.24zM5.198 7.444h-.023c-1.157 0-1.906-.797-1.906-1.793 0-1.018.772-1.792 1.952-1.792s1.906.774 1.929 1.792c0 .996-.75 1.793-1.952 1.793zM19.362 19.24h-3.45v-5.553c0-1.395-.499-2.347-1.747-2.347-.953 0-1.52.642-1.77 1.262-.091.222-.113.531-.113.842v5.796h-3.45s.045-9.406 0-10.378h3.45v1.469c.458-.707 1.278-1.714 3.109-1.714 2.27 0 3.971 1.483 3.971 4.671v5.952z" fill="#000"/></svg>