<svg width="30" height="30" fill="none" xmlns="http://www.w3.org/2000/svg"><path fill-rule="evenodd" clip-rule="evenodd" d="M29.732 12.006H15.317c0 1.499 0 4.497-.01 5.996h8.354c-.32 1.5-1.455 3.599-3.059 4.655-.001-.001-.003.01-.006.008-2.132 1.408-4.945 1.727-7.034 1.307-3.275-.65-5.866-3.025-6.918-6.042.006-.004.01-.046.015-.049-.659-1.87-.659-4.376 0-5.875h-.002c.849-2.756 3.518-5.27 6.797-5.958 2.638-.559 5.614.046 7.802 2.094.291-.284 4.029-3.933 4.309-4.23-7.477-6.772-19.45-4.39-23.93 4.355h-.001l-.008.017C-.59 12.579-.498 17.64 1.641 21.73l-.015.011a15.27 15.27 0 009.72 7.748c4.516 1.184 10.264.375 14.115-3.108l.004.005c3.263-2.939 5.294-7.944 4.267-14.38z" fill="#fff"/></svg>