<svg width="38" height="30" fill="none" xmlns="http://www.w3.org/2000/svg"><path fill-rule="evenodd" clip-rule="evenodd" d="M12.294 30c14.15 0 21.89-11.544 21.89-21.553 0-.328 0-.654-.022-.98a15.5 15.5 0 003.839-3.92 15.511 15.511 0 01-4.418 1.191 7.632 7.632 0 003.383-4.19 15.57 15.57 0 01-4.887 1.84c-2.914-3.05-7.787-3.198-10.886-.33a7.51 7.51 0 00-2.226 7.239C12.781 8.99 7.017 6.114 3.11 1.383c-2.042 3.461-.997 7.888 2.383 10.11A7.727 7.727 0 012 10.547v.096c.002 3.605 2.584 6.71 6.173 7.424a7.772 7.772 0 01-3.473.129c1.007 3.086 3.896 5.2 7.187 5.262A15.592 15.592 0 01.5 26.598a22.039 22.039 0 0011.794 3.396" fill="#fff"/></svg>