<svg width="119" height="586" fill="none" xmlns="http://www.w3.org/2000/svg"><path d="M91.193 567.33c2.54 0 4.698-.889 6.475-2.667 1.778-1.778 2.667-3.937 2.667-6.477v-22.175c0-2.54.914-4.725 2.742-6.554 1.829-1.828 4.013-2.743 6.552-2.743h.153c2.59 0 4.749.915 6.475 2.743 1.829 1.829 2.743 4.014 2.743 6.554v22.175c0 7.671-2.717 14.224-8.152 19.66-5.434 5.436-11.986 8.154-19.655 8.154H9.218c-2.54 0-4.723-.914-6.552-2.743C.89 581.428 0 579.269 0 576.779v-.228c0-2.489.889-4.649 2.666-6.477 1.829-1.829 4.013-2.744 6.552-2.744h81.975zm18.589-67.668c2.59 0 4.749.915 6.475 2.743 1.829 1.829 2.743 3.988 2.743 6.478v.228c0 2.49-.914 4.649-2.743 6.478-1.726 1.828-3.885 2.743-6.475 2.743H67.88c-10.056 0-18.69-3.582-25.902-10.745-7.162-7.163-10.742-15.799-10.742-25.909 0-12.091 4.012-21.21 12.037-27.357-8.025-6.096-12.037-15.189-12.037-27.28 0-10.11 3.58-18.746 10.742-25.909 7.212-7.163 15.846-10.745 25.902-10.745h41.902c2.539 0 4.698.889 6.475 2.667 1.829 1.829 2.743 4.014 2.743 6.554v.152c0 2.591-.914 4.75-2.743 6.477-1.726 1.829-3.885 2.744-6.475 2.744H67.88c-4.977 0-9.218 1.752-12.722 5.258-3.505 3.505-5.257 7.772-5.257 12.802 0 4.978 1.752 9.22 5.256 12.726 3.505 3.505 7.746 5.258 12.723 5.258h41.902c2.59 0 4.749.914 6.475 2.743 1.829 1.727 2.743 3.886 2.743 6.477v.153c0 2.54-.914 4.724-2.743 6.553-1.726 1.829-3.885 2.743-6.475 2.743H67.88c-4.977 0-9.218 1.753-12.722 5.258-3.505 3.506-5.257 7.748-5.257 12.726 0 4.979 1.752 9.221 5.256 12.726 3.505 3.505 7.746 5.258 12.723 5.258h41.902zM82.355 309.765c4.978 0 9.219-1.753 12.723-5.258 3.505-3.506 5.257-7.748 5.257-12.726 0-4.979-1.752-9.221-5.257-12.726-3.504-3.505-7.745-5.258-12.723-5.258H40.53c-2.54 0-4.723-.915-6.552-2.743-1.828-1.829-2.742-4.014-2.742-6.554v-.152c0-2.591.914-4.75 2.742-6.478 1.829-1.828 4.013-2.743 6.552-2.743h41.825c4.978 0 9.219-1.752 12.723-5.258 3.505-3.505 5.257-7.747 5.257-12.726 0-5.029-1.752-9.296-5.257-12.802-3.504-3.505-7.745-5.258-12.723-5.258H40.53c-2.54 0-4.723-.914-6.552-2.743-1.828-1.727-2.742-3.886-2.742-6.477v-.153c0-2.54.914-4.724 2.742-6.553 1.829-1.778 4.013-2.667 6.552-2.667h41.825c10.107 0 18.742 3.581 25.903 10.744 7.161 7.163 10.742 15.8 10.742 25.909 0 12.091-4.012 21.185-12.037 27.281C114.988 270.571 119 279.69 119 291.781c0 10.109-3.581 18.746-10.742 25.909-7.161 7.163-15.796 10.744-25.903 10.744H40.53c-2.54 0-4.723-.914-6.552-2.743-1.828-1.829-2.742-3.988-2.742-6.477v-.229c0-2.489.914-4.648 2.742-6.477 1.829-1.829 4.013-2.743 6.552-2.743h41.825zM50.053 143.566c0 7.011 2.463 12.98 7.39 17.908 4.927 4.877 10.894 7.315 17.903 7.315h.534l-19.123-42.597c-4.47 3.759-6.704 9.551-6.704 17.374zm6.78-39.854c1.27-.61 2.565-.914 3.886-.914a8.94 8.94 0 013.2.609c2.387.864 4.114 2.49 5.18 4.877 3.2 7.113 7.415 16.46 12.647 28.043 6.5 14.377 10.336 22.81 11.504 25.299 4.876-3.861 7.313-9.881 7.313-18.06 0-5.436-1.6-10.363-4.8-14.783-3.148-4.318-7.211-7.341-12.189-9.068-4.165-1.474-6.247-4.42-6.247-8.84 0-3.15 1.32-5.664 3.962-7.544 1.625-1.168 3.326-1.753 5.104-1.753 1.067 0 2.159.204 3.276.61 8.685 2.997 15.694 8.255 21.027 15.774 5.536 7.62 8.304 16.155 8.304 25.604 0 12.091-4.292 22.429-12.875 31.015-8.584 8.585-18.92 12.878-31.007 12.878-12.088 0-22.424-4.293-31.007-12.878-8.584-8.586-12.875-18.924-12.875-31.015 0-8.738 2.387-16.714 7.16-23.928 4.674-7.163 10.82-12.471 18.438-15.926zm-6.78-59.819c0 7.01 2.463 12.98 7.39 17.907 4.927 4.877 10.894 7.316 17.903 7.316 6.959 0 12.9-2.439 17.828-7.316 4.926-4.927 7.389-10.896 7.389-17.907 0-6.96-2.463-12.904-7.39-17.832-4.926-4.927-10.868-7.391-17.827-7.391-7.009 0-12.976 2.464-17.903 7.391-4.927 4.928-7.39 10.872-7.39 17.832zM0 78.337c0-2.49.889-4.649 2.666-6.478 1.829-1.829 4.013-2.743 6.552-2.743h29.636c-5.079-5.74-7.618-14.148-7.618-25.223 0-12.091 4.291-22.43 12.875-31.015C52.694 4.293 63.03 0 75.118 0c12.088 0 22.423 4.293 31.007 12.878C114.708 21.464 119 31.802 119 43.893c0 12.09-4.266 22.403-12.799 30.938-8.482 8.586-18.767 12.904-30.855 12.955H9.218c-2.54 0-4.723-.915-6.552-2.744C.89 83.213 0 81.054 0 78.565v-.228z" fill="#0FC"/></svg>