<svg width="149" height="65" fill="none" xmlns="http://www.w3.org/2000/svg"><g clip-path="url(#clip0_190_443)" fill-rule="evenodd" clip-rule="evenodd"><path d="M17.491 35.62H9.717c-.88 0-1.632-.325-2.254-.949a3.134 3.134 0 01-.933-2.301V3.315c0-.897-.324-1.677-.959-2.314A3.122 3.122 0 003.304.052h-.065c-.88 0-1.645.312-2.28.949A3.147 3.147 0 000 3.315V32.37c0 2.73.946 5.044 2.85 6.968a9.328 9.328 0 006.867 2.899h7.774a3.099 3.099 0 002.28-.975c.648-.611.96-1.378.96-2.301v-.052c0-.91-.312-1.677-.96-2.327a3.109 3.109 0 00-2.293-.962h.013zm77.377-17.407h-.04c-.699 0-1.295.26-1.748.754a2.47 2.47 0 00-.739 1.794v11.44c0 1.365-.466 2.522-1.425 3.484a4.664 4.664 0 01-3.434 1.43 4.625 4.625 0 01-3.433-1.43 4.773 4.773 0 01-1.412-3.484v-11.44c0-.702-.246-1.3-.739-1.794-.466-.507-1.036-.754-1.736-.754h-.052c-.674 0-1.27.26-1.762.754a2.47 2.47 0 00-.738 1.794v11.44c0 1.365-.467 2.522-1.413 3.484a4.637 4.637 0 01-3.42 1.43 4.625 4.625 0 01-3.434-1.43 4.773 4.773 0 01-1.425-3.484v-11.44l-.013-.39.052-7.332c0-3.575-1.257-6.63-3.757-9.178a12.23 12.23 0 00-4.12-2.851 12.196 12.196 0 00-4.91-.958c-4.211 0-7.385 1.43-9.51 4.264C43.52 1.469 40.347.052 36.123.052c-3.524 0-6.543 1.274-9.044 3.809a12.632 12.632 0 00-3.744 9.178v25.922c0 .91.324 1.69.959 2.301.647.65 1.386.975 2.254.975h.09c.869 0 1.62-.325 2.255-.975.648-.611.959-1.378.959-2.301V13.039c0-1.781.609-3.289 1.827-4.537a6.011 6.011 0 014.444-1.859c1.736 0 3.213.624 4.43 1.859a6.216 6.216 0 011.84 4.55v25.909c0 .91.312 1.69.96 2.301.634.65 1.399.975 2.28.975h.052c.907 0 1.658-.325 2.254-.975.648-.611.959-1.378.959-2.301V13.039c0-1.781.609-3.289 1.84-4.537a5.999 5.999 0 014.43-1.859c1.763 0 3.24.624 4.47 1.859a6.217 6.217 0 011.828 4.55l.026 19.201v.208c.064 2.652 1.036 4.94 2.902 6.838 1.917 1.95 5.662 2.938 8.383 2.938 3.239 0 5.7-1.105 7.36-3.302 1.644 2.21 4.093 3.302 7.345 3.302 2.721 0 5.053-.988 6.971-2.938a9.726 9.726 0 002.89-7.098v-11.44A2.503 2.503 0 0095.83 18.4a2.479 2.479 0 00-.963-.2v.013zm11.997 12.389c0-1.755.583-3.263 1.762-4.498a5.765 5.765 0 014.328-1.872c1.879 0 3.278.572 4.185 1.69l-10.275 4.81v-.13zm13.98.507c-1.075 0-1.775.52-2.137 1.56a6.244 6.244 0 01-2.19 3.081 5.758 5.758 0 01-3.563 1.209c-1.982 0-3.434-.611-4.366-1.846l6.115-2.899 6.763-3.185a2.07 2.07 0 001.166-1.3 2.344 2.344 0 00-.064-1.781 10.647 10.647 0 00-3.855-4.653 10.587 10.587 0 00-5.759-1.795c-2.928 0-5.416 1.079-7.489 3.25a10.87 10.87 0 00-3.109 7.8c0 3.042 1.036 5.642 3.109 7.8a10.011 10.011 0 007.489 3.25c2.28 0 4.34-.702 6.18-2.08a10.537 10.537 0 003.809-5.304 2.22 2.22 0 00-.272-2.106 2.094 2.094 0 00-1.827-1.001zm21.353 3.497a5.997 5.997 0 01-4.392 1.794 6.005 6.005 0 01-4.406-1.794 5.96 5.96 0 01-1.788-4.368c0-1.703.596-3.172 1.801-4.368a6.007 6.007 0 014.406-1.82c1.697 0 3.161.611 4.379 1.82 1.205 1.196 1.814 2.665 1.814 4.368 0 1.703-.609 3.16-1.814 4.368zm3.239-11.999a10.438 10.438 0 00-7.631-3.146c-2.721 0-4.794.624-6.194 1.86v-4.707c0-.624-.22-1.17-.673-1.612-.454-.429-.985-.65-1.594-.65h-.052c-.622 0-1.153.221-1.594.65a2.196 2.196 0 00-.673 1.612v13.624c0 2.964 1.075 5.473 3.174 7.54a10.378 10.378 0 007.606 3.133c2.98 0 5.519-1.04 7.631-3.146a10.283 10.283 0 003.161-7.579c0-2.951-1.049-5.473-3.161-7.579z" fill="#00F5C9"/><path d="M67.206 58.266c-1.037-.26-1.646-.429-1.776-.52-.414-.195-.621-.494-.621-.91 0-.286.103-.533.323-.741a1.1 1.1 0 01.778-.312h2.073c.35 0 .648-.117.907-.364.259-.221.389-.52.389-.858v-.026a1.174 1.174 0 00-.39-.871 1.28 1.28 0 00-.906-.364h-1.97c-1.01 0-1.891.351-2.617 1.04a3.328 3.328 0 00-1.088 2.509c0 1.001.298 1.768.881 2.327.415.39 1.036.689 1.879.923 1.088.299 1.684.468 1.788.52.414.182.609.468.609.832 0 .299-.104.559-.311.754a1.1 1.1 0 01-.79.312h-2.89c-.35 0-.648.117-.907.364a1.17 1.17 0 00-.376.871v.013c0 .351.13.65.389.871.26.247.544.364.907.364h2.773c1.01 0 1.891-.351 2.617-1.04.726-.689 1.088-1.534 1.088-2.509 0-.988-.298-1.742-.88-2.275-.415-.39-1.037-.676-1.88-.91zm12.256 3.289a3.253 3.253 0 01-2.37.988 3.23 3.23 0 01-2.385-.988 3.25 3.25 0 01-.971-2.379c0-.936.323-1.729.971-2.379a3.24 3.24 0 012.384-.988c.92 0 1.71.325 2.371.988.648.65.985 1.443.985 2.379a3.258 3.258 0 01-.985 2.379zm-2.37-8.255c-1.607 0-2.98.572-4.12 1.716a5.628 5.628 0 00-1.711 4.134c0 1.612.57 2.99 1.71 4.134A5.61 5.61 0 0077.091 65c1.607 0 2.98-.572 4.12-1.716a5.645 5.645 0 001.71-4.134c0-1.612-.57-2.99-1.71-4.134a5.61 5.61 0 00-4.12-1.716zm11.025-3.9h-.013a1.293 1.293 0 00-.907.351 1.1 1.1 0 00-.375.858v13.182c0 .338.13.624.388.845.247.247.544.364.894.364s.648-.13.907-.364c.26-.221.376-.507.376-.845V50.609c0-.338-.13-.624-.389-.858a1.293 1.293 0 00-.894-.351h.013zm12.944 3.9h-.026a1.293 1.293 0 00-.907.364 1.17 1.17 0 00-.389.871v5.564c0 .663-.259 1.235-.751 1.716-.492.468-1.101.702-1.814.702-.713 0-1.322-.234-1.814-.702-.492-.481-.739-1.04-.739-1.716v-5.564a1.172 1.172 0 00-.388-.871 1.293 1.293 0 00-.907-.364h-.039c-.35 0-.648.13-.907.364a1.17 1.17 0 00-.389.871v5.564c0 1.339.519 2.496 1.516 3.458C94.531 64.519 95.75 65 97.174 65c1.425 0 2.643-.481 3.667-1.43a4.615 4.615 0 001.516-3.484v-5.564a1.172 1.172 0 00-.389-.871 1.236 1.236 0 00-.907-.364v.013zm6.556.195h-1.503v-2.886a1.17 1.17 0 00-.363-.858 1.188 1.188 0 00-.855-.351h-.026a1.189 1.189 0 00-.855.351 1.161 1.161 0 00-.363.858v11.258c0 .858.311 1.599.92 2.21a3.099 3.099 0 002.242.923h.803a1.162 1.162 0 00.855-.364c.246-.221.363-.507.363-.845v-.026a1.17 1.17 0 00-.363-.858 1.161 1.161 0 00-.855-.351h-.803a.685.685 0 01-.7-.689v-5.928h1.503a1.165 1.165 0 00.855-.351c.246-.234.363-.52.363-.858v-.013a1.17 1.17 0 00-.363-.858 1.167 1.167 0 00-.855-.364zm6.012-3.705a1.25 1.25 0 00-.907-.39c-.363 0-.661.13-.907.39a1.202 1.202 0 00-.389.91c0 .351.13.663.389.91.246.26.544.39.907.39.35 0 .648-.13.907-.39.259-.247.388-.546.388-.91s-.129-.676-.388-.91zm-.894 3.51h-.013c-.363 0-.661.13-.907.364a1.172 1.172 0 00-.389.871v9.23c0 .351.13.65.389.871.246.247.544.364.907.364s.661-.13.907-.364c.259-.234.375-.52.375-.871v-9.23a1.17 1.17 0 00-.388-.871 1.212 1.212 0 00-.894-.364h.013zm10.78 8.255a3.256 3.256 0 01-2.372.988 3.232 3.232 0 01-2.384-.988 3.259 3.259 0 01-.971-2.379c0-.936.324-1.729.971-2.379a3.244 3.244 0 012.384-.988c.92 0 1.711.325 2.372.988.647.65.984 1.443.984 2.379a3.268 3.268 0 01-.984 2.379zm-2.372-8.255c-1.606 0-2.98.572-4.12 1.716a5.641 5.641 0 00-1.71 4.134c0 1.612.57 2.99 1.71 4.134a5.615 5.615 0 004.12 1.716c1.607 0 2.98-.572 4.121-1.716a5.641 5.641 0 001.71-4.134c0-1.612-.57-2.99-1.71-4.134a5.615 5.615 0 00-4.121-1.716zm17.272 1.43a5.112 5.112 0 00-3.667-1.43c-1.425 0-2.643.481-3.667 1.43a4.602 4.602 0 00-1.516 3.484v5.551c0 .351.13.65.389.871.243.235.569.366.907.364h.039c.338.002.663-.129.907-.364a1.12 1.12 0 00.388-.871v-5.551c0-.663.247-1.235.739-1.716a2.55 2.55 0 011.814-.715c.712 0 1.321.247 1.814.715.492.481.738 1.04.738 1.716v5.551c0 .351.13.65.389.871.247.239.577.37.92.364h.026c.363 0 .661-.13.907-.364a1.12 1.12 0 00.388-.871v-5.551c0-1.352-.518-2.509-1.515-3.471v-.013zm6.53 1.053a1.1 1.1 0 00-.778.312 1.02 1.02 0 00-.324.754c0 .39.208.702.622.91.13.078.726.247 1.775.507.842.234 1.464.52 1.879.91.583.52.881 1.3.881 2.275 0 .975-.363 1.82-1.088 2.509a3.688 3.688 0 01-2.618 1.04h-2.785c-.35 0-.648-.13-.907-.364a1.108 1.108 0 01-.376-.871v-.013c0-.338.13-.637.389-.871.259-.26.544-.364.907-.364h2.876c.311 0 .57-.104.777-.312a.99.99 0 00.324-.754c0-.364-.194-.65-.609-.845a29.265 29.265 0 00-1.788-.507 4.512 4.512 0 01-1.878-.923 3.019 3.019 0 01-.881-2.34c0-.962.362-1.794 1.088-2.496a3.687 3.687 0 012.617-1.04h1.97c.349 0 .647.13.907.364.259.247.388.533.388.871v.026c0 .338-.129.637-.388.858a1.281 1.281 0 01-.907.364h-2.073z" fill="#000"/></g><defs><clipPath id="clip0_190_443"><path fill="#fff" d="M0 0h149v65H0z"/></clipPath></defs></svg>