<svg width="65" height="150" fill="none" xmlns="http://www.w3.org/2000/svg"><g clip-path="url(#clip0_108_278)" fill-rule="evenodd" clip-rule="evenodd" fill="#fff"><path d="M35.62 131.98v7.774c0 .881-.325 1.633-.949 2.255a3.136 3.136 0 01-2.301.933H3.315a3.18 3.18 0 00-2.314.958 3.127 3.127 0 00-.949 2.268v.065c0 .881.312 1.645.949 2.28.65.648 1.417.959 2.314.959H32.37c2.73 0 5.044-.946 6.968-2.851a9.323 9.323 0 002.899-6.867v-7.774a3.098 3.098 0 00-.975-2.28c-.611-.648-1.378-.959-2.301-.959h-.052c-.91 0-1.677.311-2.327.959a3.108 3.108 0 00-.962 2.293v-.013zM18.213 54.604v.039c0 .7.26 1.296.754 1.75a2.47 2.47 0 001.794.738h11.44c1.365 0 2.522.466 3.484 1.425a4.664 4.664 0 011.43 3.433 4.625 4.625 0 01-1.43 3.434 4.771 4.771 0 01-3.484 1.412h-11.44c-.702 0-1.3.246-1.794.739-.507.466-.754 1.036-.754 1.736v.052c0 .673.26 1.27.754 1.762a2.47 2.47 0 001.794.738h11.44c1.365 0 2.522.467 3.484 1.412a4.638 4.638 0 011.43 3.421 4.625 4.625 0 01-1.43 3.433 4.771 4.771 0 01-3.484 1.426h-11.44l-.39.013-7.332-.052c-3.575 0-6.63 1.257-9.178 3.757a12.23 12.23 0 00-2.851 4.119 12.195 12.195 0 00-.958 4.912c0 4.21 1.43 7.385 4.264 9.51-2.847 2.138-4.264 5.312-4.264 9.536 0 3.524 1.274 6.543 3.809 9.044a12.613 12.613 0 009.178 3.744h25.922c.91 0 1.69-.324 2.301-.959.65-.648.975-1.386.975-2.254v-.091c0-.868-.325-1.619-.975-2.254-.611-.648-1.378-.959-2.301-.959H13.039c-1.781 0-3.289-.609-4.537-1.827a5.998 5.998 0 01-1.859-4.444c0-1.736.624-3.213 1.859-4.431a6.206 6.206 0 012.085-1.387 6.246 6.246 0 012.465-.453h25.909c.91 0 1.69-.311 2.301-.959.65-.635.975-1.399.975-2.28v-.052c0-.907-.325-1.658-.975-2.254-.611-.648-1.378-.959-2.301-.959H13.039c-1.781 0-3.289-.61-4.537-1.84a5.998 5.998 0 01-1.859-4.431c0-1.762.624-3.24 1.859-4.47a6.216 6.216 0 014.55-1.827l19.201-.026h.208c2.652-.065 4.94-1.036 6.838-2.902 1.95-1.918 2.938-5.662 2.938-8.383 0-3.24-1.105-5.7-3.302-7.36 2.21-1.645 3.302-4.094 3.302-7.346 0-2.72-.988-5.053-2.938-6.97a9.726 9.726 0 00-7.098-2.89h-11.44a2.503 2.503 0 00-2.361 1.512 2.48 2.48 0 00-.2.963h.013zm12.389-11.998c-1.755 0-3.263-.583-4.498-1.762a5.777 5.777 0 01-1.872-4.328c0-1.878.572-3.278 1.69-4.185l4.81 10.275h-.13zm.507-13.98c0 1.075.52 1.775 1.56 2.137a6.24 6.24 0 013.081 2.19c.806 1.063 1.209 2.255 1.209 3.563 0 1.983-.611 3.434-1.846 4.367l-2.899-6.116-3.185-6.763a2.07 2.07 0 00-1.3-1.166 2.347 2.347 0 00-1.781.064 10.639 10.639 0 00-4.653 3.855 10.587 10.587 0 00-1.795 5.76c0 2.927 1.079 5.415 3.25 7.488a10.859 10.859 0 007.8 3.11c3.042 0 5.642-1.037 7.8-3.11a9.987 9.987 0 003.25-7.489c0-2.28-.702-4.34-2.08-6.18a10.542 10.542 0 00-5.304-3.81 2.228 2.228 0 00-2.106.273 2.101 2.101 0 00-1.001 1.827zm3.497-21.352a5.996 5.996 0 011.794 4.392 6.006 6.006 0 01-1.794 4.406 5.943 5.943 0 01-4.368 1.788c-1.703 0-3.172-.596-4.368-1.801a6.023 6.023 0 01-1.82-4.406c0-1.697.611-3.16 1.82-4.379 1.196-1.205 2.665-1.814 4.368-1.814 1.703 0 3.16.61 4.368 1.814zM22.607 4.035a10.411 10.411 0 00-3.146 7.631c0 2.721.624 4.794 1.86 6.194h-4.707c-.624 0-1.17.22-1.612.673-.429.454-.65.985-.65 1.594v.052c0 .622.221 1.153.65 1.594.455.453.988.673 1.612.673h13.624c2.964 0 5.473-1.075 7.54-3.174a10.375 10.375 0 003.133-7.605c0-2.98-1.04-5.52-3.146-7.632A10.313 10.313 0 0030.186.874c-2.951 0-5.473 1.05-7.579 3.161zm35.659 78.231c-.26 1.037-.429 1.645-.52 1.775-.195.415-.494.622-.91.622a.979.979 0 01-.741-.324 1.1 1.1 0 01-.312-.777v-2.073c0-.35-.117-.648-.364-.907a1.094 1.094 0 00-.858-.389h-.026a1.176 1.176 0 00-.871.389 1.28 1.28 0 00-.364.907v1.969c0 1.01.351 1.892 1.04 2.617a3.328 3.328 0 002.509 1.089c1.001 0 1.768-.298 2.327-.881.39-.415.689-1.037.923-1.88.299-1.088.468-1.684.52-1.787.182-.415.468-.61.832-.61.299 0 .559.105.754.312a1.1 1.1 0 01.312.79v2.89c0 .35.117.647.364.906a1.17 1.17 0 00.871.376h.013c.351 0 .65-.13.871-.389.247-.259.364-.544.364-.906v-2.773c0-1.01-.351-1.892-1.04-2.617-.689-.726-1.534-1.089-2.509-1.089-.988 0-1.742.298-2.275.881-.39.415-.676 1.037-.91 1.88zm3.289-12.256c.65.648.988 1.45.988 2.37a3.231 3.231 0 01-.988 2.385 3.25 3.25 0 01-2.379.972c-.936 0-1.729-.324-2.379-.972a3.24 3.24 0 01-.988-2.384c0-.92.325-1.71.988-2.371a3.254 3.254 0 012.379-.985 3.26 3.26 0 012.379.985zM53.3 72.38c0 1.607.572 2.98 1.716 4.121a5.628 5.628 0 004.134 1.71c1.612 0 2.99-.57 4.134-1.71A5.61 5.61 0 0065 72.381c0-1.607-.572-2.98-1.716-4.12a5.645 5.645 0 00-4.134-1.71c-1.612 0-2.99.57-4.134 1.71a5.61 5.61 0 00-1.716 4.12zm-3.9-11.025v.013c-.005.336.12.661.351.907a1.1 1.1 0 00.858.375h13.182c.338 0 .624-.13.845-.388a1.21 1.21 0 00.364-.894c0-.35-.13-.648-.364-.907a1.056 1.056 0 00-.845-.376H50.61c-.338 0-.624.13-.858.389a1.293 1.293 0 00-.35.894v-.013zm3.9-12.945v.027c-.002.338.129.663.364.907a1.169 1.169 0 00.871.389h5.564c.663 0 1.235.259 1.716.75.468.493.702 1.102.702 1.815 0 .712-.234 1.321-.702 1.814-.481.492-1.04.738-1.716.738h-5.564a1.172 1.172 0 00-.871.389 1.293 1.293 0 00-.364.907v.039c0 .35.13.648.364.907a1.17 1.17 0 00.871.389h5.564c1.339 0 2.496-.519 3.458-1.516C64.519 54.94 65 53.723 65 52.298c0-1.425-.481-2.643-1.43-3.667a4.601 4.601 0 00-3.484-1.516h-5.564a1.172 1.172 0 00-.871.389 1.23 1.23 0 00-.364.907h.013zm.195-6.555v1.503h-2.886a1.173 1.173 0 00-.858.362 1.192 1.192 0 00-.351.855v.026a1.188 1.188 0 00.351.855 1.17 1.17 0 00.858.363h11.258a3.03 3.03 0 002.21-.92A3.097 3.097 0 0065 42.658v-.803a1.164 1.164 0 00-.364-.855 1.086 1.086 0 00-.845-.363h-.026a1.173 1.173 0 00-.858.362 1.165 1.165 0 00-.351.856v.803a.686.686 0 01-.689.7h-5.928v-1.503a1.165 1.165 0 00-.351-.855 1.132 1.132 0 00-.858-.363h-.013a1.173 1.173 0 00-.858.362 1.166 1.166 0 00-.364.856zm-3.705-6.012a1.245 1.245 0 00-.39.907c0 .363.13.661.39.907.247.26.546.389.91.389.35 0 .663-.13.91-.389.26-.246.39-.544.39-.907 0-.35-.13-.648-.39-.907a1.202 1.202 0 00-.91-.388c-.364 0-.676.13-.91.388zm3.51.894v.013c0 .363.13.661.364.907a1.169 1.169 0 00.87.389h9.23c.352 0 .65-.13.872-.389.247-.246.364-.544.364-.907 0-.362-.13-.66-.364-.907a1.108 1.108 0 00-.871-.375h-9.23a1.172 1.172 0 00-.871.388 1.204 1.204 0 00-.364.894v-.013zm8.255-10.78c.65.648.988 1.451.988 2.371a3.23 3.23 0 01-.988 2.384 3.25 3.25 0 01-2.379.972c-.936 0-1.729-.324-2.379-.972a3.24 3.24 0 01-.988-2.384c0-.92.325-1.71.988-2.37a3.254 3.254 0 012.379-.986 3.261 3.261 0 012.379.985zM53.3 28.328c0 1.607.572 2.98 1.716 4.12a5.642 5.642 0 004.134 1.71c1.612 0 2.99-.57 4.134-1.71A5.61 5.61 0 0065 28.328c0-1.607-.572-2.98-1.716-4.12a5.642 5.642 0 00-4.134-1.71c-1.612 0-2.99.57-4.134 1.71a5.61 5.61 0 00-1.716 4.12zm1.43-17.271a5.127 5.127 0 00-1.43 3.667c0 1.425.48 2.643 1.43 3.667a4.602 4.602 0 003.484 1.516h5.55c.352 0 .65-.13.872-.389.235-.243.366-.569.364-.907v-.039a1.293 1.293 0 00-.364-.907 1.12 1.12 0 00-.871-.388h-5.551c-.663 0-1.235-.247-1.716-.739a2.551 2.551 0 01-.715-1.814c0-.713.247-1.321.715-1.814.48-.492 1.04-.738 1.716-.738h5.55c.352 0 .65-.13.872-.389a1.29 1.29 0 00.364-.92v-.026c0-.363-.13-.66-.364-.907a1.12 1.12 0 00-.871-.388h-5.551c-1.352 0-2.51.518-3.471 1.515h-.013zm1.053-6.53c-.003.29.11.57.312.777a1.013 1.013 0 00.754.324c.39 0 .702-.207.91-.622.078-.13.247-.725.507-1.775.234-.842.52-1.464.91-1.878.52-.584 1.3-.882 2.275-.882.975 0 1.82.363 2.509 1.089A3.686 3.686 0 0165 4.177v2.786c0 .35-.13.648-.364.907a1.105 1.105 0 01-.871.375h-.013a1.14 1.14 0 01-.871-.388c-.26-.26-.364-.544-.364-.907V4.073c0-.31-.104-.57-.312-.777a1 1 0 00-.754-.324c-.364 0-.65.194-.845.61-.188.59-.357 1.186-.507 1.787a4.515 4.515 0 01-.923 1.879 3.016 3.016 0 01-2.34.88c-.962 0-1.794-.362-2.496-1.088a3.686 3.686 0 01-1.04-2.617v-1.97c0-.349.13-.647.364-.906.247-.26.533-.389.871-.389h.026c.338 0 .637.13.858.389.237.243.367.569.364.907v2.073z"/></g><defs><clipPath id="clip0_108_278"><path fill="#fff" transform="rotate(-90 74.736 74.736)" d="M0 0h149v65H0z"/></clipPath></defs></svg>