<svg width="128" height="146" fill="none" xmlns="http://www.w3.org/2000/svg"><path d="M63.55 0C28.45 0 0 28.447 0 63.547c0 23.531 12.782 44.08 31.825 55.059l-11.996 27.3 43.722-18.845c35.102 0 63.55-28.447 63.55-63.547C127.101 28.447 98.653 0 63.551 0z" fill="#0FC"/><path d="M34.375 35h59c4.056 0 7.375 3.319 7.375 7.375v44.25c0 4.056-3.319 7.375-7.375 7.375h-59C30.319 94 27 90.681 27 86.625v-44.25C27 38.319 30.319 35 34.375 35z" stroke="#000" stroke-width="2" stroke-linecap="round" stroke-linejoin="round"/><path d="M100.75 42.375L63.875 68.188 27 42.374" stroke="#000" stroke-width="2" stroke-linecap="round" stroke-linejoin="round"/></svg>