<svg width="1359" height="355" fill="none" xmlns="http://www.w3.org/2000/svg"><path d="M1.223 306h647.534v8.182a39.47 39.47 0 01-11.553 27.903 39.44 39.44 0 01-27.893 11.557H40.777a39.44 39.44 0 01-27.892-11.557A39.469 39.469 0 011.33 314.182V306h-.108z" fill="#fff" stroke="#3F4749" stroke-width="1.5" stroke-linecap="round" stroke-linejoin="round"/><path d="M393.551 305.892H256.574v23.821h136.977v-23.821z" fill="#EDEDED" stroke="#3F4749" stroke-width="1.5" stroke-linecap="round" stroke-linejoin="round"/><path d="M88.186 1h473.718a27.79 27.79 0 0119.652 8.143 27.805 27.805 0 018.141 19.66v277.198H60.393V28.803a27.808 27.808 0 018.14-19.66A27.788 27.788 0 0188.186 1z" fill="#fff" stroke="#3F4749" stroke-width="1.5" stroke-linecap="round" stroke-linejoin="round"/><path d="M562.482 28.224H87.606v250.444h474.876V28.224z" fill="#0FC" stroke="#3F4749" stroke-width="1.5" stroke-linecap="round" stroke-linejoin="round"/><path d="M562.482 28.224H87.606v250.444h474.876V28.224z" fill="#0FC" stroke="#3F4749" stroke-width="1.5" stroke-linecap="round" stroke-linejoin="round"/><path d="M427.46 70.254H222.665c-9.074 0-16.43 7.358-16.43 16.435v135.866c0 9.077 7.356 16.436 16.43 16.436H427.46c9.074 0 16.43-7.359 16.43-16.436V86.69c0-9.078-7.356-16.436-16.43-16.436z" fill="#000" stroke="#3F4749" stroke-width="1.5" stroke-linecap="round" stroke-linejoin="round"/><path d="M427.46 69.784H222.665a16.436 16.436 0 00-16.43 16.436v12.055H443.89V86.219a16.44 16.44 0 00-4.812-11.621 16.426 16.426 0 00-11.618-4.814z" fill="#EDEDED" stroke="#3F4749" stroke-width="1.5" stroke-linecap="round" stroke-linejoin="round"/><path d="M314.079 188.634a9.224 9.224 0 01-8.458-5.799 9.213 9.213 0 01-.661-3.541v-11.766l-9.88-4.597 9.88-4.634v-11.838a9.226 9.226 0 019.228-9.231v0m21.352 51.406a9.224 9.224 0 008.557-5.774 9.209 9.209 0 00.671-3.566v-11.766l9.88-4.597-9.88-4.634v-11.838a9.234 9.234 0 00-2.703-6.528 9.224 9.224 0 00-6.525-2.703v0" stroke="#fff" stroke-width="1.5" stroke-linecap="round" stroke-linejoin="round"/><path d="M288.964 188.634h-32.679" stroke="#0FC" stroke-width="1.5" stroke-linecap="round" stroke-linejoin="round"/><path d="M360.185 188.634l33.619-51.696" stroke="#967BFF" stroke-width="1.5" stroke-linecap="round" stroke-linejoin="round"/><path d="M325.045 19.39a4.778 4.778 0 004.777-4.778 4.778 4.778 0 10-4.777 4.778z" fill="#3F4749" stroke="#3F4749" stroke-width="1.5" stroke-linecap="round" stroke-linejoin="round"/><path d="M1354.92 68.907l-34.96-6.068-43.33 249.835 34.97 6.068 43.32-249.835z" fill="#967BFF" stroke="#3F4749" stroke-width="1.492" stroke-linecap="round" stroke-linejoin="round"/><path d="M1318.92 78.11l15.85 2.824m-18.31 11.222l7.89 1.376m-10.39 12.635l7.93 1.411m-10.43 12.634l7.93 1.376M1309 134.223l15.82 2.823m-18.31 11.223l7.89 1.376m-10.39 12.634l7.93 1.412m-10.43 12.598l7.93 1.412m-10.39 12.634l15.82 2.788m-18.32 11.223l7.89 1.412m-10.38 12.634l7.92 1.412m-10.42 12.598l7.93 1.412m-10.39 12.634l15.81 2.788m-18.31 11.222l7.93 1.412m-10.42 12.635l7.92 1.376m-10.39 12.634l7.89 1.412m-10.38 12.634l15.81 2.788" stroke="#3F4749" stroke-width="1.5" stroke-linecap="round" stroke-linejoin="round"/><path d="M1358.15 165.22l-19.05-6.697-53.68 152.809 19.05 6.697 53.68-152.809z" fill="#7FEFD2" stroke="#3F4749" stroke-width="1.5" stroke-linecap="round" stroke-linejoin="round"/><path d="M1339.08 158.514l16.75-17.196 2.28 23.894-19.03-6.698z" fill="#fff" stroke="#3F4749" stroke-width="1.5" stroke-linecap="round" stroke-linejoin="round"/><path d="M1349.21 148.124l7.53 2.643-.91-9.449-6.62 6.806z" fill="#3F4749" stroke="#3F4749" stroke-width="1.5" stroke-linecap="round" stroke-linejoin="round"/><path d="M1294.93 314.689l53.66-152.808" stroke="#3F4749" stroke-width="1.5" stroke-linecap="round" stroke-linejoin="round"/><path d="M1304.45 318.015l-19.05-6.697-3.02 8.607 19.05 6.697 3.02-8.607z" fill="#C4CBCC" stroke="#3F4749" stroke-width="1.5" stroke-linecap="round" stroke-linejoin="round"/><path d="M1301.46 326.637l-19.05-6.697-5.72 16.258 19.06 6.696 5.71-16.257z" fill="#EDEDED" stroke="#3F4749" stroke-width="1.5" stroke-linecap="round" stroke-linejoin="round"/><path d="M1275.66 319.657l20.11-1.866-14.95-161.275-20.11 1.866 14.95 161.275z" fill="#fff" stroke="#3F4749" stroke-width="1.5" stroke-linecap="round" stroke-linejoin="round"/><path d="M1295.76 317.802l-8.04 22.627-12.05-20.744 20.09-1.883z" fill="#967BFF" stroke="#3F4749" stroke-width="1.5" stroke-linecap="round" stroke-linejoin="round"/><path d="M1290.91 331.487l-7.93.724 4.74 8.218 3.19-8.942z" fill="#3F4749" stroke="#3F4749" stroke-width="1.5" stroke-linecap="round" stroke-linejoin="round"/><path d="M1270.75 157.465l14.98 161.279" stroke="#3F4749" stroke-width="1.5" stroke-linecap="round" stroke-linejoin="round"/><path d="M1260.7 158.407l20.1-1.865-.84-9.084-20.1 1.866.84 9.083z" fill="#C4CBCC" stroke="#3F4749" stroke-width="1.5" stroke-linecap="round" stroke-linejoin="round"/><path d="M1259.85 149.279l20.11-1.866-1.59-17.159-20.11 1.866 1.59 17.159z" fill="#EDEDED" stroke="#3F4749" stroke-width="1.5" stroke-linecap="round" stroke-linejoin="round"/><path d="M1257.47 248.802h87.54v89.78a15.09 15.09 0 01-15.09 15.096h-57.36a15.09 15.09 0 01-15.09-15.096v-89.78z" fill="#000" stroke="#3F4749" stroke-width="1.5" stroke-linecap="round" stroke-linejoin="round"/><path d="M1350.19 228.384h-97.97v20.418h97.97v-20.418z" fill="#00F5C9" stroke="#3F4749" stroke-width="1.5" stroke-linecap="round" stroke-linejoin="round"/><path d="M1268.87 249.236v40.691m63.87 4.417v11.005m0 9.34v11.005" stroke="#3F4749" stroke-width="1.5" stroke-linecap="round" stroke-linejoin="round"/></svg>