<svg width="103" height="103" viewBox="0 0 103 103" fill="none" xmlns="http://www.w3.org/2000/svg">
<path d="M51.0566 102.113C79.2545 102.113 102.113 79.2545 102.113 51.0567C102.113 22.8588 79.2545 0 51.0566 0C22.8588 0 0 22.8588 0 51.0567C0 79.2545 22.8588 102.113 51.0566 102.113Z" fill="#00FFCC"/>
<path d="M46.0637 37.4654C46.065 35.8898 45.5967 34.3496 44.7185 33.0414C43.8404 31.7332 42.5923 30.7165 41.1335 30.1211C39.6748 29.5257 38.0717 29.3786 36.5289 29.6987C34.9862 30.0187 33.5738 30.7913 32.4723 31.9179C30.9979 30.4602 29.0109 29.6383 26.9375 29.6287C24.8642 29.619 22.8696 30.4222 21.3816 31.8662C19.8936 33.3101 19.0308 35.2796 18.9781 37.3523C18.9255 39.425 19.6872 41.4358 21.1 42.9534L32.4327 54.2267L44.0427 42.7157L44.4985 42.1609C45.5081 40.803 46.0566 39.1575 46.0637 37.4654Z" fill="black"/>
<path d="M84.7776 37.6436C84.779 36.068 84.3106 34.5278 83.4325 33.2196C82.5543 31.9114 81.3061 30.8947 79.8474 30.2993C78.3886 29.7039 76.7855 29.5568 75.2428 29.8769C73.7001 30.1969 72.2877 30.9696 71.1862 32.0961C69.7118 30.6384 67.7248 29.8165 65.6514 29.8069C63.578 29.7972 61.5835 30.6005 60.0955 32.0444C58.6076 33.4883 57.7447 35.4578 57.692 37.5305C57.6394 39.6033 58.4011 41.614 59.8139 43.1316L71.1466 54.4049L82.7567 42.8939L83.2124 42.3391C84.222 40.9812 84.7705 39.3357 84.7776 37.6436Z" fill="black"/>
<path d="M30.2928 72.5928H24.25" stroke="black" stroke-width="2" stroke-miterlimit="10" stroke-linecap="round"/>
<path d="M32.1751 65.6187L26.9248 62.5874" stroke="black" stroke-width="2" stroke-miterlimit="10" stroke-linecap="round"/>
<path d="M32.0562 79.3687L26.7861 82.3207" stroke="black" stroke-width="2" stroke-miterlimit="10" stroke-linecap="round"/>
<path d="M51.5915 63.3403H45.8459C44.9841 63.3403 44.1577 63.6827 43.5484 64.292C42.939 64.9014 42.5967 65.7278 42.5967 66.5896V66.5896C42.5967 67.4513 42.939 68.2778 43.5484 68.8872C44.1577 69.4965 44.9841 69.8388 45.8459 69.8388H47.7083C48.1759 69.8388 48.6244 70.0246 48.9551 70.3553C49.2858 70.686 49.4716 71.1345 49.4716 71.6021V73.0881C49.4716 73.5557 49.2858 74.0042 48.9551 74.3349C48.6244 74.6656 48.1759 74.8514 47.7083 74.8514H45.945C45.057 74.8514 44.2053 75.2041 43.5774 75.8321C42.9495 76.46 42.5967 77.3116 42.5967 78.1997C42.5967 79.0877 42.9495 79.9394 43.5774 80.5673C44.2053 81.1952 45.057 81.548 45.945 81.548H51.5915" stroke="black" stroke-width="2" stroke-miterlimit="10" stroke-linecap="round"/>
</svg>
