<svg width="103" height="103" viewBox="0 0 103 103" fill="none" xmlns="http://www.w3.org/2000/svg">
<path d="M51.0567 102.113C79.2545 102.113 102.113 79.2545 102.113 51.0566C102.113 22.8588 79.2545 0 51.0567 0C22.8589 0 0 22.8588 0 51.0566C0 79.2545 22.8589 102.113 51.0567 102.113Z" fill="#00FFCC"/>
<path d="M37.1878 39.9221C37.1878 41.2568 36.6576 42.5368 35.7138 43.4805C34.7701 44.4243 33.4901 44.9545 32.1554 44.9545C30.8207 44.9545 29.5407 44.4243 28.597 43.4805C27.6532 42.5368 27.123 41.2568 27.123 39.9221H37.1878Z" fill="black"/>
<path d="M75.4065 39.9221C75.4065 41.2568 74.8763 42.5368 73.9326 43.4805C72.9888 44.4243 71.7088 44.9545 70.3742 44.9545C69.0395 44.9545 67.7595 44.4243 66.8158 43.4805C65.872 42.5368 65.3418 41.2568 65.3418 39.9221H75.4065Z" fill="black"/>
<path d="M24.5273 34.8896H39.8027" stroke="black" stroke-width="2" stroke-miterlimit="10" stroke-linecap="round"/>
<path d="M62.7461 34.8896H78.0017" stroke="black" stroke-width="2" stroke-miterlimit="10" stroke-linecap="round"/>
<path d="M71.3846 61.1016C71.381 65.762 69.9963 70.3168 67.4054 74.1907C64.8145 78.0645 61.1337 81.0836 56.8278 82.8666C52.5219 84.6496 47.7842 85.1165 43.2132 84.2083C38.6421 83.3 34.4427 81.0575 31.1455 77.7638" stroke="black" stroke-width="2" stroke-miterlimit="10" stroke-linecap="round"/>
</svg>
