<svg width="103" height="103" viewBox="0 0 103 103" fill="none" xmlns="http://www.w3.org/2000/svg">
<path d="M51.0567 102.113C79.2545 102.113 102.113 79.2545 102.113 51.0567C102.113 22.8589 79.2545 0 51.0567 0C22.8589 0 0 22.8589 0 51.0567C0 79.2545 22.8589 102.113 51.0567 102.113Z" fill="#00FFCC"/>
<path d="M24.8849 46.4799C24.8307 45.386 24.9993 44.2925 25.3806 43.2658C25.7619 42.2391 26.3478 41.3005 27.1029 40.5072C27.8579 39.7138 28.7663 39.0821 29.7729 38.6505C30.7795 38.2189 31.8633 37.9963 32.9585 37.9963C34.0537 37.9963 35.1375 38.2189 36.1441 38.6505C37.1507 39.0821 38.0591 39.7138 38.8141 40.5072C39.5691 41.3005 40.1551 42.2391 40.5363 43.2658C40.9176 44.2925 41.0863 45.386 41.0321 46.4799" stroke="black" stroke-width="2" stroke-miterlimit="10" stroke-linecap="round"/>
<path d="M61.0421 46.4799C60.9879 45.386 61.1566 44.2925 61.5379 43.2658C61.9191 42.2391 62.5051 41.3005 63.2601 40.5072C64.0151 39.7138 64.9235 39.0821 65.9301 38.6505C66.9367 38.2189 68.0205 37.9963 69.1157 37.9963C70.2109 37.9963 71.2947 38.2189 72.3013 38.6505C73.3079 39.0821 74.2163 39.7138 74.9713 40.5072C75.7264 41.3005 76.3123 42.2391 76.6936 43.2658C77.0748 44.2925 77.2435 45.386 77.1893 46.4799" stroke="black" stroke-width="2" stroke-miterlimit="10" stroke-linecap="round"/>
<path d="M78.4577 71.8003C74.6748 74.3278 70.5156 76.2402 66.1344 77.4666C56.2671 80.2372 45.8274 80.2372 35.9601 77.4666C31.5789 76.2402 27.4196 74.3278 23.6367 71.8003" stroke="black" stroke-width="2" stroke-miterlimit="10" stroke-linecap="round"/>
</svg>
