<svg width="103" height="103" viewBox="0 0 103 103" fill="none" xmlns="http://www.w3.org/2000/svg">
<path d="M51.0567 102.113C79.2545 102.113 102.113 79.2545 102.113 51.0567C102.113 22.8589 79.2545 0 51.0567 0C22.8589 0 0 22.8589 0 51.0567C0 79.2545 22.8589 102.113 51.0567 102.113Z" fill="#00FFCC"/>
<path d="M29.7783 72.1768H72.7515" stroke="black" stroke-width="2" stroke-miterlimit="10" stroke-linecap="round"/>
<path d="M33.1857 47.6092C36.0416 47.6092 38.3567 45.294 38.3567 42.4381C38.3567 39.5822 36.0416 37.2671 33.1857 37.2671C30.3298 37.2671 28.0146 39.5822 28.0146 42.4381C28.0146 45.294 30.3298 47.6092 33.1857 47.6092Z" fill="black"/>
<path d="M69.3439 47.6092C72.1998 47.6092 74.5149 45.294 74.5149 42.4381C74.5149 39.5822 72.1998 37.2671 69.3439 37.2671C66.488 37.2671 64.1729 39.5822 64.1729 42.4381C64.1729 45.294 66.488 47.6092 69.3439 47.6092Z" fill="black"/>
</svg>
