<svg width="103" height="103" viewBox="0 0 103 103" fill="none" xmlns="http://www.w3.org/2000/svg">
<path d="M51.0567 102.113C79.2545 102.113 102.113 79.2545 102.113 51.0567C102.113 22.8588 79.2545 0 51.0567 0C22.8589 0 0 22.8588 0 51.0567C0 79.2545 22.8589 102.113 51.0567 102.113Z" fill="#00FFCC"/>
<path d="M28.5693 37.9805L37.8614 45.1526L28.5693 52.3049" stroke="black" stroke-width="2" stroke-miterlimit="10" stroke-linecap="round"/>
<path d="M73.9405 37.9805L64.6484 45.1526L73.9405 52.3049" stroke="black" stroke-width="2" stroke-miterlimit="10" stroke-linecap="round"/>
<path d="M63.9945 82.2811H37.5053C34.7814 82.2707 32.172 81.184 30.2459 79.2579C28.3198 77.3318 27.2331 74.7224 27.2227 71.9985C27.2331 69.2746 28.3198 66.6652 30.2459 64.7391C32.172 62.813 34.7814 61.7263 37.5053 61.7158H63.9945C66.7185 61.7263 69.3278 62.813 71.2539 64.7391C73.1801 66.6652 74.2668 69.2746 74.2772 71.9985C74.2668 74.7224 73.1801 77.3318 71.2539 79.2579C69.3278 81.184 66.7185 82.2707 63.9945 82.2811Z" fill="white"/>
<path d="M63.9945 82.2811H37.5053C34.7814 82.2707 32.172 81.184 30.2459 79.2579C28.3198 77.3318 27.2331 74.7224 27.2227 71.9985V71.9985C27.2331 69.2746 28.3198 66.6652 30.2459 64.7391C32.172 62.813 34.7814 61.7263 37.5053 61.7158H63.9945C66.7185 61.7263 69.3278 62.813 71.2539 64.7391C73.1801 66.6652 74.2668 69.2746 74.2772 71.9985V71.9985C74.2668 74.7224 73.1801 77.3318 71.2539 79.2579C69.3278 81.184 66.7185 82.2707 63.9945 82.2811Z" stroke="black" stroke-width="2" stroke-miterlimit="10" stroke-linecap="round"/>
<path d="M27.2227 71.9985H74.297" stroke="black" stroke-miterlimit="10" stroke-linecap="round"/>
<path d="M37.8613 62.7856V82.2811" stroke="black" stroke-miterlimit="10"/>
<path d="M47.0547 62.7856V82.2811" stroke="black" stroke-miterlimit="10"/>
<path d="M65.46 62.7856V82.2811" stroke="black" stroke-miterlimit="10"/>
<path d="M56.2676 62.7856V82.2811" stroke="black" stroke-miterlimit="10"/>
<path d="M43.6076 38.8126L31.8984 30.1545" stroke="black" stroke-width="2" stroke-miterlimit="10" stroke-linecap="round"/>
<path d="M58.8232 38.8126L70.5324 30.1545" stroke="black" stroke-width="2" stroke-miterlimit="10" stroke-linecap="round"/>
</svg>
