<svg width="1311" height="823" fill="none" xmlns="http://www.w3.org/2000/svg"><g clip-path="url(#clip0_706_561)"><path d="M1059.19 864.52H679.982c-10.324 0-18.649-8.357-18.649-18.648V135.681c0-10.324 8.358-18.648 18.649-18.648h379.178c10.32 0 18.64 8.357 18.64 18.648v710.191c.04 10.291-8.32 18.648-18.61 18.648z" fill="#fff"/><path d="M1060.01 866.192H679.294c-10.357 0-18.78-8.423-18.78-18.779V134.14c0-10.356 8.423-18.779 18.78-18.779h380.686c10.35 0 18.78 8.423 18.78 18.779v713.273c.03 10.356-8.39 18.779-18.75 18.779zm-380.716-747.75c-8.653 0-15.7 7.046-15.7 15.698v713.273c0 8.652 7.047 15.698 15.7 15.698h380.686c8.65 0 15.69-7.046 15.69-15.698V134.14c0-8.652-7.04-15.698-15.69-15.698H679.294z" fill="#000"/><path d="M1077.25 168.617H662.054c-.852 0-1.54-.688-1.54-1.54 0-.852.688-1.54 1.54-1.54h415.156c.86 0 1.55.688 1.55 1.54.03.852-.66 1.54-1.51 1.54z" fill="#000"/><path d="M694.698 154.328c6.191 0 11.209-5.018 11.209-11.208s-5.018-11.208-11.209-11.208c-6.19 0-11.209 5.018-11.209 11.208s5.019 11.208 11.209 11.208zm39.396 0c6.19 0 11.209-5.018 11.209-11.208s-5.019-11.208-11.209-11.208c-6.191 0-11.209 5.018-11.209 11.208s5.018 11.208 11.209 11.208zm39.362 0c6.191 0 11.209-5.018 11.209-11.208s-5.018-11.208-11.209-11.208c-6.19 0-11.209 5.018-11.209 11.208s5.019 11.208 11.209 11.208z" fill="#E3E3E3"/><path d="M985.97 570.939H753.366c-12.16 0-22.025-9.864-22.025-22.023v-6.129c0-12.159 9.865-22.023 22.025-22.023H985.97c12.159 0 22.02 9.864 22.02 22.023v6.129c-.03 12.191-9.893 22.023-22.02 22.023z" fill="#0FC"/><path d="M985.97 638.452H753.366c-12.16 0-22.025-9.865-22.025-22.024V610.3c0-12.159 9.865-22.024 22.025-22.024H985.97c12.159 0 22.02 9.865 22.02 22.024v6.128c-.03 12.159-9.893 22.024-22.02 22.024zm-6.817-147.676h-218.97c-15.929 0-28.842-12.912-28.842-28.84v-40.802c0-15.928 12.913-28.841 28.842-28.841h218.97c15.928 0 28.837 12.913 28.837 28.841v40.835c-.03 15.895-12.942 28.807-28.837 28.807z" fill="#DCE0EC"/><path d="M979.152 763.415H760.183c-16.748 0-30.35-13.633-30.35-30.347v-40.836c0-16.747 13.634-30.347 30.35-30.347h218.969c16.748 0 30.348 13.633 30.348 30.347v40.836c0 16.747-13.632 30.347-30.348 30.347zm-219.002-98.45c-15.044 0-27.302 12.257-27.302 27.3V733.1c0 15.043 12.258 27.3 27.302 27.3h218.97c15.043 0 27.3-12.257 27.3-27.3v-40.835c0-15.043-12.257-27.3-27.3-27.3H760.15z" fill="#DCDCDC"/><path d="M1138.77 716.468l-8.1-1.147c-2.23-.328-2.23-3.54 0-3.834l8.1-1.082a1.981 1.981 0 001.67-1.671l1.11-8.063c.3-2.228 3.54-2.228 3.84 0l1.11 8.095c.13.852.79 1.541 1.64 1.672l8.1 1.147c2.22.328 2.22 3.539 0 3.834l-8.1 1.082a1.98 1.98 0 00-1.67 1.671l-1.12 8.062c-.29 2.229-3.54 2.229-3.83 0l-1.11-8.095c-.14-.852-.79-1.54-1.64-1.671z" fill="#fff"/><path d="M163.416 355.489l18.255-2.622c5.015-.721 5.015-7.996-.033-8.652l-18.19-2.458a4.38 4.38 0 01-3.736-3.736l-2.524-18.189c-.688-5.047-7.964-5.047-8.652 0l-2.524 18.255c-.262 1.933-1.77 3.441-3.704 3.736l-18.255 2.622c-5.015.721-5.015 7.996.033 8.652l18.19 2.458a4.38 4.38 0 013.736 3.736l2.524 18.189c.688 5.047 7.964 5.047 8.652 0l2.524-18.255c.229-1.933 1.77-3.441 3.704-3.736z" fill="#0FC"/><path d="M115.859 319.537l9.275-1.311c2.557-.36 2.524-4.064-.032-4.391l-9.243-1.246a2.224 2.224 0 01-1.901-1.9l-1.278-9.242c-.361-2.557-4.031-2.557-4.392 0l-1.278 9.274c-.131.983-.918 1.737-1.901 1.901l-9.275 1.311c-2.557.361-2.524 4.064.032 4.392l9.243 1.245c.983.131 1.77.918 1.901 1.901l1.278 9.242c.361 2.556 4.031 2.556 4.392 0l1.278-9.275a2.297 2.297 0 011.901-1.901z" fill="#FFCA28"/><path d="M190.095 270.05l8.095-1.147c2.229-.328 2.229-3.539 0-3.834l-8.095-1.082a1.981 1.981 0 01-1.672-1.671l-1.114-8.063c-.295-2.228-3.54-2.228-3.835 0l-1.114 8.095c-.131.852-.787 1.541-1.639 1.672l-8.095 1.147c-2.229.328-2.229 3.539 0 3.834l8.095 1.082c.852.131 1.54.786 1.672 1.671l1.114 8.062c.295 2.229 3.54 2.229 3.835 0l1.114-8.127c.131-.852.787-1.541 1.639-1.639z" fill="#5125FF"/><path d="M1037.82 809.134H701.483a1.539 1.539 0 01-1.541-1.54 1.54 1.54 0 011.541-1.541h336.337a1.54 1.54 0 110 3.081zm0 14.977H701.483a1.539 1.539 0 01-1.541-1.54 1.54 1.54 0 011.541-1.541h336.337a1.54 1.54 0 110 3.081z" fill="#000"/><path d="M991.771 424.149H747.565a1.54 1.54 0 110-3.081h244.206a1.54 1.54 0 011.541 1.541c0 .852-.721 1.54-1.541 1.54zm0 14.977H747.565a1.54 1.54 0 110-3.081h244.206a1.54 1.54 0 011.541 1.541c-.033.852-.721 1.54-1.541 1.54zm0 14.978H747.565a1.54 1.54 0 110-3.081h244.206c.853 0 1.541.688 1.541 1.54-.033.852-.721 1.541-1.541 1.541zm0 14.944H747.565a1.54 1.54 0 110-3.081h244.206a1.54 1.54 0 011.541 1.541c-.033.852-.721 1.54-1.541 1.54z" fill="#fff"/><path d="M376.552 524.664l41.362 609.416h107.207l-19.305-609.416H376.552z" fill="#5125FF"/><path d="M340.073 534.594l-68.532 272.508-116.646 217.058 94.555 50.04s127.659-242.813 135.427-258.774l60.142-290.729-104.946 9.897z" fill="#5125FF"/><path d="M506.637 550.817v7.374l-175.609 12.323 6.195-24.646 169.414 4.949z" fill="#000"/><path d="M382.354 195.295s1.671 29.889-17.437 32.052c-19.108 2.163-96.194-12.65-121.202 30.348-25.007 42.998-7.866 142.3 93.507 114.115 101.373-28.184 120.022-96.713 106.814-130.207-13.208-33.494-61.682-46.308-61.682-46.308z" fill="#5125FF"/><path d="M457.933 315.605h25.859a66.5 66.5 0 0159.618 37.034l89.443 181.038h108.092l-80.135 76.295c-25.302 24.056-66.369 18.583-84.429-11.274l-94.588-144.365-23.86-138.728zM219.036 617.871l62.076-50.799-5.408-15.403 57.553-83.145 43.328-153.738h-15.011c-28.547 0-55.291 13.863-71.777 37.132 0 0-98.161 130.928-131.067 177.498-53.751 76.066 38.117 112.51 60.306 88.455z" fill="#0FC"/><path d="M382.582 314.72h-2.851c-30.251 0-54.964 22.023-55.718 49.618l-24.089 160.293h211.661l-5.769-164.291c0-25.203-22.385-45.62-49.981-45.62h-73.253z" fill="#0FC"/><path d="M395.267 257.695v57.025c0 17.304 14.027 31.331 31.332 31.331 17.306 0 31.333-14.027 31.333-31.331v-39.492l-62.665-17.533z" fill="#FDD8A9"/><path d="M382.354 234.033v-38.738c0-9.471 7.669-17.173 17.174-17.173h47.458v21.04l-64.632 34.871zm85.705-.001c11.277 0 20.419-9.141 20.419-20.417 0-11.276-9.142-20.418-20.419-20.418-11.277 0-20.418 9.142-20.418 20.418s9.141 20.417 20.418 20.417z" fill="#5125FF"/><path d="M433.253 294.597c-23.925 0-43.328-19.401-43.328-43.326v-43.129h86.69v43.097c-.033 23.957-19.436 43.358-43.362 43.358z" fill="#FDD8A9"/><path d="M398.773 247.863c6.77 0 12.258-10.169 12.258-22.712s-5.488-22.712-12.258-22.712c-6.769 0-12.257 10.169-12.257 22.712s5.488 22.712 12.257 22.712z" fill="#5125FF"/><path d="M412.965 228.887c12.743 0 23.074-10.33 23.074-23.072 0-12.743-10.331-23.072-23.074-23.072-12.743 0-23.073 10.329-23.073 23.072 0 12.742 10.33 23.072 23.073 23.072z" fill="#5125FF"/><path d="M454.425 216.892c19.983 0 36.183-12.78 36.183-28.545 0-15.765-16.2-28.545-36.183-28.545-19.984 0-36.184 12.78-36.184 28.545 0 15.765 16.2 28.545 36.184 28.545z" fill="#5125FF"/><path d="M393.661 257.695c8.399 0 15.207-6.794 15.207-15.174 0-8.38-6.808-15.174-15.207-15.174-8.399 0-15.208 6.794-15.208 15.174 0 8.38 6.809 15.174 15.208 15.174z" fill="#FDD8A9"/><path d="M435.384 245.306a3.67 3.67 0 100-7.34 3.67 3.67 0 000 7.34zm30.184 0a3.67 3.67 0 100-7.341 3.672 3.672 0 000 7.341zm-66.106 3.409a1.53 1.53 0 01-.918-.295l-10.521-7.898a1.528 1.528 0 01-.295-2.163 1.53 1.53 0 012.164-.295l10.52 7.898c.689.525.82 1.475.295 2.163-.327.393-.786.59-1.245.59zm46.639 22.745c-1.868 0-3.54-.459-5.015-1.344-4.49-2.688-5.375-8.423-5.408-8.652-.131-.852.459-1.606 1.311-1.737a1.523 1.523 0 011.737 1.278c0 .065.721 4.555 3.966 6.489 1.967 1.18 4.589 1.18 7.768.033.787-.295 1.671.131 1.966.917.295.787-.131 1.672-.917 1.967-1.967.688-3.769 1.049-5.408 1.049zm11.831 15.403s-16.453 10.717-35.331 6.391c0 0 15.273 8.979 35.331 1.31v-7.701z" fill="#000"/><path d="M704.073 550.817H346.17c-26.646 0-48.245-21.598-48.245-48.242 0-26.645 21.599-48.242 48.245-48.242h357.903c26.646 0 48.244 21.597 48.244 48.242-.032 26.644-21.598 48.242-48.244 48.242z" fill="#fff"/><path d="M704.072 552.324H346.169c-27.432 0-49.752-22.318-49.752-49.749s22.32-49.75 49.752-49.75h357.903c27.433 0 49.753 22.319 49.753 49.75s-22.32 49.749-49.753 49.749zm-357.903-96.451c-25.761 0-46.704 20.942-46.704 46.702 0 25.759 20.943 46.701 46.704 46.701h357.903c25.762 0 46.705-20.942 46.705-46.701 0-25.76-20.943-46.702-46.705-46.702H346.169z" fill="#000"/><path d="M263.117 503.066l35.758-12.29 37.724 31.79s11.373 11.602-7.244 13.044c0 0 8.424 17.599-7.866 14.158 3.016 4.785 5.343 14.846-7.439 12.322l-18.256-14.649-19.239 11.667-13.438-56.042z" fill="#FDD8A9"/><path d="M321.523 551.276c-.361 0-.688-.132-.983-.361l-19.272-16.091a1.551 1.551 0 01-.197-2.164 1.55 1.55 0 012.163-.196l19.272 16.091a1.55 1.55 0 01.197 2.163 1.499 1.499 0 01-1.18.558zm7.866-14.125c-.361 0-.721-.132-1.016-.394l-18.977-16.616c-.623-.557-.688-1.54-.131-2.163.557-.622 1.54-.688 2.163-.131l18.977 16.616c.622.557.688 1.541.131 2.163a1.57 1.57 0 01-1.147.525z" fill="#000"/><path d="M370.456 471.637l9.406 19.009 21.009 3.047-15.208 14.814 3.606 20.942-18.813-9.898-18.78 9.898 3.605-20.942-15.208-14.814 21.009-3.047 9.374-19.009zm77.348 0l9.374 19.009 21.008 3.047-15.207 14.814 3.605 20.942-18.78-9.898-18.813 9.898 3.605-20.942-15.207-14.814 21.008-3.047 9.407-19.009zm77.317 0l9.406 19.009 20.976 3.047-15.175 14.814 3.573 20.942-18.78-9.898-18.78 9.898 3.572-20.942-15.175-14.814 20.976-3.047 9.407-19.009zm77.316 0l9.407 19.009 21.008 3.047-15.207 14.814 3.605 20.942-18.813-9.898-18.78 9.898 3.605-20.942-15.207-14.814 21.008-3.047 9.374-19.009zm77.349 0l9.374 19.009 21.009 3.047-15.208 14.814 3.605 20.942-18.78-9.898-18.813 9.898 3.606-20.942-15.208-14.814 21.009-3.047 9.406-19.009z" fill="#FFCA28"/><path d="M337.222 455.873c-.852 0-1.54-.688-1.54-1.54v-48.471a1.539 1.539 0 113.08 0v48.471c0 .852-.688 1.54-1.54 1.54zm-114.057 72.298c-.524 0-1.049-.262-1.311-.754a1.518 1.518 0 01.557-2.097l39.953-23.564a1.52 1.52 0 012.098.557 1.52 1.52 0 01-.558 2.098l-39.952 23.563a1.752 1.752 0 01-.787.197z" fill="#000"/><path d="M760.871 482.518a8.182 8.182 0 00-6.882-4.26l-44.673-1.77s-16.223.917-3.441 14.518c0 0-18.059 7.309-3.736 15.764-5.441 1.508-13.93 7.374-2.819 14.125l23.369 1.475 3.9 13.24c1.54 5.277 8.03 7.21 12.225 3.638l10.488-8.98c15.601-10.585 20.583-31.232 11.569-47.75z" fill="#FDD8A9"/><path d="M727.278 509.392h-.066l-25.073-1.082a1.54 1.54 0 01-1.475-1.606 1.54 1.54 0 011.606-1.474l25.073 1.081a1.54 1.54 0 011.475 1.606c-.066.819-.721 1.475-1.54 1.475zm3.834-16.354l-25.237-.492a1.56 1.56 0 01-1.508-1.573 1.56 1.56 0 011.573-1.507l25.204.491a1.561 1.561 0 011.508 1.574c0 .852-.688 1.507-1.54 1.507zM393.464 775.345c-.098 0-.196 0-.327-.033-.82-.164-1.377-.983-1.18-1.802l25.302-122.309c.164-.82.983-1.377 1.803-1.18.819.164 1.376.983 1.179 1.802l-25.302 122.309a1.51 1.51 0 01-1.475 1.213zm118.121-319.472c-.852 0-1.54-.688-1.54-1.54v-41.917c0-.852.688-1.54 1.54-1.54.853 0 1.541.688 1.541 1.54v41.917c0 .852-.688 1.54-1.541 1.54z" fill="#000"/><path d="M329.389 603.483a1.552 1.552 0 01-1.311-.721 1.5 1.5 0 01.492-2.097c4.359-2.721 42.869-26.514 47.622-27.661a1.563 1.563 0 011.868 1.114 1.563 1.563 0 01-1.114 1.869c-3.245.786-29.727 16.779-46.738 27.299a1.866 1.866 0 01-.819.197z" fill="#fff"/><path d="M175.15 1036.41a1.53 1.53 0 01-.754-.19c-.721-.43-.983-1.38-.557-2.1l136.606-235.244 41.035-211.583a1.535 1.535 0 113.015.59l-41.1 211.812a2.869 2.869 0 01-.164.492L176.494 1035.66c-.295.49-.82.75-1.344.75zm333.452-421.522c-.328 0-.655-.098-.918-.328l-50.67-38.901c-.688-.525-.786-1.475-.295-2.163.525-.688 1.475-.787 2.164-.295l50.67 38.901c.688.525.786 1.475.295 2.163a1.552 1.552 0 01-1.246.623z" fill="#fff"/><path d="M500.573 1135.59c-.819 0-1.507-.66-1.54-1.48l-17.305-540.164c-.033-.852.622-1.54 1.475-1.573.852-.033 1.54.623 1.573 1.475l17.305 540.162c.033.86-.623 1.54-1.475 1.58h-.033z" fill="#fff"/><path d="M1077.25 540.395c-35.1 0-63.55 28.447-63.55 63.547 0 23.531 12.78 44.08 31.82 55.059l-11.99 27.3 43.72-18.845c35.1 0 63.55-28.447 63.55-63.547 0-35.067-28.45-63.514-63.55-63.514z" fill="#0FC"/><path d="M1108.75 591.947c-5.67-12.421-19.47-15.83-31.53-6.751-12.07-9.079-25.86-5.67-31.53 6.751-5.67 12.454-.76 27.431 11.01 33.428l20.48 10.455 20.49-10.455c11.83-5.997 16.78-20.974 11.08-33.428zm-239.099-229.87c41.995 0 76.038-34.042 76.038-76.034 0-41.992-34.043-76.033-76.038-76.033-41.994 0-76.038 34.041-76.038 76.033 0 41.992 34.044 76.034 76.038 76.034z" fill="#000"/><path d="M869.651 298.825c21.665 0 40.903 10.356 53.063 26.382 8.456-11.143 13.47-25.039 13.47-40.114 0-36.739-29.792-66.497-66.5-66.497s-66.5 29.791-66.5 66.497c0 15.075 5.014 28.971 13.47 40.114 12.094-16.026 31.333-26.382 52.997-26.382z" fill="#fff"/><path d="M869.652 289.845c14.481 0 26.22-11.738 26.22-26.218s-11.739-26.219-26.22-26.219c-14.481 0-26.22 11.739-26.22 26.219s11.739 26.218 26.22 26.218z" fill="#000"/><path d="M747.729 195.295H517.976c-8.653 0-15.666 7.013-15.666 15.665v26.71c0 8.653 7.013 15.666 15.666 15.666h84.166l45.721 41.261v-41.261h99.833c8.653 0 15.666-7.013 15.666-15.666v-26.71c.033-8.652-6.981-15.665-15.633-15.665z" fill="#5125FF"/><path d="M727.212 219.186H538.46c-.852 0-1.54-.688-1.54-1.54 0-.852.688-1.541 1.54-1.541h188.752c.852 0 1.54.689 1.54 1.541s-.688 1.54-1.54 1.54zm0 14.977H538.46c-.852 0-1.54-.688-1.54-1.54 0-.852.688-1.54 1.54-1.54h188.752c.852 0 1.54.688 1.54 1.54 0 .852-.688 1.54-1.54 1.54z" fill="#fff"/></g><defs><clipPath id="clip0_706_561"><path fill="#fff" d="M0 0h1311v823H0z"/></clipPath></defs></svg>