<svg width="119" height="119" fill="none" xmlns="http://www.w3.org/2000/svg"><path d="M7.787 40.082c.513.133.936.34 1.269.622.331.28.56.608.685.983.124.373.133.767.025 1.183a2.058 2.058 0 01-.596 1.024 2.2 2.2 0 01-1.076.525c-.427.083-.897.058-1.41-.075-.514-.133-.936-.339-1.268-.618a2.172 2.172 0 01-.685-.984 2.042 2.042 0 01-.028-1.183c.108-.415.307-.756.598-1.02.29-.268.649-.444 1.077-.529.425-.084.895-.06 1.409.072zm-.114.438c-.441-.114-.838-.138-1.19-.072a1.752 1.752 0 00-.881.417c-.233.212-.392.48-.475.804-.084.322-.075.633.026.931.1.298.289.563.565.793.276.23.635.401 1.078.516.441.114.838.138 1.191.072.353-.067.646-.206.88-.417.234-.212.392-.48.476-.804a1.603 1.603 0 00-.026-.933 1.74 1.74 0 00-.565-.794c-.277-.23-.637-.4-1.079-.513zm2.799-11.5l.21-.414 3.004 1.53c.309.156.548.37.718.638.169.268.258.567.266.897.008.327-.075.662-.248 1.003-.173.34-.395.603-.667.79a1.74 1.74 0 01-.882.313 1.773 1.773 0 01-.937-.204l-3.004-1.529.211-.414 2.975 1.514c.241.123.483.178.727.167.243-.013.467-.089.675-.229.207-.141.378-.344.512-.607.134-.262.197-.52.189-.77a1.28 1.28 0 00-.212-.68 1.434 1.434 0 00-.562-.49l-2.975-1.515zm8.81-3.206l-3.981-3.172 1.023-1.286c.225-.282.465-.477.718-.585.253-.11.507-.141.764-.094.256.046.5.16.732.346.232.184.398.396.499.635.1.237.126.49.075.76-.05.268-.188.542-.41.822l-.873 1.095-.332-.265.864-1.085c.165-.207.268-.407.309-.6a.87.87 0 00-.048-.542 1.196 1.196 0 00-.369-.463 1.225 1.225 0 00-.537-.259.9.9 0 00-.55.07c-.181.08-.355.225-.523.435l-.726.912 3.655 2.912-.29.364zm-.397-3.187l2.577.451-.335.42-2.57-.46.328-.411zm9.943-5.697l-3.07-4.06 1.312-.991c.288-.218.57-.345.847-.38a1.34 1.34 0 01.777.118c.242.114.453.29.632.526.178.236.29.487.337.751a1.37 1.37 0 01-.096.78c-.11.256-.309.492-.596.709l-1.03.78-.253-.334 1.022-.772c.212-.16.359-.334.44-.519a.972.972 0 00.064-.566 1.3 1.3 0 00-.253-.553 1.3 1.3 0 00-.464-.395.943.943 0 00-.562-.089c-.2.027-.408.121-.624.284l-.93.703 2.818 3.729-.371.28zm8.26-4.865L34.813 7.51l1.47-.734c.323-.161.622-.238.897-.229.276.007.52.086.732.237.214.15.387.356.52.622.132.265.193.527.184.786a1.284 1.284 0 01-.252.72c-.16.222-.399.413-.72.573l-1.251.626-.19-.38 1.24-.62c.238-.119.416-.257.533-.414a.869.869 0 00.186-.512 1.195 1.195 0 00-.14-.575 1.225 1.225 0 00-.378-.461.9.9 0 00-.529-.17 1.453 1.453 0 00-.657.176l-1.043.521 2.09 4.18-.417.209zm.982-3.059l2.147 1.495-.48.24-2.137-1.5.47-.235zM50.09 5.1c.14.511.17.981.09 1.41a2.19 2.19 0 01-.516 1.082c-.262.293-.6.495-1.015.607-.414.113-.81.109-1.185-.01a2.2 2.2 0 01-.989-.675c-.283-.33-.495-.751-.633-1.263-.139-.512-.169-.981-.09-1.408.08-.428.25-.789.515-1.082a2.042 2.042 0 011.014-.61 2.035 2.035 0 011.184.014c.375.12.706.345.99.674.285.328.497.748.636 1.26zm-.436.118c-.119-.44-.295-.797-.527-1.07a1.752 1.752 0 00-.798-.56 1.6 1.6 0 00-.933-.014 1.599 1.599 0 00-.797.483 1.77 1.77 0 00-.409.884c-.062.353-.033.75.086 1.192.12.44.295.797.527 1.07.232.274.498.46.798.56.3.097.61.102.934.014.323-.087.589-.249.798-.484.211-.236.348-.53.41-.884.062-.355.032-.752-.089-1.191zm8.482-3.23l.463-.034.27 3.661c.022.33-.017.611-.118.841a1.16 1.16 0 01-.45.53 1.505 1.505 0 01-.7.215 1.635 1.635 0 01-.714-.094 1.186 1.186 0 01-.519-.376 1.102 1.102 0 01-.222-.61l.456-.033c.012.15.061.28.149.39.088.109.202.19.344.244.144.055.302.075.476.063a.954.954 0 00.465-.15.785.785 0 00.297-.372 1.38 1.38 0 00.072-.614l-.27-3.661zm6.801 5.472l.47-5.068 2.941.273-.038.415-2.478-.23-.177 1.909 2.322.215-.039.416-2.322-.215-.177 1.913 2.527.235-.039.415-2.99-.277zm14.225-.35l-.45-.127a1.452 1.452 0 00-.05-.516 1.49 1.49 0 00-.22-.467 1.54 1.54 0 00-.374-.375 1.656 1.656 0 00-.513-.24 1.615 1.615 0 00-.915 0c-.3.09-.57.27-.811.539-.24.268-.423.627-.551 1.078-.129.455-.161.859-.098 1.213.065.354.201.648.41.88.21.232.469.392.778.48.193.054.38.075.564.063a1.49 1.49 0 00.946-.404c.128-.118.233-.256.314-.414l.45.127a2.041 2.041 0 01-.404.565 1.947 1.947 0 01-1.234.565 2.127 2.127 0 01-.755-.082 2.055 2.055 0 01-1.008-.618 2.193 2.193 0 01-.503-1.088c-.074-.428-.038-.897.107-1.41.145-.511.36-.93.648-1.255.288-.325.62-.545.998-.66a2.042 2.042 0 011.183 0c.262.073.49.182.686.325.196.142.356.31.482.504a2.012 2.012 0 01.32 1.318zm6.242 1.772l.189-.373 3.295 1.663-.188.372-1.44-.726-2.104 4.173-.416-.21 2.105-4.172-1.44-.727zm10.767 8.259a.925.925 0 00.111-.765c-.075-.268-.247-.504-.514-.708a1.513 1.513 0 00-.573-.282 1.026 1.026 0 00-.54.013.822.822 0 00-.416.296.697.697 0 00-.145.333.854.854 0 00.028.35c.036.116.086.231.15.345.064.114.135.222.212.324l.334.448c.102.134.196.277.283.431.087.154.152.314.195.48a1.115 1.115 0 01-.205 1.012 1.319 1.319 0 01-.613.455 1.46 1.46 0 01-.796.044c-.286-.06-.575-.2-.868-.423a2.191 2.191 0 01-.614-.683 1.467 1.467 0 01-.188-.747 1.35 1.35 0 01.234-.712l.38.289a.89.89 0 00-.151.526 1.1 1.1 0 00.167.527c.105.169.248.323.43.461.202.154.406.257.615.31.21.051.406.05.588-.003a.877.877 0 00.462-.323.687.687 0 00.155-.425c0-.148-.04-.302-.12-.463a3.324 3.324 0 00-.312-.504l-.376-.511c-.246-.337-.392-.656-.44-.957a1.065 1.065 0 01.225-.841 1.22 1.22 0 01.61-.441c.244-.077.5-.086.77-.026.272.059.532.183.782.373.251.192.439.407.563.647.123.24.18.484.17.733a1.247 1.247 0 01-.235.69l-.358-.273zm6.718 9.471l-.321.268-1.355-1.628.321-.267 1.355 1.627zm10.044 21.558c-.506.158-.975.205-1.406.142a2.19 2.19 0 01-1.101-.474 2.049 2.049 0 01-.645-.992 2.06 2.06 0 01-.034-1.184c.107-.38.32-.717.637-1.014.319-.296.731-.523 1.238-.68.506-.159.974-.207 1.403-.144.431.063.798.221 1.101.474.304.252.52.582.647.99.128.41.138.805.031 1.184a2.17 2.17 0 01-.636 1.016c-.317.296-.729.524-1.235.682zm-.135-.432c.435-.136.785-.325 1.05-.567.266-.243.442-.516.528-.819a1.61 1.61 0 00-.02-.933 1.605 1.605 0 00-.514-.777 1.768 1.768 0 00-.898-.376c-.356-.05-.752-.005-1.188.13-.435.137-.785.326-1.05.568a1.771 1.771 0 00-.528.819c-.086.302-.079.614.02.933.1.32.271.58.514.78.244.201.543.327.899.376.357.048.753.003 1.187-.134zm3.703 11.349l.039.463-3.358.286a1.785 1.785 0 01-.947-.164 1.734 1.734 0 01-.699-.621 2.077 2.077 0 01-.318-.984c-.033-.38.017-.72.149-1.023a1.74 1.74 0 01.584-.73c.258-.185.559-.293.904-.322l3.358-.286.04.464-3.327.282a1.433 1.433 0 00-.705.243c-.2.138-.35.321-.452.55a1.58 1.58 0 00-.116.785c.025.294.108.546.247.755.139.21.319.365.538.466.222.102.467.142.736.12l3.327-.284zm-5.793 7.411l5.057.588-.189 1.632c-.042.359-.142.65-.3.876a1.286 1.286 0 01-.599.483 1.622 1.622 0 01-.804.095 1.609 1.609 0 01-.759-.276 1.287 1.287 0 01-.465-.605c-.099-.255-.128-.56-.086-.916l.161-1.39.422.05-.16 1.377a1.48 1.48 0 00.055.672.872.872 0 00.327.436c.151.106.337.172.558.197.22.026.418.005.593-.063a.902.902 0 00.431-.35c.111-.165.181-.38.212-.647l.135-1.158-4.642-.539.053-.462zm2.023 2.495l-2.426.98.062-.534 2.425-.967-.061.521zm-5.583 10.385l4.739 1.86-.601 1.529c-.132.336-.306.592-.524.766a1.35 1.35 0 01-.724.306c-.266.03-.537-.01-.813-.119a1.739 1.739 0 01-.681-.464 1.376 1.376 0 01-.325-.715c-.04-.276.006-.581.138-.916l.472-1.203.388.153-.467 1.191c-.098.249-.132.473-.104.672a.96.96 0 00.241.517 1.3 1.3 0 00.505.34c.206.08.407.112.601.094a.942.942 0 00.526-.218c.157-.127.285-.317.383-.568l.426-1.085-4.35-1.708.17-.432zm-4.425 8.287l4.325 2.685-.867 1.396c-.191.307-.405.528-.644.665a1.29 1.29 0 01-.748.182c-.26-.015-.516-.1-.768-.257a1.607 1.607 0 01-.569-.573 1.288 1.288 0 01-.164-.745c.02-.273.124-.561.313-.866l.738-1.189.361.225-.732 1.178c-.14.225-.219.436-.237.631a.866.866 0 00.111.534c.091.16.232.3.42.416.189.117.377.182.564.195a.901.901 0 00.539-.133c.17-.101.326-.266.468-.494l.615-.99-3.971-2.466.246-.394zm.767 3.118l-2.612-.147.283-.456 2.606.157-.277.446zm-8.426 9.85c-.385-.364-.656-.749-.812-1.156a2.193 2.193 0 01-.126-1.192c.07-.387.253-.736.548-1.048a2.059 2.059 0 011.016-.61 2.2 2.2 0 011.196.058c.414.134.814.382 1.2.746.385.364.656.749.812 1.153.156.407.198.804.126 1.192a2.04 2.04 0 01-.546 1.05 2.035 2.035 0 01-1.016.606 2.168 2.168 0 01-1.198-.056c-.414-.131-.814-.379-1.2-.743zm.31-.329c.332.313.669.525 1.01.637.341.114.666.133.972.06.306-.073.574-.232.804-.475a1.6 1.6 0 00.426-.828c.055-.31.018-.633-.113-.968-.131-.334-.364-.658-.696-.971-.332-.313-.668-.526-1.009-.638a1.771 1.771 0 00-.972-.06 1.603 1.603 0 00-.804.476c-.23.244-.372.52-.428.83-.056.311-.019.634.113.968.132.335.365.658.698.969zm-5.554 7.17l-.376.272-2.15-2.977c-.192-.27-.305-.529-.34-.778a1.163 1.163 0 01.105-.687 1.51 1.51 0 01.483-.55c.213-.154.433-.252.658-.294.225-.042.438-.026.639.048a1.1 1.1 0 01.508.402l-.37.268a.696.696 0 00-.332-.255.806.806 0 00-.421-.027c-.15.029-.297.095-.438.197a.95.95 0 00-.318.37.783.783 0 00-.057.473c.03.175.117.362.26.561l2.15 2.977zm-8.447-1.25l2.275 4.554-2.641 1.32-.187-.374 2.226-1.112-.857-1.714-2.086 1.042-.186-.374 2.085-1.042-.858-1.719-2.27 1.135-.187-.374 2.686-1.342zm-11.82 7.72l.45-.129c.08.157.186.294.314.411a1.501 1.501 0 00.948.402c.183.012.37-.01.563-.066a1.61 1.61 0 00.777-.484c.207-.234.342-.528.405-.885.062-.354.028-.756-.101-1.207-.13-.454-.316-.814-.556-1.081a1.767 1.767 0 00-.813-.532 1.617 1.617 0 00-.914.004 1.592 1.592 0 00-.886.616c-.1.144-.172.301-.217.469a1.477 1.477 0 00-.048.518l-.45.129a2.042 2.042 0 01.045-.693 1.944 1.944 0 01.75-1.131c.196-.144.424-.254.685-.329.41-.118.805-.12 1.183-.006.378.115.712.335 1.001.659.288.324.506.742.652 1.253.147.511.185.981.113 1.408-.074.428-.24.791-.5 1.088a2.046 2.046 0 01-1.005.625 2.143 2.143 0 01-.754.085 1.954 1.954 0 01-1.237-.561 2.018 2.018 0 01-.405-.563zm-6.354 1.757l.037.416-3.677.327-.037-.416 1.607-.143-.414-4.654.463-.042.414 4.655 1.607-.143zm-13.515-1.383a.925.925 0 00.309.709c.205.188.475.298.81.33.236.023.447.003.635-.06.186-.064.337-.163.453-.296a.822.822 0 00.198-.471.694.694 0 00-.053-.359.848.848 0 00-.207-.283 1.738 1.738 0 00-.31-.214 2.993 2.993 0 00-.35-.164l-.52-.205a3.762 3.762 0 01-.468-.218 1.942 1.942 0 01-.418-.305 1.114 1.114 0 01-.358-.969c.026-.27.12-.507.28-.709a1.45 1.45 0 01.654-.456c.275-.1.595-.133.96-.097.346.033.64.119.883.257.242.14.427.319.552.536.126.217.185.46.177.729l-.475-.046a.89.89 0 00-.149-.527 1.093 1.093 0 00-.42-.36 1.717 1.717 0 00-.608-.166 1.694 1.694 0 00-.685.061c-.206.066-.373.17-.5.311a.878.878 0 00-.222.518.69.69 0 00.092.444c.078.125.193.235.345.33.15.095.328.182.531.264l.59.237c.385.157.678.351.877.581.2.231.283.509.252.834a1.219 1.219 0 01-.288.696c-.166.194-.38.337-.64.428a1.98 1.98 0 01-.86.094 1.925 1.925 0 01-.82-.254 1.455 1.455 0 01-.53-.533 1.247 1.247 0 01-.164-.71l.447.043zm-10.717-4.57l.133-.396 2.007.677-.134.395-2.006-.676zM22.02 99.453c.319-.425.671-.737 1.058-.938.386-.2.776-.286 1.17-.26.392.027.76.17 1.103.427.344.257.584.571.72.941.135.37.16.769.077 1.195-.085.426-.288.852-.606 1.276-.318.424-.67.737-1.054.937a2.17 2.17 0 01-1.17.26 2.043 2.043 0 01-1.105-.425 2.03 2.03 0 01-.716-.941 2.175 2.175 0 01-.08-1.197c.084-.426.285-.851.603-1.275zm.362.271c-.273.365-.446.723-.52 1.074-.073.353-.056.677.051.973a1.6 1.6 0 00.563.745c.266.2.557.31.87.33.315.02.631-.053.95-.221.316-.168.612-.435.886-.801.274-.365.447-.722.52-1.074a1.772 1.772 0 00-.05-.973 1.603 1.603 0 00-.563-.745 1.603 1.603 0 00-.873-.332 1.748 1.748 0 00-.949.221c-.317.17-.613.438-.885.803zm-9.691-7.104l-.302-.354 2.558-2.194c.263-.226.551-.366.864-.42a1.74 1.74 0 01.93.095c.307.117.585.321.834.612.248.29.407.595.476.918A1.728 1.728 0 0117.459 93l-2.558 2.194-.303-.352 2.534-2.174c.205-.176.349-.379.43-.609.082-.229.097-.465.046-.71a1.581 1.581 0 00-.365-.705 1.582 1.582 0 00-.641-.469 1.28 1.28 0 00-.71-.063c-.24.047-.462.158-.667.333l-2.534 2.174zm.493-9.198l-4.439 2.492-.804-1.433c-.177-.315-.268-.61-.272-.885-.006-.276.06-.523.202-.743.138-.22.337-.403.596-.548a1.61 1.61 0 01.776-.222c.258-.004.502.068.731.216.23.149.432.38.608.691l.685 1.22-.371.209-.679-1.21a1.473 1.473 0 00-.438-.512.87.87 0 00-.521-.16 1.195 1.195 0 00-.568.166 1.225 1.225 0 00-.442.4.9.9 0 00-.144.537c.007.198.076.413.207.648l.57 1.016 4.076-2.287.227.405zm-3.101-.833l1.39-2.217.262.469-1.396 2.205-.256-.457zM8.567 71.107L3.644 72.4l-.418-1.59c-.092-.349-.101-.658-.028-.928a1.35 1.35 0 01.404-.674c.197-.18.44-.308.726-.383a1.73 1.73 0 01.824-.027c.26.059.488.187.684.386.195.199.338.472.43.82l.328 1.25-.404.106-.325-1.238c-.068-.258-.173-.46-.313-.604a.962.962 0 00-.5-.275 1.301 1.301 0 00-.607.024 1.3 1.3 0 00-.541.278.943.943 0 00-.297.487c-.051.195-.043.423.026.684l.296 1.128 4.52-1.188.118.45zm-1.312-9.35l-5.077.373-.12-1.64c-.027-.36.016-.665.13-.916a1.28 1.28 0 01.497-.587c.219-.141.476-.222.772-.244a1.61 1.61 0 01.797.128c.236.106.426.275.57.507.146.232.231.526.258.883l.102 1.396-.424.031-.101-1.383a1.473 1.473 0 00-.18-.65.87.87 0 00-.404-.367 1.196 1.196 0 00-.584-.089 1.225 1.225 0 00-.57.174.9.9 0 00-.358.425 1.438 1.438 0 00-.088.675l.085 1.162 4.661-.342.034.464zM4.8 59.687L7 58.268l.04.535-2.2 1.405-.039-.523z" fill="#fff"/></svg>