<svg width="606" height="339" viewBox="0 0 606 339" fill="none" xmlns="http://www.w3.org/2000/svg">
    <path d="M602.412 24.5552C608.13 36.3896 605.388 51.7401 595.293 69.4718C585.207 87.187 567.843 107.165 544.552 128.159C497.975 170.143 427.784 216.115 345.019 256.109C262.253 296.104 182.618 322.531 120.781 332.935C89.8589 338.137 63.4165 339.328 43.2693 336.222C23.1035 333.113 9.37241 325.723 3.65375 313.889C-2.06491 302.054 0.677362 286.704 10.7726 268.972C20.8585 251.257 38.2228 231.28 61.5138 210.285C108.091 168.301 178.281 122.329 261.047 82.3346C343.812 42.3405 423.447 15.9134 485.284 5.50936C516.206 0.306756 542.649 -0.884124 562.796 2.22182C582.962 5.33064 596.693 12.7208 602.412 24.5552Z"
          stroke="#9C9C9C"/>
</svg>
