<svg width="23" height="23" viewBox="0 0 23 23" fill="none" xmlns="http://www.w3.org/2000/svg">
<path d="M21.7312 0H1.26883C0.568292 0 0 0.568292 0 1.26883V21.7312C0 22.4327 0.568292 23 1.26883 23H12.2839V14.0933H9.28529V10.6231H12.2839V8.05958C12.2839 5.08971 14.099 3.47396 16.7488 3.47396C18.0186 3.47396 19.1101 3.56692 19.4283 3.60908V6.71408H17.5873C16.1498 6.71408 15.87 7.40504 15.87 8.41129V10.626H19.3047L18.859 14.1047H15.87V23H21.7302C22.4327 23 23 22.4327 23 21.7312V1.26883C23 0.568292 22.4327 0 21.7312 0Z" fill="black"/>
</svg>
