<svg width="23" height="23" viewBox="0 0 23 23" fill="none" xmlns="http://www.w3.org/2000/svg">
<g clip-path="url(#clip0_108_731)">
<path fill-rule="evenodd" clip-rule="evenodd" d="M20.19 0C21.7409 0 23 1.25916 23 2.81004V20.19C23 21.7408 21.7408 23 20.19 23H2.81004C1.25916 23 0 21.7408 0 20.19V2.81004C0 1.25916 1.25912 0 2.81004 0H20.19V0ZM11.5 3.63867C9.365 3.63867 9.09726 3.6477 8.2588 3.68597C7.42204 3.72416 6.85059 3.85704 6.35052 4.05141C5.83355 4.25231 5.39516 4.52112 4.95812 4.95812C4.52107 5.39516 4.25226 5.8336 4.05137 6.35052C3.85704 6.85059 3.72416 7.42204 3.68593 8.2588C3.6477 9.09726 3.63867 9.365 3.63867 11.5C3.63867 13.635 3.6477 13.9027 3.68593 14.7412C3.72416 15.578 3.85704 16.1494 4.05137 16.6495C4.25226 17.1664 4.52107 17.6048 4.95812 18.0419C5.39516 18.4789 5.83355 18.7477 6.35052 18.9486C6.85059 19.143 7.42204 19.2758 8.2588 19.314C9.09726 19.3523 9.365 19.3613 11.5 19.3613C13.635 19.3613 13.9027 19.3523 14.7412 19.314C15.578 19.2758 16.1494 19.143 16.6495 18.9486C17.1664 18.7477 17.6048 18.4789 18.0419 18.0419C18.4789 17.6048 18.7477 17.1664 18.9486 16.6495C19.143 16.1494 19.2758 15.578 19.314 14.7412C19.3523 13.9027 19.3613 13.635 19.3613 11.5C19.3613 9.365 19.3523 9.09726 19.314 8.2588C19.2758 7.42204 19.143 6.85059 18.9486 6.35052C18.7477 5.8336 18.4789 5.39516 18.0419 4.95812C17.6048 4.52112 17.1664 4.25231 16.6495 4.05141C16.1494 3.85704 15.578 3.72416 14.7412 3.68597C13.9027 3.6477 13.635 3.63867 11.5 3.63867ZM11.5 5.05515C13.5991 5.05515 13.8477 5.06314 14.6767 5.10097C15.4431 5.13596 15.8594 5.26404 16.1364 5.37162C16.5034 5.51425 16.7652 5.68464 17.0403 5.9597C17.3154 6.2348 17.4858 6.49669 17.6284 6.86361C17.736 7.14065 17.8641 7.55689 17.899 8.32335C17.9369 9.15229 17.9449 9.40094 17.9449 11.5C17.9449 13.5991 17.9369 13.8477 17.899 14.6767C17.8641 15.4431 17.736 15.8594 17.6284 16.1364C17.4858 16.5034 17.3154 16.7652 17.0403 17.0403C16.7652 17.3154 16.5034 17.4858 16.1364 17.6284C15.8594 17.736 15.4431 17.8641 14.6767 17.899C13.8478 17.9369 13.5992 17.9449 11.5 17.9449C9.4008 17.9449 9.1522 17.9369 8.32335 17.899C7.55689 17.8641 7.14065 17.736 6.86361 17.6284C6.49665 17.4858 6.2348 17.3154 5.9597 17.0403C5.68459 16.7652 5.51421 16.5034 5.37162 16.1364C5.26399 15.8594 5.13592 15.4431 5.10092 14.6767C5.0631 13.8477 5.0551 13.5991 5.0551 11.5C5.0551 9.40094 5.0631 9.15229 5.10092 8.32335C5.13592 7.55689 5.26399 7.14065 5.37162 6.86361C5.51421 6.49669 5.68459 6.2348 5.9597 5.9597C6.2348 5.68464 6.49665 5.51425 6.86361 5.37162C7.14065 5.26404 7.55689 5.13596 8.32335 5.10097C9.15229 5.06314 9.40094 5.05515 11.5 5.05515ZM11.5 7.4631C9.27048 7.4631 7.4631 9.27048 7.4631 11.5C7.4631 13.7295 9.27048 15.5369 11.5 15.5369C13.7295 15.5369 15.5369 13.7295 15.5369 11.5C15.5369 9.27048 13.7295 7.4631 11.5 7.4631ZM11.5 14.1204C10.0528 14.1204 8.87957 12.9472 8.87957 11.5C8.87957 10.0528 10.0528 8.87957 11.5 8.87957C12.9472 8.87957 14.1204 10.0528 14.1204 11.5C14.1204 12.9472 12.9472 14.1204 11.5 14.1204ZM16.6398 7.30362C16.6398 7.82463 16.2174 8.24694 15.6964 8.24694C15.1754 8.24694 14.7531 7.82463 14.7531 7.30362C14.7531 6.78262 15.1754 6.36026 15.6964 6.36026C16.2174 6.36026 16.6398 6.78262 16.6398 7.30362Z" fill="black"/>
</g>
<defs>
<clipPath id="clip0_108_731">
<rect width="23" height="23" fill="white"/>
</clipPath>
</defs>
</svg>
