<svg width="23" height="23" viewBox="0 0 23 23" fill="none" xmlns="http://www.w3.org/2000/svg">
<path d="M12.2808 10.3664V10.3311C12.2734 10.343 12.2656 10.355 12.2578 10.3664H12.2808Z" fill="black"/>
<path d="M21.1506 0H1.68711C0.755527 0 0 0.737505 0 1.64645V21.3377C0 22.2462 0.755527 22.9837 1.68711 22.9837H21.1506C22.0836 22.9837 22.8391 22.2458 22.8391 21.3377V1.64645C22.8391 0.737043 22.0831 0 21.1506 0ZM6.92266 19.2403H3.47311V8.86207H6.92266V19.2403ZM5.19812 7.44436H5.17501C4.01792 7.44436 3.26933 6.64725 3.26933 5.65143C3.26933 4.63343 4.04103 3.8585 5.22076 3.8585C6.40095 3.8585 7.1269 4.63343 7.15001 5.65143C7.15001 6.64725 6.40049 7.44436 5.19812 7.44436ZM19.3618 19.2403H15.9123V13.6868C15.9123 12.2922 15.4132 11.3403 14.1651 11.3403C13.2122 11.3403 12.6448 11.9821 12.3948 12.6023C12.3038 12.8236 12.2816 13.1332 12.2816 13.4438V19.2398H8.83204C8.83204 19.2398 8.87732 9.83432 8.83204 8.86161H12.2816V10.3306C12.74 9.62361 13.5597 8.6167 15.391 8.6167C17.6604 8.6167 19.3623 10.1005 19.3623 13.2885V19.2403H19.3618Z" fill="black"/>
</svg>
