<svg width="38" height="30" viewBox="0 0 38 30" fill="none" xmlns="http://www.w3.org/2000/svg">
<path fill-rule="evenodd" clip-rule="evenodd" d="M12.2939 30C26.4447 30 34.1848 18.4565 34.1848 8.4473C34.1848 8.1187 34.1848 7.79257 34.1623 7.46767C35.6679 6.39695 36.9673 5.06755 38.0005 3.54641C36.598 4.1593 35.1073 4.56124 33.5829 4.73845C35.1879 3.79143 36.3898 2.30361 36.9655 0.548023C35.4542 1.43043 33.8023 2.05319 32.0792 2.38734C29.1654 -0.662329 24.2922 -0.810086 21.1928 2.05866C19.1959 3.90839 18.3465 6.66631 18.9671 9.29692C12.7814 8.99048 7.01758 6.11439 3.11003 1.38299C1.06813 4.84431 2.11252 9.27066 5.49319 11.4933C4.2688 11.4582 3.07066 11.1337 2.00002 10.5466V10.6428C2.00189 14.2481 4.5838 17.3525 8.1726 18.0669C7.04008 18.3715 5.85132 18.4156 4.70005 18.196C5.70694 21.2825 8.59635 23.3966 11.887 23.4576C9.16261 25.5657 5.79694 26.7105 2.3319 26.7068C1.72064 26.705 1.10938 26.6698 0.5 26.5979C4.01942 28.8205 8.1126 30 12.2939 29.9945" fill="white"/>
</svg>
