<svg width="30" height="30" viewBox="0 0 30 30" fill="none" xmlns="http://www.w3.org/2000/svg">
<path fill-rule="evenodd" clip-rule="evenodd" d="M29.7323 12.0059H15.317C15.317 13.505 15.3169 16.5031 15.3078 18.0022H23.6611C23.341 19.5014 22.2061 21.6006 20.6025 22.6575C20.6009 22.656 20.5994 22.6663 20.5963 22.6648C18.4644 24.0725 15.6508 24.392 13.5617 23.9722C10.2872 23.3216 7.69572 20.9467 6.64352 17.9304C6.64964 17.9259 6.65426 17.8844 6.65885 17.8814C6.00027 16.0104 6.00027 13.505 6.65885 12.0059H6.65732C7.50582 9.25044 10.1754 6.73647 13.4545 6.04836C16.0919 5.48917 19.0678 6.0945 21.2565 8.14235C21.5475 7.85752 25.2845 4.20872 25.5648 3.91188C18.0876 -2.85981 6.11513 -0.477721 1.63521 8.26686H1.63368C1.63368 8.26686 1.63523 8.26722 1.62604 8.28371C-0.590181 12.5788 -0.498288 17.6398 1.64135 21.7295C1.63522 21.734 1.63063 21.7367 1.62604 21.7412C3.56503 25.5041 7.09383 28.3899 11.3455 29.4888C15.8622 30.6731 21.6103 29.8637 25.4607 26.3811C25.4622 26.3826 25.4638 26.384 25.4653 26.3855C28.7276 23.4472 30.7585 18.4418 29.7323 12.0059Z" fill="white"/>
</svg>
