<svg width="119" height="586" viewBox="0 0 119 586" fill="none" xmlns="http://www.w3.org/2000/svg">
<path d="M91.1927 567.33C93.7322 567.33 95.8908 566.441 97.6684 564.663C99.446 562.885 100.335 560.726 100.335 558.186L100.335 536.011C100.335 533.471 101.249 531.286 103.077 529.457C104.906 527.629 107.09 526.714 109.629 526.714L109.782 526.714C112.372 526.714 114.531 527.629 116.257 529.457C118.086 531.286 119 533.471 119 536.011L119 558.186C119 565.857 116.283 572.41 110.848 577.846C105.414 583.282 98.8619 586 91.1927 586L9.21831 586C6.67883 586 4.49488 585.086 2.66645 583.257C0.888818 581.428 -2.94232e-07 579.269 -4.03043e-07 576.779L-4.13036e-07 576.551C-5.21846e-07 574.062 0.888817 571.902 2.66645 570.074C4.49488 568.245 6.67883 567.33 9.21831 567.33L91.1927 567.33Z" fill="#00FFCC"/>
<path d="M109.782 499.662C112.372 499.662 114.531 500.577 116.257 502.405C118.086 504.234 119 506.393 119 508.883L119 509.111C119 511.601 118.086 513.76 116.257 515.589C114.531 517.417 112.372 518.332 109.782 518.332L67.8803 518.332C57.8239 518.332 49.1897 514.75 41.9776 507.587C34.8163 500.424 31.2356 491.788 31.2356 481.678C31.2356 469.587 35.248 460.468 43.2727 454.321C35.248 448.225 31.2356 439.132 31.2356 427.041C31.2356 416.931 34.8163 408.295 41.9776 401.132C49.1897 393.969 57.8239 390.387 67.8803 390.387L109.782 390.387C112.321 390.387 114.48 391.276 116.257 393.054C118.086 394.883 119 397.068 119 399.608L119 399.76C119 402.351 118.086 404.51 116.257 406.237C114.531 408.066 112.372 408.981 109.782 408.981L67.8803 408.981C62.9029 408.981 58.662 410.733 55.1575 414.239C51.653 417.744 49.9008 422.011 49.9008 427.041C49.9008 432.019 51.653 436.261 55.1575 439.767C58.662 443.272 62.9029 445.025 67.8803 445.025L109.782 445.025C112.372 445.025 114.531 445.939 116.257 447.768C118.086 449.495 119 451.654 119 454.245L119 454.398C119 456.938 118.086 459.122 116.257 460.951C114.531 462.78 112.372 463.694 109.782 463.694L67.8803 463.694C62.9029 463.694 58.662 465.447 55.1575 468.952C51.653 472.458 49.9008 476.7 49.9008 481.678C49.9008 486.657 51.653 490.899 55.1575 494.404C58.662 497.909 62.9029 499.662 67.8803 499.662L109.782 499.662Z" fill="#00FFCC"/>
<path d="M82.3553 309.765C87.3327 309.765 91.5736 308.012 95.0781 304.507C98.5826 301.001 100.335 296.759 100.335 291.781C100.335 286.802 98.5826 282.56 95.0781 279.055C91.5736 275.55 87.3327 273.797 82.3553 273.797L40.5301 273.797C37.9906 273.797 35.8066 272.882 33.9782 271.054C32.1498 269.225 31.2356 267.04 31.2356 264.5L31.2356 264.348C31.2356 261.757 32.1498 259.598 33.9782 257.87C35.8066 256.042 37.9906 255.127 40.5301 255.127L82.3553 255.127C87.3327 255.127 91.5736 253.375 95.0781 249.869C98.5826 246.364 100.335 242.122 100.335 237.143C100.335 232.114 98.5826 227.847 95.0781 224.341C91.5736 220.836 87.3327 219.083 82.3553 219.083L40.5301 219.083C37.9906 219.083 35.8066 218.169 33.9782 216.34C32.1498 214.613 31.2356 212.454 31.2356 209.863L31.2356 209.71C31.2356 207.17 32.1498 204.986 33.9782 203.157C35.8066 201.379 37.9906 200.49 40.5301 200.49L82.3553 200.49C92.4624 200.49 101.097 204.071 108.258 211.234C115.419 218.397 119 227.034 119 237.143C119 249.234 114.988 258.328 106.963 264.424C114.988 270.571 119 279.69 119 291.781C119 301.89 115.419 310.527 108.258 317.69C101.097 324.853 92.4624 328.434 82.3553 328.434L40.5301 328.434C37.9906 328.434 35.8067 327.52 33.9782 325.691C32.1498 323.862 31.2356 321.703 31.2356 319.214L31.2356 318.985C31.2356 316.496 32.1498 314.337 33.9782 312.508C35.8067 310.679 37.9906 309.765 40.5301 309.765L82.3553 309.765Z" fill="#00FFCC"/>
<path d="M50.0531 143.566C50.0531 150.577 52.5164 156.546 57.443 161.474C62.3696 166.351 68.3374 168.789 75.3463 168.789L75.8796 168.789L56.7574 126.192C52.2879 129.951 50.0531 135.743 50.0531 143.566ZM56.8335 103.712C58.1033 103.102 59.3984 102.798 60.7189 102.798C61.7855 102.798 62.8521 103.001 63.9187 103.407C66.3058 104.271 68.0326 105.897 69.0992 108.284C72.299 115.397 76.5145 124.744 81.7458 136.327C88.2469 150.704 92.0815 159.137 93.2497 161.626C98.1255 157.765 100.563 151.745 100.563 143.566C100.563 138.13 98.9635 133.203 95.7638 128.783C92.6148 124.465 88.5516 121.442 83.5743 119.715C79.4095 118.241 77.3271 115.295 77.3271 110.875C77.3271 107.725 78.6477 105.211 81.2887 103.331C82.914 102.163 84.6154 101.578 86.3931 101.578C87.4597 101.578 88.5516 101.782 89.669 102.188C98.354 105.185 105.363 110.443 110.696 117.962C116.232 125.582 119 134.117 119 143.566C119 155.657 114.708 165.995 106.125 174.581C97.5414 183.166 87.2057 187.459 75.1178 187.459C63.0299 187.459 52.6942 183.166 44.1107 174.581C35.5273 165.995 31.2356 155.657 31.2356 143.566C31.2356 134.828 33.6227 126.852 38.3969 119.638C43.0696 112.475 49.2151 107.167 56.8335 103.712Z" fill="#00FFCC"/>
<path d="M50.0531 43.8928C50.0531 50.9035 52.5164 56.8727 57.443 61.8005C62.3696 66.6775 68.3374 69.116 75.3463 69.116C82.3045 69.116 88.2469 66.6775 93.1735 61.8005C98.1001 56.8727 100.563 50.9035 100.563 43.8928C100.563 36.933 98.1001 30.9891 93.1735 26.0613C88.2469 21.1336 82.3045 18.6697 75.3463 18.6697C68.3374 18.6697 62.3696 21.1336 57.443 26.0613C52.5164 30.9891 50.0531 36.933 50.0531 43.8928ZM-2.21907e-05 78.3365C-2.22995e-05 75.8472 0.888795 73.6882 2.66643 71.8593C4.49486 70.0304 6.67881 69.116 9.21829 69.116L38.854 69.116C33.7751 63.3754 31.2356 54.9677 31.2356 43.8928C31.2356 31.802 35.5273 21.4638 44.1107 12.8783C52.6942 4.29272 63.0299 -2.75512e-06 75.1178 -3.2835e-06C87.2057 -3.81188e-06 97.5414 4.29272 106.125 12.8783C114.708 21.4638 119 31.802 119 43.8928C119 55.9837 114.734 66.2965 106.201 74.8312C97.7192 83.4167 87.4343 87.7349 75.3463 87.7857L9.21829 87.7857C6.67881 87.7857 4.49486 86.8712 2.66643 85.0424C0.888796 83.2135 -2.20719e-05 81.0544 -2.21807e-05 78.5652L-2.21907e-05 78.3365Z" fill="#00FFCC"/>
</svg>
