<svg width="65" height="150" viewBox="0 0 65 150" fill="none" xmlns="http://www.w3.org/2000/svg">
<g clip-path="url(#clip0_108_278)">
<path fill-rule="evenodd" clip-rule="evenodd" d="M35.62 131.98L35.62 139.754C35.62 140.635 35.295 141.387 34.671 142.009C34.3715 142.312 34.0129 142.552 33.6172 142.712C33.2215 142.873 32.7971 142.951 32.37 142.942L3.31501 142.942C2.41801 142.942 1.63801 143.266 1.00101 143.9C0.697218 144.195 0.456484 144.547 0.293369 144.937C0.130253 145.327 0.0481451 145.746 0.0520101 146.168L0.0520101 146.233C0.0520102 147.114 0.36401 147.878 1.00101 148.513C1.65101 149.161 2.41801 149.472 3.31501 149.472L32.37 149.472C35.1 149.472 37.414 148.526 39.338 146.621C40.2687 145.737 41.0064 144.67 41.5052 143.489C42.0039 142.307 42.2531 141.036 42.237 139.754L42.237 131.98C42.2401 131.554 42.1551 131.131 41.9873 130.739C41.8196 130.347 41.5727 129.993 41.262 129.7C40.651 129.052 39.884 128.741 38.961 128.741L38.909 128.741C37.999 128.741 37.232 129.052 36.582 129.7C36.272 129.996 36.0266 130.352 35.8611 130.747C35.6956 131.141 35.6135 131.566 35.62 131.993L35.62 131.98Z" fill="white"/>
<path fill-rule="evenodd" clip-rule="evenodd" d="M18.213 54.6041L18.213 54.643C18.213 55.3426 18.473 55.9386 18.967 56.3921C19.2005 56.6296 19.4798 56.8174 19.7882 56.9444C20.0965 57.0713 20.4274 57.1347 20.761 57.1306L32.201 57.1306C33.566 57.1306 34.723 57.5971 35.685 58.5558C36.1468 58.9999 36.512 59.5338 36.758 60.1245C37.004 60.7151 37.1255 61.3499 37.115 61.9893C37.1271 62.629 37.0063 63.2642 36.7602 63.8551C36.5141 64.446 36.148 64.9797 35.685 65.4228C35.2306 65.8812 34.6874 66.2428 34.0885 66.4855C33.4896 66.7283 32.8474 66.8472 32.201 66.8351L20.761 66.8351C20.059 66.8351 19.461 67.0812 18.967 67.5736C18.46 68.04 18.213 68.6101 18.213 69.3098L18.213 69.3616C18.213 70.0353 18.473 70.6313 18.967 71.1237C19.2005 71.3611 19.4798 71.549 19.7882 71.6759C20.0965 71.8028 20.4274 71.8662 20.761 71.8622L32.201 71.8622C33.566 71.8622 34.723 72.3286 35.685 73.2744C36.1464 73.716 36.5116 74.2477 36.7576 74.8362C37.0036 75.4247 37.1253 76.0575 37.115 76.695C37.1271 77.3346 37.0063 77.9699 36.7602 78.5607C36.5141 79.1516 36.1481 79.6854 35.685 80.1284C35.2317 80.5892 34.689 80.9532 34.0901 81.1982C33.4911 81.4432 32.8484 81.5642 32.201 81.5537L20.761 81.5537L20.371 81.5666L13.039 81.5148C9.464 81.5148 6.409 82.7716 3.861 85.2722C2.63594 86.4346 1.6652 87.8368 1.00972 89.3909C0.354245 90.9449 0.0281803 92.6173 0.0519965 94.3029C0.0519967 98.5138 1.482 101.688 4.316 103.813C1.469 105.951 0.0519972 109.125 0.0519974 113.349C0.0519975 116.873 1.326 119.892 3.861 122.393C5.05702 123.603 6.48713 124.559 8.06473 125.203C9.64232 125.846 11.3346 126.164 13.039 126.137L38.961 126.137C39.871 126.137 40.651 125.813 41.262 125.178C41.912 124.53 42.237 123.792 42.237 122.924L42.237 122.833C42.237 121.965 41.912 121.214 41.262 120.579C40.651 119.931 39.884 119.62 38.961 119.62L13.039 119.62C11.258 119.62 9.75 119.011 8.502 117.793C7.90158 117.22 7.42651 116.529 7.10661 115.765C6.7867 115 6.62886 114.177 6.643 113.349C6.643 111.613 7.267 110.136 8.502 108.918C9.09524 108.319 9.80465 107.847 10.5869 107.531C11.3692 107.215 12.208 107.061 13.052 107.078L38.961 107.078C39.871 107.078 40.651 106.767 41.262 106.119C41.912 105.484 42.237 104.72 42.237 103.839L42.237 103.787C42.237 102.88 41.912 102.129 41.262 101.533C40.651 100.885 39.884 100.574 38.961 100.574L13.039 100.574C11.258 100.574 9.75 99.9649 8.502 98.734C7.90258 98.1629 7.42803 97.4745 7.10813 96.712C6.78823 95.9494 6.62987 95.1293 6.643 94.3029C6.643 92.5408 7.267 91.0638 8.502 89.8329C9.09634 89.2366 9.80624 88.7671 10.5885 88.453C11.3707 88.139 12.2089 87.9869 13.052 88.006L32.253 87.9801L32.461 87.9801C35.113 87.9153 37.401 86.9436 39.299 85.0778C41.249 83.1603 42.237 79.4158 42.237 76.695C42.237 73.4558 41.132 70.9941 38.935 69.3357C41.145 67.6902 42.237 65.2414 42.237 61.9893C42.237 59.2685 41.249 56.9363 39.299 55.0187C38.3741 54.0828 37.268 53.3441 36.0478 52.8474C34.8276 52.3507 33.5188 52.1064 32.201 52.1294L20.761 52.1294C20.4289 52.1208 20.0984 52.1783 19.7889 52.2987C19.4793 52.419 19.1971 52.5997 18.9585 52.8302C18.72 53.0607 18.53 53.3363 18.3998 53.6409C18.2695 53.9455 18.2016 54.273 18.2 54.6041L18.213 54.6041Z" fill="white"/>
<path fill-rule="evenodd" clip-rule="evenodd" d="M30.602 42.6058C28.847 42.6058 27.339 42.0228 26.104 40.8437C25.5044 40.294 25.0278 39.6245 24.7053 38.8788C24.3827 38.1332 24.2215 37.3282 24.232 36.5162C24.232 34.6375 24.804 33.2382 25.922 32.3313L30.732 42.6058L30.602 42.6058ZM31.109 28.6257C31.109 29.7011 31.629 30.4008 32.669 30.7635C33.8986 31.158 34.9752 31.9231 35.75 32.9532C36.556 34.0156 36.959 35.2076 36.959 36.5162C36.959 38.4986 36.348 39.9497 35.113 40.8826L32.214 34.7671L29.029 28.0038C28.769 27.4208 28.327 27.0321 27.729 26.8377C27.15 26.6243 26.5099 26.6476 25.948 26.9025C24.0555 27.7118 22.4391 29.0507 21.2946 30.7571C20.1502 32.4634 19.5268 34.4639 19.5 36.5162C19.5 39.4444 20.579 41.9321 22.75 44.0051C23.7776 45.0139 24.9967 45.8085 26.3359 46.3424C27.6752 46.8763 29.1078 47.1389 30.55 47.1147C33.592 47.1147 36.192 46.0782 38.35 44.0051C39.3887 43.0541 40.2149 41.8957 40.7749 40.6055C41.3348 39.3152 41.616 37.9219 41.6 36.5162C41.6 34.2359 40.898 32.1758 39.52 30.336C38.2016 28.5382 36.3443 27.2043 34.216 26.5268C33.8701 26.3934 33.4961 26.3484 33.1283 26.396C32.7605 26.4435 32.4104 26.582 32.11 26.7989C31.7982 26.9903 31.5418 27.2595 31.3663 27.5799C31.1907 27.9003 31.1021 28.2608 31.109 28.6257Z" fill="white"/>
<path fill-rule="evenodd" clip-rule="evenodd" d="M34.606 7.2742C35.1889 7.84638 35.6486 8.53097 35.957 9.28615C36.2655 10.0413 36.4162 10.8513 36.4 11.6665C36.4165 12.4836 36.2659 13.2956 35.9575 14.0529C35.6491 14.8102 35.1893 15.4971 34.6061 16.0717C34.0393 16.6515 33.3592 17.1092 32.6079 17.4168C31.8567 17.7243 31.0501 17.875 30.2381 17.8597C28.5351 17.8597 27.066 17.2637 25.87 16.0587C25.2821 15.4863 24.8175 14.8004 24.5046 14.043C24.1917 13.2856 24.037 12.4725 24.0501 11.6535C24.0501 9.9562 24.661 8.49211 25.87 7.2742C27.066 6.06925 28.535 5.46029 30.238 5.46029C31.941 5.46029 33.3971 6.06925 34.606 7.2742ZM22.607 4.03507C21.5901 5.02747 20.7867 6.21594 20.2458 7.52799C19.7049 8.84004 19.4379 10.2482 19.4611 11.6665C19.4611 14.3873 20.085 16.4604 21.3201 17.8597L16.6141 17.8597C15.9901 17.8597 15.4441 18.0799 15.0021 18.5334C14.5731 18.9869 14.3521 19.5181 14.3521 20.1271L14.3521 20.1789C14.3521 20.8008 14.5731 21.332 15.0021 21.7726C15.4571 22.226 15.9901 22.4463 16.6141 22.4463L30.2381 22.4463C33.2021 22.4463 35.711 21.3709 37.7781 19.2719C38.7913 18.2828 39.5916 17.0983 40.1303 15.7907C40.6689 14.4831 40.9346 13.0798 40.9111 11.6665C40.9111 8.68646 39.871 6.14698 37.765 4.03507C36.7876 3.01721 35.6101 2.21113 34.3061 1.66719C33.0021 1.12324 31.5995 0.853118 30.186 0.873676C27.235 0.873676 24.713 1.92316 22.607 4.03507Z" fill="white"/>
<path fill-rule="evenodd" clip-rule="evenodd" d="M58.266 82.2661C58.006 83.3026 57.837 83.9115 57.746 84.0411C57.551 84.4557 57.252 84.663 56.836 84.663C56.55 84.663 56.303 84.5594 56.095 84.3391C55.8924 84.131 55.7802 83.8517 55.783 83.5617L55.783 81.4887C55.783 81.1388 55.666 80.8408 55.419 80.5817C55.198 80.3226 54.899 80.193 54.561 80.193L54.535 80.193C54.3706 80.1932 54.208 80.2279 54.0579 80.2948C53.9078 80.3618 53.7736 80.4596 53.664 80.5817C53.4274 80.8243 53.2966 81.1503 53.3 81.4887L53.3 83.458C53.3 84.4687 53.651 85.3497 54.34 86.0753C54.6569 86.4235 55.0445 86.7007 55.4771 86.8883C55.9096 87.076 56.3773 87.1698 56.849 87.1636C57.85 87.1636 58.617 86.8656 59.176 86.2826C59.566 85.868 59.865 85.246 60.099 84.4039C60.398 83.3155 60.567 82.7195 60.619 82.6159C60.801 82.2013 61.087 82.0069 61.451 82.0069C61.75 82.0069 62.01 82.1106 62.205 82.3179C62.3069 82.4225 62.387 82.5462 62.4405 82.6819C62.4941 82.8175 62.5201 82.9625 62.517 83.1082L62.517 85.9975C62.517 86.3474 62.634 86.6454 62.881 86.9045C62.9918 87.0243 63.1265 87.1196 63.2765 87.1843C63.4266 87.249 63.5885 87.2817 63.752 87.2802L63.765 87.2802C64.116 87.2802 64.415 87.1507 64.636 86.8915C64.883 86.6324 65 86.3474 65 85.9846L65 83.2119C65 82.2013 64.649 81.3202 63.96 80.5947C63.271 79.8691 62.426 79.5063 61.451 79.5063C60.463 79.5063 59.709 79.8043 59.176 80.3874C58.786 80.802 58.5 81.4239 58.266 82.2661Z" fill="white"/>
<path fill-rule="evenodd" clip-rule="evenodd" d="M61.555 70.0098C62.205 70.6576 62.543 71.4609 62.543 72.3808C62.5509 72.8244 62.4673 73.265 62.2974 73.6751C62.1274 74.0851 61.8747 74.4561 61.555 74.7648C61.2456 75.0795 60.8751 75.328 60.466 75.4951C60.0569 75.6622 59.618 75.7444 59.176 75.7366C58.24 75.7366 57.447 75.4126 56.797 74.7648C56.4773 74.4561 56.2246 74.0851 56.0546 73.6751C55.8847 73.265 55.8011 72.8244 55.809 72.3808C55.809 71.4609 56.134 70.6705 56.797 70.0098C57.447 69.3619 58.24 69.0251 59.176 69.0251C59.6189 69.019 60.0584 69.1031 60.4676 69.2725C60.8767 69.4418 61.2467 69.6927 61.555 70.0098ZM53.3 72.3808C53.3 73.9874 53.872 75.3608 55.016 76.501C55.5511 77.0527 56.194 77.4891 56.9051 77.7832C57.6161 78.0774 58.3802 78.2231 59.15 78.2112C60.762 78.2112 62.14 77.6412 63.284 76.501C63.8375 75.9677 64.2754 75.3269 64.5706 74.6182C64.8657 73.9095 65.0119 73.148 65 72.3808C65 70.7742 64.428 69.4008 63.284 68.2606C62.7484 67.7096 62.1054 67.2736 61.3944 66.9794C60.6835 66.6853 59.9197 66.5393 59.15 66.5504C57.538 66.5504 56.16 67.1205 55.016 68.2606C54.4625 68.7939 54.0246 69.4347 53.7294 70.1434C53.4343 70.8521 53.2881 71.6136 53.3 72.3808Z" fill="white"/>
<path fill-rule="evenodd" clip-rule="evenodd" d="M49.4001 61.3547L49.4001 61.3677C49.3945 61.704 49.5204 62.0292 49.7511 62.2747C49.9851 62.5338 50.2711 62.6504 50.6091 62.6504L63.7911 62.6504C64.1291 62.6504 64.4151 62.5208 64.6361 62.2617C64.8831 62.0155 65.0001 61.7175 65.0001 61.3677C65.0001 61.0179 64.8701 60.7199 64.6361 60.4607C64.4151 60.2016 64.1291 60.085 63.7911 60.085L50.6091 60.085C50.2711 60.085 49.9851 60.2146 49.7511 60.4737C49.5235 60.7159 49.3979 61.0359 49.4001 61.3677L49.4001 61.3547Z" fill="white"/>
<path fill-rule="evenodd" clip-rule="evenodd" d="M53.3 48.4109L53.3 48.4368C53.2979 48.7749 53.4286 49.1004 53.664 49.3438C53.7736 49.4659 53.9078 49.5637 54.0579 49.6306C54.208 49.6976 54.3705 49.7323 54.535 49.7325L60.099 49.7325C60.762 49.7325 61.334 49.9916 61.815 50.4839C62.283 50.9763 62.517 51.5853 62.517 52.2979C62.517 53.0105 62.283 53.6194 61.815 54.1118C61.334 54.6041 60.775 54.8503 60.099 54.8503L54.535 54.8503C54.3705 54.8504 54.208 54.8851 54.0579 54.9521C53.9078 55.0191 53.7736 55.1168 53.664 55.239C53.4286 55.4824 53.2979 55.8079 53.3 56.1459L53.3 56.1848C53.3 56.5346 53.43 56.8326 53.664 57.0918C53.7736 57.2139 53.9078 57.3117 54.0579 57.3787C54.208 57.4456 54.3705 57.4803 54.535 57.4805L60.099 57.4805C61.438 57.4805 62.595 56.9622 63.557 55.9646C64.519 54.941 65 53.7231 65 52.2979C65 50.8726 64.519 49.6547 63.57 48.6312C63.1311 48.1457 62.5932 47.7593 61.9924 47.4979C61.3915 47.2365 60.7415 47.106 60.086 47.1153L54.522 47.1153C54.3575 47.1154 54.195 47.1501 54.0449 47.2171C53.8948 47.284 53.7606 47.3818 53.651 47.504C53.5314 47.6224 53.4374 47.7639 53.3748 47.9199C53.3122 48.0759 53.2823 48.243 53.287 48.4109L53.3 48.4109Z" fill="white"/>
<path fill-rule="evenodd" clip-rule="evenodd" d="M53.495 41.8546L53.495 43.3576L50.609 43.3576C50.4486 43.3562 50.2897 43.3877 50.1421 43.4501C49.9946 43.5125 49.8614 43.6045 49.751 43.7203C49.6383 43.8324 49.5492 43.9658 49.4889 44.1126C49.4287 44.2595 49.3984 44.4168 49.4 44.5755L49.4 44.6014C49.3984 44.76 49.4287 44.9174 49.4889 45.0642C49.5492 45.2111 49.6383 45.3444 49.751 45.4565C49.8614 45.5723 49.9946 45.6643 50.1421 45.7267C50.2897 45.7891 50.4486 45.8206 50.609 45.8193L61.867 45.8193C62.725 45.8193 63.466 45.5083 64.077 44.8994C64.688 44.2775 65 43.526 65 42.6579L65 41.8546C65.0013 41.6948 64.9697 41.5365 64.9071 41.3894C64.8445 41.2422 64.7522 41.1095 64.636 40.9995C64.415 40.7533 64.129 40.6367 63.791 40.6367L63.765 40.6367C63.6046 40.6353 63.4457 40.6668 63.2981 40.7292C63.1505 40.7917 63.0174 40.8836 62.907 40.9995C62.7931 41.1107 62.7032 41.2439 62.6429 41.3909C62.5825 41.538 62.5529 41.6958 62.556 41.8546L62.556 42.6579C62.5577 42.7492 62.5411 42.8399 62.5073 42.9247C62.4734 43.0095 62.423 43.0867 62.3588 43.1519C62.2947 43.217 62.2181 43.2688 62.1337 43.3041C62.0492 43.3394 61.9585 43.3576 61.867 43.3576L55.939 43.3576L55.939 41.8546C55.942 41.6958 55.9124 41.538 55.8521 41.3909C55.7917 41.2439 55.7018 41.1107 55.588 40.9995C55.354 40.7533 55.068 40.6367 54.73 40.6367L54.717 40.6367C54.5566 40.6353 54.3977 40.6668 54.2501 40.7292C54.1026 40.7917 53.9694 40.8836 53.859 40.9995C53.7427 41.1095 53.6505 41.2423 53.5878 41.3894C53.5252 41.5365 53.4936 41.6948 53.495 41.8546Z" fill="white"/>
<path fill-rule="evenodd" clip-rule="evenodd" d="M49.7899 35.8433C49.6663 35.96 49.5679 36.1006 49.5008 36.2566C49.4337 36.4126 49.3994 36.5806 49.3999 36.7502C49.3999 37.113 49.5299 37.411 49.7899 37.6572C50.0369 37.9163 50.3359 38.0459 50.6999 38.0459C51.0509 38.0459 51.3629 37.9163 51.6099 37.6572C51.8699 37.411 51.9999 37.113 51.9999 36.7502C51.9999 36.4004 51.8699 36.1024 51.6099 35.8433C51.3629 35.5842 51.0639 35.4546 50.6999 35.4546C50.3359 35.4546 50.0239 35.5842 49.7899 35.8433Z" fill="white"/>
<path fill-rule="evenodd" clip-rule="evenodd" d="M53.2999 36.7373L53.2999 36.7502C53.2999 37.113 53.4299 37.411 53.6639 37.6572C53.7735 37.7794 53.9077 37.8771 54.0578 37.9441C54.2079 38.0111 54.3704 38.0457 54.5349 38.0459L63.7649 38.0459C64.1159 38.0459 64.4149 37.9163 64.6359 37.6572C64.8829 37.411 64.9999 37.113 64.9999 36.7502C64.9999 36.3875 64.8699 36.0895 64.6359 35.8433C64.4019 35.5842 64.1159 35.4676 63.7649 35.4676L54.5349 35.4676C54.3704 35.4677 54.2079 35.5024 54.0578 35.5694C53.9077 35.6363 53.7735 35.7341 53.6639 35.8562C53.5447 35.9722 53.4508 36.1115 53.3882 36.2654C53.3255 36.4192 53.2955 36.5843 53.2999 36.7502L53.2999 36.7373Z" fill="white"/>
<path fill-rule="evenodd" clip-rule="evenodd" d="M61.555 25.9571C62.205 26.6049 62.543 27.4082 62.543 28.3282C62.5509 28.7718 62.4673 29.2123 62.2974 29.6224C62.1274 30.0325 61.8747 30.4034 61.555 30.7122C61.2456 31.0269 60.8751 31.2754 60.466 31.4425C60.0569 31.6095 59.618 31.6917 59.176 31.6839C58.24 31.6839 57.447 31.36 56.797 30.7122C56.4773 30.4034 56.2246 30.0325 56.0546 29.6224C55.8847 29.2123 55.8011 28.7718 55.809 28.3282C55.809 27.4082 56.134 26.6179 56.797 25.9571C57.447 25.3093 58.24 24.9724 59.176 24.9724C59.6189 24.9663 60.0584 25.0505 60.4676 25.2198C60.8767 25.3892 61.2467 25.6401 61.555 25.9571ZM53.3 28.3282C53.3 29.9348 53.872 31.3082 55.016 32.4483C55.5515 32.9994 56.1946 33.4354 56.9055 33.7295C57.6165 34.0236 58.3803 34.1697 59.15 34.1586C60.762 34.1586 62.14 33.5885 63.284 32.4483C63.8375 31.915 64.2754 31.2742 64.5706 30.5655C64.8657 29.8569 65.0119 29.0954 65 28.3282C65 26.7215 64.428 25.3482 63.284 24.208C62.7484 23.6569 62.1054 23.2209 61.3944 22.9268C60.6835 22.6327 59.9197 22.4867 59.15 22.4977C57.538 22.4977 56.16 23.0678 55.016 24.208C54.4625 24.7413 54.0246 25.3821 53.7294 26.0908C53.4343 26.7994 53.2881 27.5609 53.3 28.3282Z" fill="white"/>
<path fill-rule="evenodd" clip-rule="evenodd" d="M54.7299 11.0575C54.2612 11.5448 53.8937 12.1196 53.6483 12.7488C53.4029 13.378 53.2845 14.0493 53.2999 14.7242C53.2999 16.1494 53.7809 17.3673 54.7299 18.3909C55.1688 18.8763 55.7067 19.2627 56.3075 19.5241C56.9084 19.7855 57.5584 19.916 58.2139 19.9068L63.7649 19.9068C64.1159 19.9068 64.4149 19.7772 64.6359 19.5181C64.8713 19.2747 65.002 18.9492 64.9999 18.6111L64.9999 18.5722C65.002 18.2342 64.8713 17.9087 64.6359 17.6653C64.4019 17.4062 64.1159 17.2766 63.7649 17.2766L58.2139 17.2766C57.5509 17.2766 56.9789 17.0304 56.4979 16.5381C56.0299 16.0457 55.7829 15.4368 55.7829 14.7242C55.7829 14.0115 56.0299 13.4026 56.4979 12.9102C56.9789 12.4179 57.5379 12.1717 58.2139 12.1717L63.7649 12.1717C64.1159 12.1717 64.4149 12.0422 64.6359 11.783C64.8745 11.5364 65.0054 11.2057 64.9999 10.8631L64.9999 10.8372C64.9999 10.4744 64.8699 10.1764 64.6359 9.93025C64.4019 9.67112 64.1159 9.54155 63.7649 9.54155L58.2139 9.54155C56.8619 9.54155 55.7049 10.0598 54.7429 11.0575L54.7299 11.0575Z" fill="white"/>
<path fill-rule="evenodd" clip-rule="evenodd" d="M55.783 4.52688C55.7803 4.81684 55.8924 5.09619 56.0951 5.30428C56.1911 5.40768 56.3078 5.48991 56.4377 5.54569C56.5675 5.60147 56.7077 5.62958 56.849 5.62819C57.239 5.62819 57.551 5.42088 57.759 5.00627C57.837 4.87671 58.006 4.2807 58.266 3.23123C58.5 2.38905 58.786 1.76714 59.176 1.35253C59.696 0.76949 60.476 0.47149 61.451 0.47149C62.426 0.47149 63.271 0.834268 63.96 1.55983C64.649 2.2854 65 3.16645 65 4.17706L65 6.96271C65 7.31254 64.8701 7.61053 64.6361 7.86966C64.528 7.99285 64.3938 8.09048 64.2431 8.15548C64.0924 8.22047 63.9291 8.25119 63.765 8.2454L63.752 8.2454C63.4141 8.2454 63.115 8.11583 62.881 7.8567C62.621 7.59757 62.517 7.31253 62.517 6.94975L62.517 4.0734C62.517 3.76245 62.413 3.50332 62.205 3.29601C62.1095 3.19196 61.9929 3.1093 61.8629 3.05346C61.7329 2.99763 61.5926 2.9699 61.451 2.9721C61.087 2.9721 60.801 3.16645 60.606 3.58106C60.4183 4.17161 60.2492 4.7679 60.099 5.36905C59.9429 6.05858 59.6268 6.70203 59.176 7.24776C58.872 7.55291 58.5057 7.78946 58.102 7.94145C57.6983 8.09344 57.2666 8.15734 56.8361 8.1288C55.8741 8.1288 55.042 7.76601 54.34 7.04045C53.651 6.31488 53.3 5.43384 53.3 4.42323L53.3 2.45384C53.3 2.10401 53.43 1.80601 53.664 1.54688C53.911 1.28775 54.197 1.15818 54.535 1.15818L54.5611 1.15818C54.8991 1.15818 55.198 1.28775 55.419 1.54688C55.6557 1.78952 55.7865 2.1155 55.783 2.45384L55.783 4.52688Z" fill="white"/>
</g>
<defs>
<clipPath id="clip0_108_278">
<rect width="149" height="65" fill="white" transform="translate(0 149.472) rotate(-90)"/>
</clipPath>
</defs>
</svg>
