<svg width="149" height="65" viewBox="0 0 149 65" fill="none" xmlns="http://www.w3.org/2000/svg">
<g clip-path="url(#clip0_190_443)">
<path fill-rule="evenodd" clip-rule="evenodd" d="M17.4913 35.62H9.71739C8.83635 35.62 8.08487 35.295 7.46296 34.671C7.15933 34.3715 6.91995 34.0129 6.75952 33.6172C6.5991 33.2215 6.52102 32.7971 6.53009 32.37V3.31501C6.53009 2.41801 6.20617 1.63801 5.5713 1.00101C5.27696 0.697218 4.92426 0.456484 4.53454 0.293369C4.14481 0.130253 3.72617 0.0481453 3.30391 0.0520103H3.23913C2.35809 0.0520103 1.59365 0.36401 0.958783 1.00101C0.310957 1.65101 0 2.41801 0 3.31501V32.37C0 35.1 0.945826 37.414 2.85043 39.338C3.73513 40.2687 4.80149 41.0064 5.98296 41.5052C7.16444 42.0039 8.43569 42.2531 9.71739 42.237H17.4913C17.9177 42.2401 18.3402 42.1551 18.7325 41.9873C19.1248 41.8196 19.4785 41.5727 19.7717 41.262C20.4195 40.651 20.7304 39.884 20.7304 38.961V38.909C20.7304 37.999 20.4195 37.232 19.7717 36.582C19.4759 36.272 19.1196 36.0266 18.725 35.8611C18.3304 35.6956 17.906 35.6135 17.4783 35.62H17.4913Z" fill="#00F5C9"/>
<path fill-rule="evenodd" clip-rule="evenodd" d="M94.8676 18.213H94.8288C94.1291 18.213 93.5331 18.473 93.0796 18.967C92.8422 19.2005 92.6543 19.4798 92.5274 19.7882C92.4005 20.0965 92.3371 20.4274 92.3411 20.761V32.201C92.3411 33.566 91.8747 34.723 90.9159 35.685C90.4719 36.1468 89.9379 36.512 89.3473 36.758C88.7566 37.004 88.1219 37.1255 87.4824 37.115C86.8428 37.1271 86.2075 37.0063 85.6167 36.7602C85.0258 36.5141 84.492 36.1481 84.0489 35.685C83.5905 35.2306 83.229 34.6874 82.9862 34.0885C82.7434 33.4896 82.6245 32.8474 82.6367 32.201V20.761C82.6367 20.059 82.3905 19.461 81.8982 18.967C81.4317 18.46 80.8616 18.213 80.162 18.213H80.1102C79.4364 18.213 78.8404 18.473 78.3481 18.967C78.1106 19.2005 77.9227 19.4798 77.7958 19.7882C77.6689 20.0965 77.6055 20.4274 77.6096 20.761V32.201C77.6096 33.566 77.1431 34.723 76.1973 35.685C75.7557 36.1464 75.2241 36.5116 74.6355 36.7576C74.047 37.0036 73.4142 37.1253 72.7768 37.115C72.1371 37.1271 71.5019 37.0063 70.911 36.7602C70.3201 36.5141 69.7864 36.1481 69.3433 35.685C68.8826 35.2317 68.5186 34.689 68.2736 34.0901C68.0285 33.4911 67.9076 32.8484 67.9181 32.201V20.761L67.9051 20.371L67.9569 13.039C67.9569 9.464 66.7002 6.409 64.1996 3.861C63.0372 2.63594 61.6349 1.6652 60.0809 1.00972C58.5268 0.354247 56.8545 0.0281818 55.1689 0.0519979C50.958 0.0519979 47.7836 1.482 45.6588 4.316C43.5209 1.469 40.3466 0.0519979 36.1228 0.0519979C32.5986 0.0519979 29.5797 1.326 27.0791 3.861C25.8685 5.05702 24.9125 6.48713 24.2689 8.06473C23.6252 9.64232 23.3074 11.3346 23.3347 13.039V38.961C23.3347 39.871 23.6586 40.651 24.2935 41.262C24.9413 41.912 25.6798 42.237 26.5479 42.237H26.6386C27.5067 42.237 28.2582 41.912 28.893 41.262C29.5409 40.651 29.8518 39.884 29.8518 38.961V13.039C29.8518 11.258 30.4608 9.75 31.6787 8.502C32.2518 7.90158 32.9424 7.42651 33.7071 7.10661C34.4719 6.7867 35.2943 6.62886 36.1228 6.643C37.8589 6.643 39.336 7.267 40.5539 8.502C41.1525 9.09524 41.6244 9.80465 41.9407 10.5869C42.257 11.3692 42.4112 12.208 42.3937 13.052V38.961C42.3937 39.871 42.7047 40.651 43.3525 41.262C43.9874 41.912 44.7518 42.237 45.6329 42.237H45.6847C46.5916 42.237 47.3431 41.912 47.9391 41.262C48.5869 40.651 48.8979 39.884 48.8979 38.961V13.039C48.8979 11.258 49.5069 9.75 50.7377 8.502C51.3088 7.90258 51.9973 7.42803 52.7598 7.10813C53.5223 6.78823 54.3425 6.62988 55.1689 6.643C56.9309 6.643 58.408 7.267 59.6389 8.502C60.2351 9.09634 60.7046 9.80624 61.0187 10.5885C61.3328 11.3707 61.4849 12.2089 61.4657 13.052L61.4916 32.253V32.461C61.5564 35.113 62.5282 37.401 64.3939 39.299C66.3115 41.249 70.0559 42.237 72.7768 42.237C76.0159 42.237 78.4776 41.132 80.1361 38.935C81.7815 41.145 84.2303 42.237 87.4824 42.237C90.2033 42.237 92.5355 41.249 94.453 39.299C95.3889 38.3741 96.1277 37.268 96.6244 36.0478C97.121 34.8276 97.3653 33.5188 97.3423 32.201V20.761C97.351 20.4289 97.2934 20.0984 97.1731 19.7889C97.0527 19.4794 96.872 19.1971 96.6415 18.9585C96.4111 18.72 96.1354 18.53 95.8308 18.3998C95.5262 18.2695 95.1988 18.2016 94.8676 18.2V18.213Z" fill="#00F5C9"/>
<path fill-rule="evenodd" clip-rule="evenodd" d="M106.865 30.602C106.865 28.847 107.448 27.339 108.627 26.104C109.177 25.5044 109.847 25.0278 110.592 24.7053C111.338 24.3827 112.143 24.2215 112.955 24.232C114.834 24.232 116.233 24.804 117.14 25.922L106.865 30.732V30.602ZM120.845 31.109C119.77 31.109 119.07 31.629 118.708 32.669C118.313 33.8986 117.548 34.9752 116.518 35.75C115.456 36.556 114.264 36.959 112.955 36.959C110.973 36.959 109.521 36.348 108.589 35.113L114.704 32.214L121.467 29.029C122.05 28.769 122.439 28.327 122.633 27.729C122.847 27.15 122.824 26.5099 122.569 25.948C121.759 24.0555 120.42 22.4391 118.714 21.2946C117.008 20.1502 115.007 19.5268 112.955 19.5C110.027 19.5 107.539 20.579 105.466 22.75C104.457 23.7776 103.663 24.9967 103.129 26.3359C102.595 27.6752 102.332 29.1078 102.357 30.55C102.357 33.592 103.393 36.192 105.466 38.35C106.417 39.3887 107.575 40.2149 108.866 40.7749C110.156 41.3348 111.549 41.616 112.955 41.6C115.235 41.6 117.295 40.898 119.135 39.52C120.933 38.2016 122.267 36.3443 122.944 34.216C123.078 33.8701 123.123 33.4961 123.075 33.1283C123.028 32.7605 122.889 32.4104 122.672 32.11C122.481 31.7982 122.212 31.5418 121.891 31.3663C121.571 31.1907 121.21 31.1021 120.845 31.109Z" fill="#00F5C9"/>
<path fill-rule="evenodd" clip-rule="evenodd" d="M142.198 34.6061C141.626 35.1889 140.941 35.6486 140.186 35.957C139.431 36.2655 138.621 36.4162 137.806 36.4C136.988 36.4165 136.176 36.2659 135.419 35.9575C134.662 35.6491 133.975 35.1893 133.4 34.6061C132.821 34.0393 132.363 33.3592 132.055 32.6079C131.748 31.8567 131.597 31.0501 131.612 30.2381C131.612 28.5351 132.208 27.066 133.413 25.87C133.986 25.2821 134.672 24.8175 135.429 24.5046C136.186 24.1917 137 24.037 137.819 24.0501C139.516 24.0501 140.98 24.661 142.198 25.87C143.403 27.066 144.012 28.5351 144.012 30.2381C144.012 31.941 143.403 33.3971 142.198 34.6061ZM145.437 22.607C144.445 21.5901 143.256 20.7867 141.944 20.2458C140.632 19.7049 139.224 19.4379 137.806 19.4611C135.085 19.4611 133.012 20.0851 131.612 21.3201V16.6141C131.612 15.9901 131.392 15.4441 130.939 15.0021C130.485 14.5731 129.954 14.3521 129.345 14.3521H129.293C128.671 14.3521 128.14 14.5731 127.699 15.0021C127.246 15.4571 127.026 15.9901 127.026 16.6141V30.2381C127.026 33.2021 128.101 35.7111 130.2 37.7781C131.189 38.7913 132.374 39.5916 133.681 40.1303C134.989 40.6689 136.392 40.9346 137.806 40.9111C140.786 40.9111 143.325 39.871 145.437 37.765C146.455 36.7876 147.261 35.6101 147.805 34.3061C148.349 33.0021 148.619 31.5995 148.598 30.186C148.598 27.235 147.549 24.713 145.437 22.607Z" fill="#00F5C9"/>
<path fill-rule="evenodd" clip-rule="evenodd" d="M67.2055 58.266C66.169 58.006 65.56 57.837 65.4305 57.746C65.0159 57.551 64.8086 57.252 64.8086 56.836C64.8086 56.55 64.9122 56.303 65.1325 56.095C65.3406 55.8924 65.6199 55.7802 65.9099 55.783H67.9829C68.3327 55.783 68.6307 55.666 68.8899 55.419C69.149 55.198 69.2786 54.899 69.2786 54.561V54.535C69.2784 54.3706 69.2437 54.208 69.1767 54.0579C69.1098 53.9078 69.012 53.7736 68.8899 53.664C68.6472 53.4274 68.3212 53.2966 67.9829 53.3H66.0135C65.0029 53.3 64.1219 53.651 63.3963 54.34C63.048 54.6569 62.7709 55.0445 62.5832 55.4771C62.3956 55.9096 62.3018 56.3773 62.3079 56.849C62.3079 57.85 62.6059 58.617 63.189 59.176C63.6036 59.566 64.2255 59.865 65.0677 60.099C66.156 60.398 66.752 60.567 66.8557 60.619C67.2703 60.801 67.4646 61.087 67.4646 61.451C67.4646 61.75 67.361 62.01 67.1537 62.205C67.0491 62.3069 66.9254 62.387 66.7897 62.4405C66.654 62.4941 66.5091 62.5201 66.3633 62.517H63.474C63.1242 62.517 62.8262 62.634 62.5671 62.881C62.4473 62.9918 62.3519 63.1265 62.2872 63.2765C62.2225 63.4266 62.1898 63.5885 62.1913 63.752V63.765C62.1913 64.116 62.3209 64.415 62.58 64.636C62.8392 64.883 63.1242 65 63.487 65H66.2597C67.2703 65 68.1513 64.649 68.8769 63.96C69.6025 63.271 69.9652 62.426 69.9652 61.451C69.9652 60.463 69.6672 59.709 69.0842 59.176C68.6696 58.786 68.0477 58.5 67.2055 58.266Z" fill="black"/>
<path fill-rule="evenodd" clip-rule="evenodd" d="M79.4623 61.555C78.8145 62.205 78.0112 62.543 77.0913 62.543C76.6477 62.5509 76.2071 62.4673 75.7971 62.2974C75.387 62.1274 75.016 61.8747 74.7073 61.555C74.3926 61.2456 74.1441 60.8751 73.977 60.466C73.8099 60.0569 73.7278 59.618 73.7356 59.176C73.7356 58.24 74.0595 57.447 74.7073 56.797C75.016 56.4773 75.387 56.2246 75.7971 56.0546C76.2071 55.8847 76.6477 55.8011 77.0913 55.809C78.0112 55.809 78.8016 56.134 79.4623 56.797C80.1102 57.447 80.447 58.24 80.447 59.176C80.4532 59.6189 80.369 60.0584 80.1996 60.4676C80.0303 60.8767 79.7794 61.2467 79.4623 61.555ZM77.0913 53.3C75.4847 53.3 74.1113 53.872 72.9711 55.016C72.4194 55.5511 71.983 56.194 71.6889 56.9051C71.3947 57.6161 71.249 58.3802 71.2609 59.15C71.2609 60.762 71.8309 62.14 72.9711 63.284C73.5044 63.8375 74.1452 64.2754 74.8539 64.5706C75.5626 64.8657 76.3241 65.0119 77.0913 65C78.6979 65 80.0713 64.428 81.2115 63.284C81.7625 62.7484 82.1985 62.1054 82.4927 61.3944C82.7868 60.6835 82.9328 59.9197 82.9217 59.15C82.9217 57.538 82.3516 56.16 81.2115 55.016C80.6782 54.4625 80.0374 54.0246 79.3287 53.7294C78.62 53.4343 77.8585 53.2881 77.0913 53.3Z" fill="black"/>
<path fill-rule="evenodd" clip-rule="evenodd" d="M88.1173 49.4H88.1043C87.7681 49.3944 87.4429 49.5203 87.1974 49.751C86.9383 49.985 86.8217 50.271 86.8217 50.609V63.791C86.8217 64.129 86.9512 64.415 87.2103 64.636C87.4565 64.883 87.7545 65 88.1043 65C88.4542 65 88.7522 64.87 89.0113 64.636C89.2704 64.415 89.387 64.129 89.387 63.791V50.609C89.387 50.271 89.2575 49.985 88.9984 49.751C88.7561 49.5234 88.4361 49.3978 88.1043 49.4H88.1173Z" fill="black"/>
<path fill-rule="evenodd" clip-rule="evenodd" d="M101.061 53.3H101.035C100.697 53.2979 100.371 53.4286 100.128 53.664C100.006 53.7736 99.9081 53.9078 99.8412 54.0579C99.7742 54.208 99.7395 54.3705 99.7393 54.535V60.099C99.7393 60.762 99.4802 61.334 98.9879 61.815C98.4955 62.283 97.8866 62.517 97.1739 62.517C96.4613 62.517 95.8524 62.283 95.36 61.815C94.8677 61.334 94.6215 60.775 94.6215 60.099V54.535C94.6214 54.3705 94.5867 54.208 94.5197 54.0579C94.4527 53.9078 94.355 53.7736 94.2328 53.664C93.9894 53.4286 93.6639 53.2979 93.3259 53.3H93.287C92.9372 53.3 92.6392 53.43 92.38 53.664C92.2579 53.7736 92.1601 53.9078 92.0931 54.0579C92.0262 54.208 91.9915 54.3705 91.9913 54.535V60.099C91.9913 61.438 92.5096 62.595 93.5072 63.557C94.5308 64.519 95.7487 65 97.1739 65C98.5992 65 99.8171 64.519 100.841 63.57C101.326 63.1311 101.712 62.5932 101.974 61.9924C102.235 61.3915 102.366 60.7415 102.357 60.086V54.522C102.356 54.3575 102.322 54.195 102.255 54.0449C102.188 53.8948 102.09 53.7606 101.968 53.651C101.849 53.5314 101.708 53.4374 101.552 53.3748C101.396 53.3122 101.229 53.2823 101.061 53.287V53.3Z" fill="black"/>
<path fill-rule="evenodd" clip-rule="evenodd" d="M107.617 53.495H106.114V50.609C106.115 50.4486 106.084 50.2897 106.021 50.1421C105.959 49.9946 105.867 49.8614 105.751 49.751C105.639 49.6383 105.506 49.5492 105.359 49.4889C105.212 49.4287 105.055 49.3984 104.896 49.4H104.87C104.711 49.3984 104.554 49.4287 104.407 49.4889C104.26 49.5492 104.127 49.6383 104.015 49.751C103.899 49.8614 103.807 49.9946 103.745 50.1421C103.682 50.2897 103.651 50.4486 103.652 50.609V61.867C103.652 62.725 103.963 63.466 104.572 64.077C105.194 64.688 105.946 65 106.814 65H107.617C107.777 65.0013 107.935 64.9697 108.082 64.9071C108.229 64.8445 108.362 64.7522 108.472 64.636C108.718 64.415 108.835 64.129 108.835 63.791V63.765C108.836 63.6046 108.805 63.4457 108.742 63.2981C108.68 63.1505 108.588 63.0174 108.472 62.907C108.361 62.7931 108.228 62.7032 108.081 62.6429C107.934 62.5825 107.776 62.5529 107.617 62.556H106.814C106.722 62.5577 106.632 62.5411 106.547 62.5073C106.462 62.4734 106.385 62.423 106.32 62.3588C106.254 62.2947 106.203 62.2181 106.167 62.1337C106.132 62.0492 106.114 61.9585 106.114 61.867V55.939H107.617C107.776 55.942 107.934 55.9124 108.081 55.8521C108.228 55.7917 108.361 55.7018 108.472 55.588C108.718 55.354 108.835 55.068 108.835 54.73V54.717C108.836 54.5566 108.805 54.3977 108.742 54.2501C108.68 54.1026 108.588 53.9694 108.472 53.859C108.362 53.7427 108.229 53.6505 108.082 53.5878C107.935 53.5252 107.777 53.4936 107.617 53.495Z" fill="black"/>
<path fill-rule="evenodd" clip-rule="evenodd" d="M113.629 49.79C113.512 49.6664 113.371 49.568 113.215 49.5009C113.059 49.4339 112.891 49.3995 112.722 49.4C112.359 49.4 112.061 49.53 111.815 49.79C111.556 50.037 111.426 50.336 111.426 50.7C111.426 51.051 111.556 51.363 111.815 51.61C112.061 51.87 112.359 52 112.722 52C113.072 52 113.37 51.87 113.629 51.61C113.888 51.363 114.017 51.064 114.017 50.7C114.017 50.336 113.888 50.024 113.629 49.79Z" fill="black"/>
<path fill-rule="evenodd" clip-rule="evenodd" d="M112.735 53.3H112.722C112.359 53.3 112.061 53.43 111.815 53.664C111.693 53.7736 111.595 53.9078 111.528 54.0579C111.461 54.208 111.426 54.3705 111.426 54.535V63.765C111.426 64.116 111.556 64.415 111.815 64.636C112.061 64.883 112.359 65 112.722 65C113.085 65 113.383 64.87 113.629 64.636C113.888 64.402 114.004 64.116 114.004 63.765V54.535C114.004 54.3705 113.97 54.208 113.903 54.0579C113.836 53.9078 113.738 53.7736 113.616 53.664C113.5 53.5448 113.36 53.4509 113.207 53.3883C113.053 53.3256 112.888 53.2956 112.722 53.3H112.735Z" fill="black"/>
<path fill-rule="evenodd" clip-rule="evenodd" d="M123.515 61.555C122.867 62.205 122.063 62.543 121.143 62.543C120.7 62.5509 120.259 62.4673 119.849 62.2974C119.439 62.1274 119.068 61.8747 118.759 61.555C118.445 61.2456 118.196 60.8751 118.029 60.466C117.862 60.0569 117.78 59.618 117.788 59.176C117.788 58.24 118.112 57.447 118.759 56.797C119.068 56.4773 119.439 56.2246 119.849 56.0546C120.259 55.8847 120.7 55.8011 121.143 55.809C122.063 55.809 122.854 56.134 123.515 56.797C124.162 57.447 124.499 58.24 124.499 59.176C124.505 59.6189 124.421 60.0584 124.252 60.4676C124.082 60.8767 123.832 61.2467 123.515 61.555ZM121.143 53.3C119.537 53.3 118.163 53.872 117.023 55.016C116.472 55.5515 116.036 56.1946 115.742 56.9055C115.448 57.6165 115.302 58.3803 115.313 59.15C115.313 60.762 115.883 62.14 117.023 63.284C117.557 63.8375 118.197 64.2754 118.906 64.5706C119.615 64.8657 120.376 65.0119 121.143 65C122.75 65 124.123 64.428 125.264 63.284C125.815 62.7484 126.251 62.1054 126.545 61.3944C126.839 60.6835 126.985 59.9197 126.974 59.15C126.974 57.538 126.404 56.16 125.264 55.016C124.73 54.4625 124.09 54.0246 123.381 53.7294C122.672 53.4343 121.911 53.2881 121.143 53.3Z" fill="black"/>
<path fill-rule="evenodd" clip-rule="evenodd" d="M138.415 54.73C137.927 54.2614 137.352 53.8938 136.723 53.6484C136.094 53.403 135.423 53.2846 134.748 53.3C133.323 53.3 132.105 53.781 131.081 54.73C130.596 55.1689 130.209 55.7068 129.948 56.3076C129.686 56.9085 129.556 57.5585 129.565 58.214V63.765C129.565 64.116 129.695 64.415 129.954 64.636C130.197 64.8714 130.523 65.0021 130.861 65H130.9C131.238 65.0021 131.563 64.8714 131.807 64.636C132.066 64.402 132.195 64.116 132.195 63.765V58.214C132.195 57.551 132.442 56.979 132.934 56.498C133.426 56.03 134.035 55.783 134.748 55.783C135.46 55.783 136.069 56.03 136.562 56.498C137.054 56.979 137.3 57.538 137.3 58.214V63.765C137.3 64.116 137.43 64.415 137.689 64.636C137.936 64.8746 138.266 65.0055 138.609 65H138.635C138.998 65 139.296 64.87 139.542 64.636C139.801 64.402 139.93 64.116 139.93 63.765V58.214C139.93 56.862 139.412 55.705 138.415 54.743V54.73Z" fill="black"/>
<path fill-rule="evenodd" clip-rule="evenodd" d="M144.945 55.783C144.655 55.7803 144.375 55.8924 144.167 56.0951C144.064 56.1911 143.982 56.3078 143.926 56.4377C143.87 56.5675 143.842 56.7077 143.843 56.849C143.843 57.239 144.051 57.551 144.465 57.759C144.595 57.837 145.191 58.006 146.24 58.266C147.082 58.5 147.704 58.786 148.119 59.176C148.702 59.696 149 60.476 149 61.451C149 62.426 148.637 63.271 147.912 63.96C147.186 64.649 146.305 65 145.294 65H142.509C142.159 65 141.861 64.8701 141.602 64.6361C141.479 64.528 141.381 64.3938 141.316 64.2431C141.251 64.0924 141.22 63.9291 141.226 63.765V63.752C141.226 63.4141 141.356 63.115 141.615 62.881C141.874 62.621 142.159 62.517 142.522 62.517H145.398C145.709 62.517 145.968 62.413 146.175 62.205C146.28 62.1095 146.362 61.9929 146.418 61.8629C146.474 61.7329 146.502 61.5926 146.499 61.451C146.499 61.087 146.305 60.801 145.89 60.606C145.3 60.4183 144.704 60.2492 144.102 60.099C143.413 59.9429 142.769 59.6268 142.224 59.176C141.919 58.872 141.682 58.5057 141.53 58.102C141.378 57.6983 141.314 57.2666 141.343 56.8361C141.343 55.8741 141.705 55.042 142.431 54.34C143.157 53.651 144.038 53.3 145.048 53.3H147.018C147.367 53.3 147.665 53.43 147.925 53.664C148.184 53.911 148.313 54.197 148.313 54.535V54.5611C148.313 54.8991 148.184 55.1981 147.925 55.4191C147.682 55.6557 147.356 55.7865 147.018 55.783H144.945Z" fill="black"/>
</g>
<defs>
<clipPath id="clip0_190_443">
<rect width="149" height="65" fill="white"/>
</clipPath>
</defs>
</svg>
