<svg width="149" height="65" viewBox="0 0 149 65" fill="none" xmlns="http://www.w3.org/2000/svg">
<g clip-path="url(#clip0_108_47)">
<path fill-rule="evenodd" clip-rule="evenodd" d="M17.4913 35.6199H9.71739C8.83635 35.6199 8.08487 35.2949 7.46296 34.6709C7.15933 34.3714 6.91995 34.0128 6.75952 33.6171C6.5991 33.2214 6.52102 32.797 6.53009 32.3699V3.31489C6.53009 2.41789 6.20617 1.63789 5.5713 1.00089C5.27696 0.697096 4.92426 0.456362 4.53454 0.293247C4.14481 0.130131 3.72617 0.0480232 3.30391 0.0518882H3.23913C2.35809 0.0518882 1.59365 0.363888 0.958783 1.00089C0.310957 1.65089 0 2.41789 0 3.31489V32.3699C0 35.0999 0.945826 37.4139 2.85043 39.3379C3.73513 40.2685 4.80149 41.0063 5.98296 41.505C7.16444 42.0038 8.43569 42.253 9.71739 42.2369H17.4913C17.9177 42.2399 18.3402 42.155 18.7325 41.9872C19.1248 41.8195 19.4785 41.5726 19.7717 41.2619C20.4195 40.6509 20.7304 39.8839 20.7304 38.9609V38.9089C20.7304 37.9989 20.4195 37.2319 19.7717 36.5819C19.4759 36.2719 19.1196 36.0265 18.725 35.861C18.3304 35.6954 17.906 35.6134 17.4783 35.6199H17.4913Z" fill="#00F5C9"/>
<path fill-rule="evenodd" clip-rule="evenodd" d="M94.8677 18.213H94.8288C94.1292 18.213 93.5332 18.473 93.0797 18.967C92.8422 19.2005 92.6544 19.4798 92.5274 19.7882C92.4005 20.0965 92.3372 20.4274 92.3412 20.761V32.201C92.3412 33.566 91.8747 34.723 90.916 35.685C90.4719 36.1468 89.938 36.512 89.3473 36.758C88.7567 37.004 88.1219 37.1255 87.4825 37.115C86.8428 37.1271 86.2076 37.0063 85.6167 36.7602C85.0258 36.5141 84.4921 36.1481 84.049 35.685C83.5906 35.2306 83.229 34.6874 82.9863 34.0885C82.7435 33.4896 82.6246 32.8474 82.6367 32.201V20.761C82.6367 20.059 82.3906 19.461 81.8982 18.967C81.4318 18.46 80.8617 18.213 80.162 18.213H80.1102C79.4365 18.213 78.8405 18.473 78.3481 18.967C78.1107 19.2005 77.9228 19.4798 77.7959 19.7882C77.669 20.0965 77.6056 20.4274 77.6096 20.761V32.201C77.6096 33.566 77.1432 34.723 76.1974 35.685C75.7558 36.1464 75.2241 36.5116 74.6356 36.7576C74.0471 37.0036 73.4143 37.1253 72.7768 37.115C72.1372 37.1271 71.5019 37.0063 70.9111 36.7602C70.3202 36.5141 69.7864 36.1481 69.3434 35.685C68.8826 35.2317 68.5187 34.689 68.2736 34.0901C68.0286 33.4911 67.9076 32.8484 67.9181 32.201V20.761L67.9052 20.371L67.957 13.039C67.957 9.464 66.7002 6.409 64.1996 3.861C63.0372 2.63594 61.635 1.6652 60.0809 1.00972C58.5269 0.354247 56.8545 0.0281818 55.1689 0.0519979C50.9581 0.0519979 47.7837 1.482 45.6588 4.316C43.521 1.469 40.3467 0.0519979 36.1228 0.0519979C32.5987 0.0519979 29.5798 1.326 27.0792 3.861C25.8686 5.05702 24.9126 6.48713 24.2689 8.06473C23.6253 9.64232 23.3075 11.3346 23.3347 13.039V38.961C23.3347 39.871 23.6587 40.651 24.2935 41.262C24.9414 41.912 25.6799 42.237 26.548 42.237H26.6387C27.5067 42.237 28.2582 41.912 28.8931 41.262C29.5409 40.651 29.8519 39.884 29.8519 38.961V13.039C29.8519 11.258 30.4608 9.75 31.6787 8.502C32.2518 7.90158 32.9424 7.42651 33.7072 7.10661C34.472 6.7867 35.2944 6.62886 36.1228 6.643C37.859 6.643 39.336 7.267 40.554 8.502C41.1526 9.09524 41.6245 9.80465 41.9408 10.5869C42.2571 11.3692 42.4112 12.208 42.3938 13.052V38.961C42.3938 39.871 42.7047 40.651 43.3526 41.262C43.9874 41.912 44.7519 42.237 45.6329 42.237H45.6847C46.5917 42.237 47.3432 41.912 47.9392 41.262C48.587 40.651 48.898 39.884 48.898 38.961V13.039C48.898 11.258 49.5069 9.75 50.7378 8.502C51.3089 7.90258 51.9973 7.42803 52.7598 7.10813C53.5224 6.78823 54.3425 6.62988 55.1689 6.643C56.931 6.643 58.408 7.267 59.6389 8.502C60.2352 9.09634 60.7047 9.80624 61.0188 10.5885C61.3328 11.3707 61.4849 12.2089 61.4658 13.052L61.4917 32.253V32.461C61.5565 35.113 62.5282 37.401 64.394 39.299C66.3115 41.249 70.056 42.237 72.7768 42.237C76.016 42.237 78.4777 41.132 80.1361 38.935C81.7816 41.145 84.2304 42.237 87.4825 42.237C90.2033 42.237 92.5355 41.249 94.4531 39.299C95.389 38.3741 96.1277 37.268 96.6244 36.0478C97.1211 34.8276 97.3654 33.5188 97.3424 32.201V20.761C97.351 20.4289 97.2935 20.0984 97.1731 19.7889C97.0528 19.4794 96.8721 19.1971 96.6416 18.9585C96.4111 18.72 96.1355 18.53 95.8309 18.3998C95.5263 18.2695 95.1988 18.2016 94.8677 18.2V18.213Z" fill="#00F5C9"/>
<path fill-rule="evenodd" clip-rule="evenodd" d="M106.865 30.602C106.865 28.847 107.448 27.339 108.627 26.104C109.177 25.5044 109.847 25.0278 110.592 24.7053C111.338 24.3827 112.143 24.2215 112.955 24.232C114.834 24.232 116.233 24.804 117.14 25.922L106.865 30.732V30.602ZM120.845 31.109C119.77 31.109 119.07 31.629 118.708 32.669C118.313 33.8986 117.548 34.9752 116.518 35.75C115.456 36.556 114.264 36.959 112.955 36.959C110.973 36.959 109.521 36.348 108.589 35.113L114.704 32.214L121.467 29.029C122.05 28.769 122.439 28.327 122.633 27.729C122.847 27.15 122.824 26.5099 122.569 25.948C121.759 24.0555 120.42 22.4391 118.714 21.2946C117.008 20.1502 115.007 19.5268 112.955 19.5C110.027 19.5 107.539 20.579 105.466 22.75C104.457 23.7776 103.663 24.9967 103.129 26.3359C102.595 27.6752 102.332 29.1078 102.357 30.55C102.357 33.592 103.393 36.192 105.466 38.35C106.417 39.3887 107.575 40.2149 108.866 40.7749C110.156 41.3348 111.549 41.616 112.955 41.6C115.235 41.6 117.295 40.898 119.135 39.52C120.933 38.2016 122.267 36.3443 122.944 34.216C123.078 33.8701 123.123 33.4961 123.075 33.1283C123.028 32.7605 122.889 32.4104 122.672 32.11C122.481 31.7982 122.212 31.5418 121.891 31.3663C121.571 31.1907 121.21 31.1021 120.845 31.109Z" fill="#00F5C9"/>
<path fill-rule="evenodd" clip-rule="evenodd" d="M142.198 34.6061C141.626 35.1889 140.941 35.6486 140.186 35.957C139.431 36.2655 138.621 36.4162 137.806 36.4C136.988 36.4165 136.176 36.2659 135.419 35.9575C134.662 35.6491 133.975 35.1893 133.4 34.6061C132.821 34.0393 132.363 33.3592 132.055 32.6079C131.748 31.8567 131.597 31.0501 131.612 30.2381C131.612 28.5351 132.208 27.066 133.413 25.87C133.986 25.2821 134.672 24.8175 135.429 24.5046C136.186 24.1917 137 24.037 137.819 24.0501C139.516 24.0501 140.98 24.661 142.198 25.87C143.403 27.066 144.012 28.5351 144.012 30.2381C144.012 31.941 143.403 33.3971 142.198 34.6061ZM145.437 22.607C144.445 21.5901 143.256 20.7867 141.944 20.2458C140.632 19.7049 139.224 19.4379 137.806 19.4611C135.085 19.4611 133.012 20.0851 131.612 21.3201V16.6141C131.612 15.9901 131.392 15.4441 130.939 15.0021C130.485 14.5731 129.954 14.3521 129.345 14.3521H129.293C128.671 14.3521 128.14 14.5731 127.699 15.0021C127.246 15.4571 127.026 15.9901 127.026 16.6141V30.2381C127.026 33.2021 128.101 35.7111 130.2 37.7781C131.189 38.7913 132.374 39.5916 133.681 40.1303C134.989 40.6689 136.392 40.9346 137.806 40.9111C140.786 40.9111 143.325 39.871 145.437 37.765C146.455 36.7876 147.261 35.6101 147.805 34.3061C148.349 33.0021 148.619 31.5995 148.598 30.186C148.598 27.235 147.549 24.713 145.437 22.607Z" fill="#00F5C9"/>
<path fill-rule="evenodd" clip-rule="evenodd" d="M67.2055 58.2659C66.169 58.0059 65.56 57.8369 65.4305 57.7459C65.0159 57.5509 64.8086 57.2519 64.8086 56.8359C64.8086 56.5499 64.9122 56.3029 65.1325 56.0949C65.3406 55.8922 65.6199 55.7801 65.9099 55.7829H67.9829C68.3327 55.7829 68.6307 55.6659 68.8899 55.4189C69.149 55.1979 69.2786 54.8989 69.2786 54.5609V54.5349C69.2784 54.3704 69.2437 54.2079 69.1767 54.0578C69.1098 53.9077 69.012 53.7735 68.8899 53.6639C68.6472 53.4273 68.3212 53.2964 67.9829 53.2999H66.0135C65.0029 53.2999 64.1219 53.6509 63.3963 54.3399C63.048 54.6568 62.7709 55.0444 62.5832 55.4769C62.3956 55.9095 62.3018 56.3772 62.3079 56.8489C62.3079 57.8499 62.6059 58.6169 63.189 59.1759C63.6036 59.5659 64.2255 59.8649 65.0677 60.0989C66.156 60.3979 66.752 60.5669 66.8557 60.6189C67.2703 60.8009 67.4646 61.0869 67.4646 61.4509C67.4646 61.7499 67.361 62.0099 67.1537 62.2049C67.0491 62.3068 66.9254 62.3868 66.7897 62.4404C66.654 62.4939 66.5091 62.5199 66.3633 62.5169H63.474C63.1242 62.5169 62.8262 62.6339 62.5671 62.8809C62.4473 62.9917 62.3519 63.1264 62.2872 63.2764C62.2225 63.4264 62.1898 63.5884 62.1913 63.7519V63.7649C62.1913 64.1159 62.3209 64.4149 62.58 64.6359C62.8392 64.8829 63.1242 64.9999 63.487 64.9999H66.2597C67.2703 64.9999 68.1513 64.6489 68.8769 63.9599C69.6025 63.2709 69.9652 62.4259 69.9652 61.4509C69.9652 60.4629 69.6672 59.7089 69.0842 59.1759C68.6696 58.7859 68.0477 58.4999 67.2055 58.2659Z" fill="white"/>
<path fill-rule="evenodd" clip-rule="evenodd" d="M79.4624 61.555C78.8146 62.205 78.0113 62.543 77.0914 62.543C76.6477 62.5509 76.2072 62.4673 75.7971 62.2974C75.387 62.1274 75.0161 61.8747 74.7074 61.555C74.3926 61.2456 74.1441 60.8751 73.9771 60.466C73.81 60.0569 73.7278 59.618 73.7356 59.176C73.7356 58.24 74.0595 57.447 74.7074 56.797C75.0161 56.4773 75.387 56.2246 75.7971 56.0546C76.2072 55.8847 76.6477 55.8011 77.0914 55.809C78.0113 55.809 78.8016 56.134 79.4624 56.797C80.1102 57.447 80.4471 58.24 80.4471 59.176C80.4532 59.6189 80.369 60.0584 80.1997 60.4676C80.0304 60.8767 79.7795 61.2467 79.4624 61.555ZM77.0914 53.3C75.4847 53.3 74.1114 53.872 72.9712 55.016C72.4195 55.5511 71.9831 56.194 71.6889 56.9051C71.3948 57.6161 71.2491 58.3802 71.2609 59.15C71.2609 60.762 71.831 62.14 72.9712 63.284C73.5045 63.8375 74.1453 64.2754 74.854 64.5706C75.5626 64.8657 76.3241 65.0119 77.0914 65C78.698 65 80.0714 64.428 81.2115 63.284C81.7626 62.7484 82.1986 62.1054 82.4927 61.3944C82.7868 60.6835 82.9329 59.9197 82.9218 59.15C82.9218 57.538 82.3517 56.16 81.2115 55.016C80.6782 54.4625 80.0374 54.0246 79.3287 53.7294C78.6201 53.4343 77.8586 53.2881 77.0914 53.3Z" fill="white"/>
<path fill-rule="evenodd" clip-rule="evenodd" d="M88.1173 49.4001H88.1043C87.7681 49.3945 87.4429 49.5204 87.1974 49.7511C86.9383 49.9851 86.8217 50.2711 86.8217 50.6091V63.7911C86.8217 64.1291 86.9512 64.4151 87.2103 64.6361C87.4565 64.8831 87.7545 65.0001 88.1043 65.0001C88.4542 65.0001 88.7522 64.8701 89.0113 64.6361C89.2704 64.4151 89.387 64.1291 89.387 63.7911V50.6091C89.387 50.2711 89.2575 49.9851 88.9984 49.7511C88.7561 49.5235 88.4361 49.3979 88.1043 49.4001H88.1173Z" fill="white"/>
<path fill-rule="evenodd" clip-rule="evenodd" d="M101.061 53.3001H101.035C100.697 53.298 100.371 53.4287 100.128 53.6641C100.006 53.7737 99.9081 53.9079 99.8412 54.058C99.7742 54.2081 99.7395 54.3707 99.7393 54.5351V60.0991C99.7393 60.7621 99.4802 61.3341 98.9879 61.8151C98.4955 62.2831 97.8866 62.5171 97.1739 62.5171C96.4613 62.5171 95.8524 62.2831 95.36 61.8151C94.8677 61.3341 94.6215 60.7751 94.6215 60.0991V54.5351C94.6214 54.3707 94.5867 54.2081 94.5197 54.058C94.4527 53.9079 94.355 53.7737 94.2328 53.6641C93.9894 53.4287 93.6639 53.298 93.3259 53.3001H93.287C92.9372 53.3001 92.6392 53.4301 92.38 53.6641C92.2579 53.7737 92.1601 53.9079 92.0931 54.058C92.0262 54.2081 91.9915 54.3707 91.9913 54.5351V60.0991C91.9913 61.4381 92.5096 62.5951 93.5072 63.5571C94.5308 64.5191 95.7487 65.0001 97.1739 65.0001C98.5992 65.0001 99.8171 64.5191 100.841 63.5701C101.326 63.1312 101.712 62.5933 101.974 61.9925C102.235 61.3916 102.366 60.7416 102.357 60.0861V54.5221C102.356 54.3576 102.322 54.1951 102.255 54.045C102.188 53.8949 102.09 53.7607 101.968 53.6511C101.849 53.5315 101.708 53.4376 101.552 53.3749C101.396 53.3123 101.229 53.2825 101.061 53.2871V53.3001Z" fill="white"/>
<path fill-rule="evenodd" clip-rule="evenodd" d="M107.617 53.495H106.114V50.609C106.115 50.4486 106.084 50.2897 106.021 50.1421C105.959 49.9946 105.867 49.8614 105.751 49.751C105.639 49.6383 105.506 49.5492 105.359 49.4889C105.212 49.4287 105.055 49.3984 104.896 49.4H104.87C104.711 49.3984 104.554 49.4287 104.407 49.4889C104.26 49.5492 104.127 49.6383 104.015 49.751C103.899 49.8614 103.807 49.9946 103.745 50.1421C103.682 50.2897 103.651 50.4486 103.652 50.609V61.867C103.652 62.725 103.963 63.466 104.572 64.077C105.194 64.688 105.945 65 106.814 65H107.617C107.777 65.0013 107.935 64.9697 108.082 64.9071C108.229 64.8445 108.362 64.7522 108.472 64.636C108.718 64.415 108.835 64.129 108.835 63.791V63.765C108.836 63.6046 108.805 63.4457 108.742 63.2981C108.68 63.1505 108.588 63.0174 108.472 62.907C108.361 62.7931 108.228 62.7032 108.081 62.6429C107.933 62.5825 107.776 62.5529 107.617 62.556H106.814C106.722 62.5577 106.632 62.5411 106.547 62.5073C106.462 62.4734 106.385 62.423 106.32 62.3588C106.254 62.2947 106.203 62.2181 106.167 62.1337C106.132 62.0492 106.114 61.9585 106.114 61.867V55.939H107.617C107.776 55.942 107.933 55.9124 108.081 55.8521C108.228 55.7917 108.361 55.7018 108.472 55.588C108.718 55.354 108.835 55.068 108.835 54.73V54.717C108.836 54.5566 108.805 54.3977 108.742 54.2501C108.68 54.1026 108.588 53.9694 108.472 53.859C108.362 53.7427 108.229 53.6505 108.082 53.5878C107.935 53.5252 107.777 53.4936 107.617 53.495Z" fill="white"/>
<path fill-rule="evenodd" clip-rule="evenodd" d="M113.629 49.7899C113.512 49.6663 113.371 49.5679 113.215 49.5008C113.059 49.4337 112.891 49.3994 112.722 49.3999C112.359 49.3999 112.061 49.5299 111.815 49.7899C111.556 50.0369 111.426 50.3359 111.426 50.6999C111.426 51.0509 111.556 51.3629 111.815 51.6099C112.061 51.8699 112.359 51.9999 112.722 51.9999C113.072 51.9999 113.369 51.8699 113.629 51.6099C113.888 51.3629 114.017 51.0639 114.017 50.6999C114.017 50.3359 113.888 50.0239 113.629 49.7899Z" fill="white"/>
<path fill-rule="evenodd" clip-rule="evenodd" d="M112.735 53.2997H112.722C112.359 53.2997 112.061 53.4297 111.815 53.6637C111.693 53.7734 111.595 53.9076 111.528 54.0577C111.461 54.2077 111.426 54.3703 111.426 54.5347V63.7647C111.426 64.1157 111.556 64.4147 111.815 64.6357C112.061 64.8827 112.359 64.9997 112.722 64.9997C113.084 64.9997 113.382 64.8697 113.629 64.6357C113.888 64.4017 114.004 64.1157 114.004 63.7647V54.5347C114.004 54.3703 113.97 54.2077 113.903 54.0577C113.836 53.9076 113.738 53.7734 113.616 53.6637C113.5 53.5445 113.36 53.4507 113.207 53.388C113.053 53.3254 112.888 53.2953 112.722 53.2997H112.735Z" fill="white"/>
<path fill-rule="evenodd" clip-rule="evenodd" d="M123.515 61.555C122.867 62.205 122.063 62.543 121.144 62.543C120.7 62.5509 120.259 62.4673 119.849 62.2974C119.439 62.1274 119.068 61.8747 118.76 61.555C118.445 61.2456 118.196 60.8751 118.029 60.466C117.862 60.0569 117.78 59.618 117.788 59.176C117.788 58.24 118.112 57.447 118.76 56.797C119.068 56.4773 119.439 56.2246 119.849 56.0546C120.259 55.8847 120.7 55.8011 121.144 55.809C122.063 55.809 122.854 56.134 123.515 56.797C124.162 57.447 124.499 58.24 124.499 59.176C124.505 59.6189 124.421 60.0584 124.252 60.4676C124.083 60.8767 123.832 61.2467 123.515 61.555ZM121.144 53.3C119.537 53.3 118.164 53.872 117.023 55.016C116.472 55.5515 116.036 56.1946 115.742 56.9055C115.448 57.6165 115.302 58.3803 115.313 59.15C115.313 60.762 115.883 62.14 117.023 63.284C117.557 63.8375 118.197 64.2754 118.906 64.5706C119.615 64.8657 120.376 65.0119 121.144 65C122.75 65 124.124 64.428 125.264 63.284C125.815 62.7484 126.251 62.1054 126.545 61.3944C126.839 60.6835 126.985 59.9197 126.974 59.15C126.974 57.538 126.404 56.16 125.264 55.016C124.73 54.4625 124.09 54.0246 123.381 53.7294C122.672 53.4343 121.911 53.2881 121.144 53.3Z" fill="white"/>
<path fill-rule="evenodd" clip-rule="evenodd" d="M138.414 54.7302C137.927 54.2615 137.352 53.8939 136.723 53.6485C136.094 53.4032 135.423 53.2848 134.748 53.3002C133.323 53.3002 132.105 53.7812 131.081 54.7302C130.596 55.169 130.209 55.7069 129.948 56.3078C129.686 56.9086 129.556 57.5586 129.565 58.2142V63.7652C129.565 64.1162 129.695 64.4152 129.954 64.6362C130.197 64.8716 130.523 65.0022 130.861 65.0002H130.9C131.238 65.0022 131.563 64.8716 131.807 64.6362C132.066 64.4022 132.195 64.1162 132.195 63.7652V58.2142C132.195 57.5512 132.442 56.9792 132.934 56.4982C133.426 56.0302 134.035 55.7832 134.748 55.7832C135.46 55.7832 136.069 56.0302 136.562 56.4982C137.054 56.9792 137.3 57.5382 137.3 58.2142V63.7652C137.3 64.1162 137.43 64.4152 137.689 64.6362C137.936 64.8747 138.266 65.0056 138.609 65.0002H138.635C138.998 65.0002 139.296 64.8702 139.542 64.6362C139.801 64.4022 139.93 64.1162 139.93 63.7652V58.2142C139.93 56.8622 139.412 55.7052 138.414 54.7432V54.7302Z" fill="white"/>
<path fill-rule="evenodd" clip-rule="evenodd" d="M144.945 55.7828C144.655 55.7801 144.375 55.8922 144.167 56.0948C144.064 56.1909 143.982 56.3076 143.926 56.4374C143.87 56.5673 143.842 56.7074 143.843 56.8488C143.843 57.2388 144.051 57.5508 144.465 57.7588C144.595 57.8368 145.191 58.0058 146.24 58.2658C147.082 58.4998 147.704 58.7858 148.119 59.1758C148.702 59.6958 149 60.4758 149 61.4508C149 62.4258 148.637 63.2708 147.912 63.9598C147.186 64.6488 146.305 64.9998 145.294 64.9998H142.509C142.159 64.9998 141.861 64.8698 141.602 64.6358C141.479 64.5277 141.381 64.3935 141.316 64.2428C141.251 64.0922 141.22 63.9289 141.226 63.7648V63.7518C141.226 63.4138 141.356 63.1148 141.615 62.8808C141.874 62.6208 142.159 62.5168 142.522 62.5168H145.398C145.709 62.5168 145.968 62.4128 146.175 62.2048C146.279 62.1092 146.362 61.9926 146.418 61.8627C146.474 61.7327 146.502 61.5923 146.499 61.4508C146.499 61.0868 146.305 60.8008 145.89 60.6058C145.3 60.418 144.704 60.249 144.102 60.0988C143.413 59.9427 142.769 59.6266 142.224 59.1758C141.919 58.8717 141.682 58.5055 141.53 58.1018C141.378 57.6981 141.314 57.2664 141.343 56.8358C141.343 55.8738 141.705 55.0418 142.431 54.3398C143.157 53.6508 144.038 53.2998 145.048 53.2998H147.018C147.367 53.2998 147.665 53.4298 147.925 53.6638C148.184 53.9108 148.313 54.1968 148.313 54.5348V54.5608C148.313 54.8988 148.184 55.1978 147.925 55.4188C147.682 55.6554 147.356 55.7862 147.018 55.7828H144.945Z" fill="white"/>
</g>
<defs>
<clipPath id="clip0_108_47">
<rect width="149" height="65" fill="white"/>
</clipPath>
</defs>
</svg>
