<svg width="1311" height="823" viewBox="0 0 1311 823" fill="none" xmlns="http://www.w3.org/2000/svg">
<g clip-path="url(#clip0_706_561)">
<path d="M1059.19 864.52H679.982C669.658 864.52 661.333 856.163 661.333 845.872V135.681C661.333 125.357 669.691 117.033 679.982 117.033H1059.16C1069.48 117.033 1077.8 125.39 1077.8 135.681V845.872C1077.84 856.163 1069.48 864.52 1059.19 864.52Z" fill="white"/>
<path d="M1060.01 866.192H679.294C668.937 866.192 660.514 857.769 660.514 847.413V134.14C660.514 123.784 668.937 115.361 679.294 115.361H1059.98C1070.33 115.361 1078.76 123.784 1078.76 134.14V847.413C1078.79 857.769 1070.37 866.192 1060.01 866.192ZM679.294 118.442C670.641 118.442 663.594 125.488 663.594 134.14V847.413C663.594 856.065 670.641 863.111 679.294 863.111H1059.98C1068.63 863.111 1075.67 856.065 1075.67 847.413V134.14C1075.67 125.488 1068.63 118.442 1059.98 118.442H679.294Z" fill="black"/>
<path d="M1077.25 168.617H662.054C661.202 168.617 660.514 167.929 660.514 167.077C660.514 166.225 661.202 165.537 662.054 165.537H1077.21C1078.07 165.537 1078.76 166.225 1078.76 167.077C1078.79 167.929 1078.1 168.617 1077.25 168.617Z" fill="black"/>
<path d="M694.698 154.328C700.889 154.328 705.907 149.31 705.907 143.12C705.907 136.93 700.889 131.912 694.698 131.912C688.508 131.912 683.489 136.93 683.489 143.12C683.489 149.31 688.508 154.328 694.698 154.328Z" fill="#E3E3E3"/>
<path d="M734.094 154.328C740.284 154.328 745.303 149.31 745.303 143.12C745.303 136.93 740.284 131.912 734.094 131.912C727.903 131.912 722.885 136.93 722.885 143.12C722.885 149.31 727.903 154.328 734.094 154.328Z" fill="#E3E3E3"/>
<path d="M773.456 154.328C779.647 154.328 784.665 149.31 784.665 143.12C784.665 136.93 779.647 131.912 773.456 131.912C767.266 131.912 762.247 136.93 762.247 143.12C762.247 149.31 767.266 154.328 773.456 154.328Z" fill="#E3E3E3"/>
<path d="M985.97 570.939H753.366C741.206 570.939 731.341 561.075 731.341 548.916V542.787C731.341 530.628 741.206 520.764 753.366 520.764H985.97C998.129 520.764 1007.99 530.628 1007.99 542.787V548.916C1007.96 561.107 998.097 570.939 985.97 570.939Z" fill="#00FFCC"/>
<path d="M985.97 638.452H753.366C741.206 638.452 731.341 628.587 731.341 616.428V610.3C731.341 598.141 741.206 588.276 753.366 588.276H985.97C998.129 588.276 1007.99 598.141 1007.99 610.3V616.428C1007.96 628.587 998.097 638.452 985.97 638.452Z" fill="#DCE0EC"/>
<path d="M979.153 490.776H760.183C744.254 490.776 731.341 477.864 731.341 461.936V421.134C731.341 405.206 744.254 392.293 760.183 392.293H979.153C995.081 392.293 1007.99 405.206 1007.99 421.134V461.969C1007.96 477.864 995.048 490.776 979.153 490.776Z" fill="#DCE0EC"/>
<path d="M979.152 763.415H760.183C743.435 763.415 729.833 749.782 729.833 733.068V692.232C729.833 675.485 743.467 661.885 760.183 661.885H979.152C995.9 661.885 1009.5 675.518 1009.5 692.232V733.068C1009.5 749.815 995.868 763.415 979.152 763.415ZM760.15 664.965C745.106 664.965 732.848 677.222 732.848 692.265V733.1C732.848 748.143 745.106 760.4 760.15 760.4H979.12C994.163 760.4 1006.42 748.143 1006.42 733.1V692.265C1006.42 677.222 994.163 664.965 979.12 664.965H760.15Z" fill="#DCDCDC"/>
<path d="M1138.77 716.468L1130.67 715.321C1128.44 714.993 1128.44 711.781 1130.67 711.487L1138.77 710.405C1139.62 710.274 1140.31 709.618 1140.44 708.734L1141.55 700.671C1141.85 698.443 1145.09 698.443 1145.39 700.671L1146.5 708.766C1146.63 709.618 1147.29 710.307 1148.14 710.438L1156.24 711.585C1158.46 711.913 1158.46 715.124 1156.24 715.419L1148.14 716.501C1147.29 716.632 1146.6 717.287 1146.47 718.172L1145.35 726.234C1145.06 728.463 1141.81 728.463 1141.52 726.234L1140.41 718.139C1140.27 717.287 1139.62 716.599 1138.77 716.468Z" fill="white"/>
<path d="M163.416 355.489L181.671 352.867C186.686 352.146 186.686 344.871 181.638 344.215L163.448 341.757C161.515 341.495 159.974 339.955 159.712 338.021L157.188 319.832C156.5 314.785 149.224 314.785 148.536 319.832L146.012 338.087C145.75 340.02 144.242 341.528 142.308 341.823L124.053 344.445C119.038 345.166 119.038 352.441 124.086 353.097L142.276 355.555C144.209 355.817 145.75 357.357 146.012 359.291L148.536 377.48C149.224 382.527 156.5 382.527 157.188 377.48L159.712 359.225C159.941 357.292 161.482 355.784 163.416 355.489Z" fill="#00FFCC"/>
<path d="M115.859 319.537L125.134 318.226C127.691 317.866 127.658 314.162 125.102 313.835L115.859 312.589C114.876 312.458 114.089 311.672 113.958 310.689L112.68 301.447C112.319 298.89 108.649 298.89 108.288 301.447L107.01 310.721C106.879 311.704 106.092 312.458 105.109 312.622L95.8336 313.933C93.2772 314.294 93.31 317.997 95.8664 318.325L105.109 319.57C106.092 319.701 106.879 320.488 107.01 321.471L108.288 330.713C108.649 333.269 112.319 333.269 112.68 330.713L113.958 321.438C114.122 320.455 114.876 319.701 115.859 319.537Z" fill="#FFCA28"/>
<path d="M190.095 270.05L198.19 268.903C200.419 268.575 200.419 265.364 198.19 265.069L190.095 263.987C189.243 263.856 188.554 263.201 188.423 262.316L187.309 254.253C187.014 252.025 183.769 252.025 183.474 254.253L182.36 262.348C182.229 263.2 181.573 263.889 180.721 264.02L172.626 265.167C170.397 265.495 170.397 268.706 172.626 269.001L180.721 270.083C181.573 270.214 182.261 270.869 182.393 271.754L183.507 279.816C183.802 282.045 187.047 282.045 187.342 279.816L188.456 271.689C188.587 270.837 189.243 270.148 190.095 270.05Z" fill="#5125FF"/>
<path d="M1037.82 809.134H701.483C700.631 809.134 699.942 808.446 699.942 807.594C699.942 806.741 700.631 806.053 701.483 806.053H1037.82C1038.67 806.053 1039.36 806.741 1039.36 807.594C1039.36 808.446 1038.67 809.134 1037.82 809.134Z" fill="black"/>
<path d="M1037.82 824.111H701.483C700.631 824.111 699.942 823.423 699.942 822.571C699.942 821.718 700.631 821.03 701.483 821.03H1037.82C1038.67 821.03 1039.36 821.718 1039.36 822.571C1039.36 823.423 1038.67 824.111 1037.82 824.111Z" fill="black"/>
<path d="M991.771 424.149H747.565C746.713 424.149 746.024 423.461 746.024 422.609C746.024 421.757 746.713 421.068 747.565 421.068H991.771C992.624 421.068 993.312 421.757 993.312 422.609C993.312 423.461 992.591 424.149 991.771 424.149Z" fill="white"/>
<path d="M991.771 439.126H747.565C746.713 439.126 746.024 438.438 746.024 437.586C746.024 436.734 746.713 436.045 747.565 436.045H991.771C992.624 436.045 993.312 436.734 993.312 437.586C993.279 438.438 992.591 439.126 991.771 439.126Z" fill="white"/>
<path d="M991.771 454.104H747.565C746.713 454.104 746.024 453.415 746.024 452.563C746.024 451.711 746.713 451.023 747.565 451.023H991.771C992.624 451.023 993.312 451.711 993.312 452.563C993.279 453.415 992.591 454.104 991.771 454.104Z" fill="white"/>
<path d="M991.771 469.048H747.565C746.713 469.048 746.024 468.36 746.024 467.508C746.024 466.656 746.713 465.967 747.565 465.967H991.771C992.624 465.967 993.312 466.656 993.312 467.508C993.279 468.36 992.591 469.048 991.771 469.048Z" fill="white"/>
<path d="M376.552 524.664L417.914 1134.08H525.121L505.816 524.664H376.552Z" fill="#5125FF"/>
<path d="M340.073 534.594L271.541 807.102L154.895 1024.16L249.45 1074.2C249.45 1074.2 377.109 831.387 384.877 815.426L445.019 524.697L340.073 534.594Z" fill="#5125FF"/>
<path d="M506.637 550.817V558.191L331.028 570.514L337.223 545.868L506.637 550.817Z" fill="black"/>
<path d="M382.354 195.295C382.354 195.295 384.025 225.184 364.917 227.347C345.809 229.51 268.723 214.697 243.715 257.695C218.708 300.693 235.849 399.995 337.222 371.81C438.595 343.626 457.244 275.097 444.036 241.603C430.828 208.109 382.354 195.295 382.354 195.295Z" fill="#5125FF"/>
<path d="M457.933 315.605H483.792C509.094 315.605 532.201 329.96 543.41 352.639L632.853 533.677H740.945L660.81 609.972C635.508 634.028 594.441 628.555 576.381 598.698L481.793 454.333L457.933 315.605Z" fill="#00FFCC"/>
<path d="M219.036 617.871L281.112 567.072L275.704 551.669L333.257 468.524L376.585 314.786H361.574C333.027 314.786 306.283 328.649 289.797 351.918C289.797 351.918 191.636 482.846 158.73 529.416C104.979 605.482 196.847 641.926 219.036 617.871Z" fill="#00FFCC"/>
<path d="M382.582 314.72H379.731C349.48 314.72 324.767 336.743 324.013 364.338L299.924 524.631H511.585L505.816 360.34C505.816 335.137 483.431 314.72 455.835 314.72H382.582Z" fill="#00FFCC"/>
<path d="M395.267 257.695V314.72C395.267 332.024 409.294 346.051 426.599 346.051C443.905 346.051 457.932 332.024 457.932 314.72V275.228L395.267 257.695Z" fill="#FDD8A9"/>
<path d="M382.354 234.033V195.295C382.354 185.824 390.023 178.122 399.528 178.122H446.986V199.162L382.354 234.033Z" fill="#5125FF"/>
<path d="M468.059 234.032C479.336 234.032 488.478 224.891 488.478 213.615C488.478 202.339 479.336 193.197 468.059 193.197C456.782 193.197 447.641 202.339 447.641 213.615C447.641 224.891 456.782 234.032 468.059 234.032Z" fill="#5125FF"/>
<path d="M433.253 294.597C409.328 294.597 389.925 275.196 389.925 251.271V208.142H476.615V251.239C476.582 275.196 457.179 294.597 433.253 294.597Z" fill="#FDD8A9"/>
<path d="M398.773 247.863C405.543 247.863 411.031 237.694 411.031 225.151C411.031 212.608 405.543 202.439 398.773 202.439C392.004 202.439 386.516 212.608 386.516 225.151C386.516 237.694 392.004 247.863 398.773 247.863Z" fill="#5125FF"/>
<path d="M412.965 228.887C425.708 228.887 436.039 218.557 436.039 205.815C436.039 193.072 425.708 182.743 412.965 182.743C400.222 182.743 389.892 193.072 389.892 205.815C389.892 218.557 400.222 228.887 412.965 228.887Z" fill="#5125FF"/>
<path d="M454.425 216.892C474.408 216.892 490.608 204.112 490.608 188.347C490.608 172.582 474.408 159.802 454.425 159.802C434.441 159.802 418.241 172.582 418.241 188.347C418.241 204.112 434.441 216.892 454.425 216.892Z" fill="#5125FF"/>
<path d="M393.661 257.695C402.06 257.695 408.868 250.901 408.868 242.521C408.868 234.141 402.06 227.347 393.661 227.347C385.262 227.347 378.453 234.141 378.453 242.521C378.453 250.901 385.262 257.695 393.661 257.695Z" fill="#FDD8A9"/>
<path d="M435.384 245.306C437.411 245.306 439.054 243.663 439.054 241.636C439.054 239.609 437.411 237.965 435.384 237.965C433.356 237.965 431.713 239.609 431.713 241.636C431.713 243.663 433.356 245.306 435.384 245.306Z" fill="black"/>
<path d="M465.568 245.306C467.596 245.306 469.239 243.663 469.239 241.636C469.239 239.609 467.596 237.965 465.568 237.965C463.541 237.965 461.897 239.609 461.897 241.636C461.897 243.663 463.541 245.306 465.568 245.306Z" fill="black"/>
<path d="M399.462 248.715C399.134 248.715 398.806 248.617 398.544 248.42L388.023 240.522C387.335 239.998 387.204 239.047 387.728 238.359C388.253 237.671 389.203 237.54 389.892 238.064L400.412 245.962C401.101 246.487 401.232 247.437 400.707 248.125C400.38 248.518 399.921 248.715 399.462 248.715Z" fill="black"/>
<path d="M446.101 271.46C444.233 271.46 442.561 271.001 441.086 270.116C436.596 267.428 435.711 261.693 435.678 261.464C435.547 260.612 436.137 259.858 436.989 259.727C437.842 259.596 438.595 260.186 438.726 261.005C438.726 261.07 439.447 265.56 442.692 267.494C444.659 268.674 447.281 268.674 450.46 267.527C451.247 267.232 452.131 267.658 452.426 268.444C452.721 269.231 452.295 270.116 451.509 270.411C449.542 271.099 447.74 271.46 446.101 271.46Z" fill="black"/>
<path d="M457.932 286.863C457.932 286.863 441.479 297.58 422.601 293.254C422.601 293.254 437.874 302.233 457.932 294.564V286.863Z" fill="black"/>
<path d="M704.073 550.817H346.17C319.524 550.817 297.925 529.219 297.925 502.575C297.925 475.93 319.524 454.333 346.17 454.333H704.073C730.719 454.333 752.317 475.93 752.317 502.575C752.285 529.219 730.719 550.817 704.073 550.817Z" fill="white"/>
<path d="M704.072 552.324H346.169C318.737 552.324 296.417 530.006 296.417 502.575C296.417 475.144 318.737 452.825 346.169 452.825H704.072C731.505 452.825 753.825 475.144 753.825 502.575C753.825 530.006 731.505 552.324 704.072 552.324ZM346.169 455.873C320.408 455.873 299.465 476.815 299.465 502.575C299.465 528.334 320.408 549.276 346.169 549.276H704.072C729.834 549.276 750.777 528.334 750.777 502.575C750.777 476.815 729.834 455.873 704.072 455.873H346.169Z" fill="black"/>
<path d="M263.117 503.066L298.875 490.776L336.599 522.566C336.599 522.566 347.972 534.168 329.355 535.61C329.355 535.61 337.779 553.209 321.489 549.768C324.505 554.553 326.832 564.614 314.05 562.09L295.794 547.441L276.555 559.108L263.117 503.066Z" fill="#FDD8A9"/>
<path d="M321.523 551.276C321.162 551.276 320.835 551.144 320.54 550.915L301.268 534.824C300.612 534.266 300.547 533.316 301.071 532.66C301.628 532.005 302.579 531.939 303.234 532.464L322.506 548.555C323.162 549.113 323.227 550.063 322.703 550.718C322.375 551.112 321.949 551.276 321.523 551.276Z" fill="black"/>
<path d="M329.389 537.151C329.028 537.151 328.668 537.019 328.373 536.757L309.396 520.141C308.773 519.584 308.708 518.601 309.265 517.978C309.822 517.356 310.805 517.29 311.428 517.847L330.405 534.463C331.027 535.02 331.093 536.004 330.536 536.626C330.241 536.954 329.815 537.151 329.389 537.151Z" fill="black"/>
<path d="M370.456 471.637L379.862 490.646L400.871 493.693L385.663 508.507L389.269 529.449L370.456 519.551L351.676 529.449L355.281 508.507L340.073 493.693L361.082 490.646L370.456 471.637Z" fill="#FFCA28"/>
<path d="M447.804 471.637L457.178 490.646L478.186 493.693L462.979 508.507L466.584 529.449L447.804 519.551L428.991 529.449L432.596 508.507L417.389 493.693L438.397 490.646L447.804 471.637Z" fill="#FFCA28"/>
<path d="M525.121 471.637L534.527 490.646L555.503 493.693L540.328 508.507L543.901 529.449L525.121 519.551L506.341 529.449L509.913 508.507L494.738 493.693L515.714 490.646L525.121 471.637Z" fill="#FFCA28"/>
<path d="M602.437 471.637L611.844 490.646L632.852 493.693L617.645 508.507L621.25 529.449L602.437 519.551L583.657 529.449L587.262 508.507L572.055 493.693L593.063 490.646L602.437 471.637Z" fill="#FFCA28"/>
<path d="M679.786 471.637L689.16 490.646L710.169 493.693L694.961 508.507L698.566 529.449L679.786 519.551L660.973 529.449L664.579 508.507L649.371 493.693L670.38 490.646L679.786 471.637Z" fill="#FFCA28"/>
<path d="M337.222 455.873C336.37 455.873 335.682 455.185 335.682 454.333V405.862C335.682 405.01 336.37 404.321 337.222 404.321C338.074 404.321 338.762 405.01 338.762 405.862V454.333C338.762 455.185 338.074 455.873 337.222 455.873Z" fill="black"/>
<path d="M223.165 528.171C222.641 528.171 222.116 527.909 221.854 527.417C221.428 526.696 221.657 525.746 222.411 525.32L262.364 501.756C263.085 501.33 264.035 501.559 264.462 502.313C264.888 503.034 264.658 503.984 263.904 504.411L223.952 527.974C223.689 528.105 223.427 528.171 223.165 528.171Z" fill="black"/>
<path d="M760.871 482.518C759.495 479.995 756.873 478.356 753.989 478.258L709.316 476.488C709.316 476.488 693.093 477.405 705.875 491.006C705.875 491.006 687.816 498.315 702.139 506.77C696.698 508.278 688.209 514.144 699.32 520.895L722.689 522.37L726.589 535.61C728.129 540.887 734.619 542.82 738.814 539.248L749.302 530.268C764.903 519.683 769.885 499.036 760.871 482.518Z" fill="#FDD8A9"/>
<path d="M727.278 509.392C727.245 509.392 727.245 509.392 727.212 509.392L702.139 508.31C701.287 508.278 700.631 507.557 700.664 506.704C700.697 505.852 701.418 505.197 702.27 505.23L727.343 506.311C728.195 506.344 728.851 507.065 728.818 507.917C728.752 508.736 728.097 509.392 727.278 509.392Z" fill="black"/>
<path d="M731.112 493.038L705.875 492.546C705.023 492.514 704.367 491.825 704.367 490.973C704.4 490.121 705.088 489.466 705.94 489.466L731.144 489.957C731.996 489.99 732.652 490.678 732.652 491.531C732.652 492.383 731.964 493.038 731.112 493.038Z" fill="black"/>
<path d="M393.464 775.345C393.366 775.345 393.268 775.345 393.137 775.312C392.317 775.148 391.76 774.329 391.957 773.51L417.259 651.201C417.423 650.381 418.242 649.824 419.062 650.021C419.881 650.185 420.438 651.004 420.241 651.823L394.939 774.132C394.808 774.821 394.185 775.345 393.464 775.345Z" fill="black"/>
<path d="M511.585 455.873C510.733 455.873 510.045 455.185 510.045 454.333V412.416C510.045 411.564 510.733 410.876 511.585 410.876C512.438 410.876 513.126 411.564 513.126 412.416V454.333C513.126 455.185 512.438 455.873 511.585 455.873Z" fill="black"/>
<path d="M329.389 603.483C328.865 603.483 328.373 603.221 328.078 602.762C327.619 602.041 327.849 601.091 328.57 600.665C332.929 597.944 371.439 574.151 376.192 573.004C377.011 572.808 377.831 573.299 378.06 574.118C378.257 574.938 377.765 575.757 376.946 575.987C373.701 576.773 347.219 592.766 330.208 603.286C329.946 603.418 329.651 603.483 329.389 603.483Z" fill="white"/>
<path d="M175.15 1036.41C174.888 1036.41 174.626 1036.35 174.396 1036.22C173.675 1035.79 173.413 1034.84 173.839 1034.12L310.445 798.876L351.48 587.293C351.643 586.474 352.43 585.917 353.282 586.081C354.102 586.245 354.659 587.031 354.495 587.883L313.395 799.695C313.362 799.859 313.297 800.023 313.231 800.187L176.494 1035.66C176.199 1036.15 175.674 1036.41 175.15 1036.41Z" fill="white"/>
<path d="M508.602 614.888C508.274 614.888 507.947 614.79 507.684 614.56L457.014 575.659C456.326 575.134 456.228 574.184 456.719 573.496C457.244 572.808 458.194 572.709 458.883 573.201L509.553 612.102C510.241 612.627 510.339 613.577 509.848 614.265C509.52 614.691 509.061 614.888 508.602 614.888Z" fill="white"/>
<path d="M500.573 1135.59C499.754 1135.59 499.066 1134.93 499.033 1134.11L481.728 593.946C481.695 593.094 482.35 592.406 483.203 592.373C484.055 592.34 484.743 592.996 484.776 593.848L502.081 1134.01C502.114 1134.87 501.458 1135.55 500.606 1135.59C500.606 1135.59 500.606 1135.59 500.573 1135.59Z" fill="white"/>
<path d="M1077.25 540.395C1042.15 540.395 1013.7 568.842 1013.7 603.942C1013.7 627.473 1026.48 648.022 1045.52 659.001L1033.53 686.301L1077.25 667.456C1112.35 667.456 1140.8 639.009 1140.8 603.909C1140.8 568.842 1112.35 540.395 1077.25 540.395Z" fill="#00FFCC"/>
<path d="M1108.75 591.947C1103.08 579.526 1089.28 576.117 1077.22 585.196C1065.15 576.117 1051.36 579.526 1045.69 591.947C1040.02 604.401 1044.93 619.378 1056.7 625.375L1077.18 635.83L1097.67 625.375C1109.5 619.378 1114.45 604.401 1108.75 591.947Z" fill="black"/>
<path d="M869.651 362.077C911.646 362.077 945.689 328.035 945.689 286.043C945.689 244.051 911.646 210.01 869.651 210.01C827.657 210.01 793.613 244.051 793.613 286.043C793.613 328.035 827.657 362.077 869.651 362.077Z" fill="black"/>
<path d="M869.651 298.825C891.316 298.825 910.554 309.181 922.714 325.207C931.17 314.064 936.184 300.168 936.184 285.093C936.184 248.354 906.392 218.596 869.684 218.596C832.976 218.596 803.184 248.387 803.184 285.093C803.184 300.168 808.198 314.064 816.654 325.207C828.748 309.181 847.987 298.825 869.651 298.825Z" fill="white"/>
<path d="M869.652 289.845C884.133 289.845 895.872 278.107 895.872 263.627C895.872 249.147 884.133 237.408 869.652 237.408C855.171 237.408 843.432 249.147 843.432 263.627C843.432 278.107 855.171 289.845 869.652 289.845Z" fill="black"/>
<path d="M747.729 195.295H517.976C509.323 195.295 502.31 202.308 502.31 210.96V237.67C502.31 246.323 509.323 253.336 517.976 253.336H602.142L647.863 294.597V253.336H747.696C756.349 253.336 763.362 246.323 763.362 237.67V210.96C763.395 202.308 756.381 195.295 747.729 195.295Z" fill="#5125FF"/>
<path d="M727.212 219.186H538.46C537.608 219.186 536.92 218.498 536.92 217.646C536.92 216.794 537.608 216.105 538.46 216.105H727.212C728.064 216.105 728.752 216.794 728.752 217.646C728.752 218.498 728.064 219.186 727.212 219.186Z" fill="white"/>
<path d="M727.212 234.163H538.46C537.608 234.163 536.92 233.475 536.92 232.623C536.92 231.771 537.608 231.083 538.46 231.083H727.212C728.064 231.083 728.752 231.771 728.752 232.623C728.752 233.475 728.064 234.163 727.212 234.163Z" fill="white"/>
</g>
<defs>
<clipPath id="clip0_706_561">
<rect width="1311" height="823" fill="white"/>
</clipPath>
</defs>
</svg>
