<svg width="119" height="119" viewBox="0 0 119 119" fill="none" xmlns="http://www.w3.org/2000/svg">
<path d="M7.78652 40.0823C8.29991 40.2152 8.72305 40.4223 9.05594 40.7036C9.38723 40.9845 9.61563 41.3123 9.74116 41.6872C9.86549 42.06 9.87388 42.4542 9.76634 42.8697C9.6588 43.2852 9.46003 43.6266 9.17003 43.8939C8.87884 44.1592 8.52026 44.3343 8.0943 44.4192C7.66716 44.5021 7.19689 44.4771 6.6835 44.3442C6.17011 44.2114 5.74757 44.0053 5.41586 43.726C5.08297 43.4447 4.85456 43.1168 4.73065 42.7424C4.60513 42.3676 4.59593 41.9732 4.70305 41.5593C4.81059 41.1437 5.00996 40.8033 5.30115 40.5381C5.59115 40.2708 5.94994 40.0949 6.3775 40.0104C6.80346 39.9255 7.27313 39.9494 7.78652 40.0823ZM7.67316 40.5203C7.23197 40.4061 6.83505 40.3821 6.4824 40.4484C6.12815 40.5142 5.83458 40.653 5.60171 40.8649C5.36884 41.0768 5.21047 41.3448 5.1266 41.6689C5.04314 41.9914 5.05183 42.3017 5.15266 42.6C5.25349 42.8983 5.44182 43.1627 5.71766 43.3933C5.99391 43.6223 6.35343 43.7941 6.79623 43.9087C7.23742 44.0228 7.63434 44.0468 7.98699 43.9806C8.33964 43.9144 8.63321 43.7755 8.86768 43.564C9.10055 43.3521 9.25892 43.0842 9.3428 42.7601C9.42667 42.436 9.41819 42.1248 9.31736 41.8266C9.21694 41.5267 9.02861 41.2622 8.75236 41.0333C8.4745 40.8039 8.11477 40.6329 7.67316 40.5203Z" fill="white"/>
<path d="M10.4715 29.0204L10.6823 28.6061L13.6863 30.1351C13.995 30.2922 14.2344 30.5051 14.4044 30.7739C14.5729 31.0419 14.6616 31.3409 14.6703 31.6707C14.6783 31.9984 14.5955 32.3328 14.4219 32.674C14.249 33.0136 14.0266 33.277 13.7548 33.464C13.4829 33.6511 13.189 33.7553 12.8732 33.7768C12.5573 33.7982 12.245 33.7304 11.9363 33.5733L8.93233 32.0443L9.14319 31.63L12.1184 33.1444C12.3591 33.2669 12.6014 33.3224 12.8454 33.3108C13.0878 33.2984 13.3125 33.2222 13.5196 33.0822C13.7274 32.9406 13.8982 32.7384 14.032 32.4755C14.1658 32.2126 14.2288 31.9555 14.2209 31.7042C14.2131 31.4529 14.1425 31.2264 14.009 31.0245C13.8749 30.8205 13.6874 30.6572 13.4467 30.5347L10.4715 29.0204Z" fill="white"/>
<path d="M19.2825 25.8136L15.3006 22.6416L16.3244 21.3564C16.5495 21.0739 16.7886 20.8787 17.0417 20.7711C17.2946 20.6611 17.5494 20.6299 17.8059 20.6775C18.0623 20.7228 18.3064 20.8378 18.5384 21.0226C18.7705 21.2075 18.9365 21.4192 19.0367 21.6579C19.1379 21.8953 19.163 22.1483 19.112 22.4171C19.0611 22.6858 18.9241 22.9602 18.7011 23.2402L17.8291 24.3348L17.4966 24.07L18.3608 22.985C18.526 22.7777 18.629 22.5779 18.6698 22.3858C18.7116 22.1924 18.6958 22.0114 18.6225 21.8428C18.5501 21.6729 18.4272 21.5187 18.2535 21.3804C18.0798 21.242 17.9008 21.1556 17.7164 21.121C17.5308 21.0854 17.3471 21.1086 17.1653 21.1905C16.9845 21.2711 16.8105 21.4164 16.6433 21.6264L15.9169 22.5382L19.5721 25.45L19.2825 25.8136ZM18.8846 22.6268L21.4617 23.078L21.1272 23.498L18.5578 23.0371L18.8846 22.6268Z" fill="white"/>
<path d="M28.828 16.9308L25.7586 12.8692L27.0695 11.8786C27.3578 11.6608 27.6404 11.5345 27.9173 11.4996C28.1946 11.4625 28.4536 11.5015 28.6943 11.6166C28.9363 11.7308 29.1468 11.9062 29.3256 12.1428C29.5045 12.3795 29.6169 12.63 29.663 12.8943C29.708 13.1573 29.676 13.4173 29.5669 13.6742C29.4568 13.9298 29.2583 14.166 28.9714 14.3828L27.9401 15.1622L27.6883 14.829L28.7097 14.0571C28.9225 13.8963 29.069 13.7232 29.1492 13.538C29.2284 13.3514 29.25 13.1628 29.2138 12.972C29.179 12.7802 29.0946 12.5957 28.9607 12.4186C28.8268 12.2414 28.6724 12.1099 28.4974 12.024C28.3238 11.9372 28.1362 11.9075 27.9348 11.9351C27.7347 11.9617 27.5269 12.0564 27.3114 12.2193L26.3813 12.9222L29.1989 16.6506L28.828 16.9308Z" fill="white"/>
<path d="M37.0884 12.0645L34.8129 7.51046L36.2827 6.776C36.6058 6.61451 36.9049 6.53825 37.1799 6.54721C37.4556 6.55395 37.6997 6.63294 37.9124 6.78418C38.1258 6.9332 38.2988 7.14039 38.4314 7.40574C38.564 7.67109 38.6254 7.9331 38.6157 8.19174C38.6075 8.44965 38.5237 8.68976 38.3643 8.91205C38.2049 9.13435 37.9651 9.3255 37.6449 9.4855L36.393 10.1111L36.203 9.73083L37.4438 9.11082C37.681 8.9923 37.8585 8.85449 37.9764 8.6974C38.0958 8.53957 38.1577 8.36876 38.1622 8.18496C38.1682 8.00042 38.1215 7.80883 38.0223 7.61019C37.923 7.41154 37.797 7.25773 37.6444 7.14875C37.491 7.03828 37.3146 6.98191 37.1153 6.97964C36.9174 6.97663 36.6984 7.03512 36.4582 7.15512L35.4153 7.67625L37.5043 11.8567L37.0884 12.0645ZM38.0697 9.00647L40.2171 10.5011L39.7368 10.7411L37.6005 9.24092L38.0697 9.00647Z" fill="white"/>
<path d="M50.0909 5.09926C50.2296 5.6111 50.2592 6.08127 50.1796 6.50977C50.0995 6.93667 49.9277 7.29743 49.6642 7.59205C49.4018 7.88465 49.0634 8.08708 48.6492 8.19934C48.2349 8.31161 47.8399 8.30792 47.464 8.18827C47.0894 8.0666 46.7597 7.84172 46.4751 7.51365C46.1916 7.18355 45.9805 6.76258 45.8418 6.25074C45.7031 5.7389 45.673 5.26974 45.7515 4.84328C45.8311 4.41478 46.0029 4.05402 46.2669 3.76099C46.5304 3.46636 46.8685 3.26314 47.2812 3.1513C47.6955 3.03904 48.0899 3.04375 48.4646 3.16542C48.8404 3.28507 49.1708 3.50973 49.4559 3.83939C49.7405 4.16746 49.9522 4.58742 50.0909 5.09926ZM49.6543 5.21759C49.5351 4.77773 49.3594 4.42099 49.1273 4.14736C48.8947 3.87214 48.6288 3.68581 48.3294 3.58838C48.03 3.49095 47.7187 3.48602 47.3956 3.57357C47.0741 3.6607 46.8088 3.82189 46.5995 4.05716C46.3903 4.29243 46.2537 4.58697 46.19 4.94079C46.1278 5.29417 46.1565 5.69159 46.2761 6.13305C46.3953 6.57292 46.571 6.92966 46.8031 7.20329C47.0352 7.47691 47.3012 7.66324 47.601 7.76227C47.9004 7.8597 48.2116 7.86463 48.5347 7.77707C48.8578 7.68952 49.124 7.5281 49.3333 7.29283C49.5441 7.05713 49.6806 6.76259 49.7428 6.40921C49.8046 6.05423 49.7751 5.65702 49.6543 5.21759Z" fill="white"/>
<path d="M58.1359 1.98757L58.5995 1.95353L58.8684 5.6152C58.891 5.94587 58.8518 6.22625 58.7507 6.45633C58.6495 6.68476 58.4996 6.8611 58.301 6.98535C58.1024 7.1096 57.8692 7.18156 57.6015 7.20122C57.3387 7.22051 57.1004 7.18899 56.8867 7.10665C56.6729 7.0243 56.5001 6.89908 56.3681 6.73097C56.2378 6.56274 56.1638 6.35963 56.1464 6.12164L56.6025 6.08814C56.6136 6.23854 56.663 6.36868 56.7508 6.47854C56.8385 6.58676 56.9534 6.66806 57.0953 6.72244C57.2388 6.77671 57.3974 6.79747 57.5709 6.78472C57.7511 6.7715 57.9061 6.7219 58.0361 6.63592C58.1676 6.54982 58.2665 6.42541 58.3327 6.2627C58.3987 6.09833 58.4227 5.89384 58.4048 5.64924L58.1359 1.98757Z" fill="white"/>
<path d="M64.9373 7.46085L65.4077 2.39173L68.3482 2.66465L68.3096 3.08047L65.832 2.85051L65.6549 4.75886L67.9766 4.97435L67.938 5.39017L65.6163 5.17469L65.4387 7.08798L67.9658 7.32254L67.9272 7.73836L64.9373 7.46085Z" fill="white"/>
<path d="M79.1615 7.11029L78.7119 6.98293C78.7258 6.80603 78.709 6.63421 78.6615 6.46746C78.6161 6.29957 78.5431 6.14369 78.4426 5.99983C78.3421 5.85597 78.2173 5.73105 78.0682 5.62509C77.9191 5.51913 77.7481 5.43882 77.5551 5.38418C77.2458 5.29656 76.9408 5.29715 76.64 5.38593C76.3409 5.47516 76.0705 5.65436 75.829 5.92352C75.5894 6.19154 75.4057 6.55117 75.2779 7.0024C75.1492 7.45683 75.1166 7.86095 75.18 8.21478C75.245 8.56906 75.3814 8.86262 75.5893 9.09547C75.7993 9.32718 76.0589 9.48684 76.3683 9.57445C76.5612 9.6291 76.7489 9.65041 76.9315 9.63838C77.114 9.62635 77.2855 9.58624 77.4461 9.51803C77.6071 9.44824 77.751 9.35378 77.8777 9.23467C78.0061 9.116 78.1107 8.9777 78.1916 8.81977L78.6412 8.94712C78.5377 9.16065 78.4034 9.3491 78.2383 9.51246C78.0752 9.67469 77.8886 9.80441 77.6785 9.90163C77.47 9.99931 77.245 10.0579 77.0035 10.0773C76.762 10.0968 76.5105 10.0695 76.249 9.99539C75.8377 9.87887 75.5017 9.67261 75.241 9.3766C74.9808 9.07899 74.8132 8.7163 74.738 8.28852C74.6644 7.86119 74.7001 7.39161 74.845 6.87979C74.99 6.36796 75.2059 5.94942 75.4926 5.62416C75.781 5.29935 76.1137 5.07926 76.4909 4.9639C76.8685 4.84694 77.263 4.84672 77.6743 4.96324C77.9358 5.0373 78.1643 5.14593 78.3597 5.28912C78.5556 5.43071 78.7164 5.59857 78.8423 5.79268C78.9702 5.98565 79.0611 6.19395 79.1148 6.41759C79.1702 6.64169 79.1858 6.87259 79.1615 7.11029Z" fill="white"/>
<path d="M85.4045 8.88226L85.5925 8.50938L88.8885 10.1716L88.7004 10.5445L87.26 9.81805L85.1556 13.9907L84.7405 13.7814L86.8449 9.60873L85.4045 8.88226Z" fill="white"/>
<path d="M96.171 17.1411C96.3203 16.8986 96.3573 16.6434 96.282 16.3758C96.2067 16.1081 96.0353 15.8723 95.7676 15.6685C95.5791 15.5249 95.3884 15.4307 95.1955 15.3859C95.0039 15.3421 94.8235 15.3464 94.6544 15.3989C94.4877 15.451 94.3491 15.5496 94.2386 15.6946C94.1573 15.8014 94.1091 15.9126 94.094 16.0282C94.0789 16.1437 94.0882 16.2602 94.1218 16.3774C94.1577 16.4943 94.2076 16.6094 94.2714 16.7225C94.3365 16.8367 94.4073 16.9448 94.4838 17.0467L94.8176 17.4946C94.9197 17.6286 95.0143 17.7725 95.1014 17.9263C95.1884 18.08 95.2532 18.2398 95.2957 18.4055C95.3406 18.5709 95.3492 18.7388 95.3214 18.9093C95.296 19.0795 95.219 19.2489 95.0905 19.4177C94.9258 19.6339 94.7217 19.7857 94.4781 19.8731C94.2345 19.9605 93.9693 19.9752 93.6823 19.917C93.3964 19.8576 93.1071 19.7165 92.8144 19.4936C92.5388 19.2838 92.3342 19.0561 92.2004 18.8105C92.0676 18.5636 92.005 18.3149 92.0124 18.0643C92.0199 17.8138 92.0977 17.5762 92.2458 17.3516L92.6255 17.6407C92.5172 17.8103 92.4671 17.9856 92.475 18.1667C92.483 18.3477 92.5387 18.5234 92.6422 18.6939C92.7467 18.863 92.8899 19.0169 93.0719 19.1554C93.2736 19.309 93.4785 19.4119 93.6866 19.4642C93.8971 19.5161 94.0933 19.5155 94.2753 19.4625C94.4596 19.4091 94.6136 19.3014 94.737 19.1392C94.8415 19.0021 94.8932 18.8603 94.8923 18.7138C94.8924 18.5659 94.8526 18.4117 94.7729 18.251C94.6945 18.0914 94.5901 17.9234 94.4598 17.7471L94.0837 17.2357C93.8382 16.8989 93.6916 16.5799 93.6437 16.279C93.5959 15.978 93.6708 15.6976 93.8686 15.4379C94.0343 15.2203 94.2379 15.0733 94.4794 14.9969C94.7232 14.9201 94.9798 14.9114 95.2492 14.9707C95.5209 15.0297 95.7813 15.154 96.0305 15.3438C96.2823 15.5355 96.47 15.7513 96.5936 15.9912C96.7171 16.2311 96.7738 16.4753 96.7637 16.7238C96.7559 16.972 96.6777 17.202 96.529 17.4137L96.171 17.1411Z" fill="white"/>
<path d="M102.889 26.6123L102.568 26.8796L101.213 25.2522L101.534 24.985L102.889 26.6123Z" fill="white"/>
<path d="M112.933 48.1698C112.427 48.3278 111.958 48.3751 111.527 48.3118C111.097 48.248 110.73 48.0899 110.426 47.8377C110.124 47.5866 109.909 47.2562 109.781 46.8464C109.653 46.4367 109.642 46.0418 109.747 45.6617C109.854 45.2828 110.067 44.9448 110.384 44.648C110.703 44.3522 111.115 44.1253 111.622 43.9674C112.128 43.8094 112.596 43.7615 113.025 43.8238C113.456 43.8871 113.823 44.0452 114.126 44.2979C114.43 44.5501 114.646 44.8803 114.773 45.2884C114.901 45.6981 114.911 46.0925 114.804 46.4715C114.699 46.8515 114.487 47.1903 114.168 47.4876C113.851 47.7844 113.439 48.0119 112.933 48.1698ZM112.798 47.738C113.233 47.6022 113.583 47.4132 113.848 47.1709C114.114 46.9281 114.29 46.6552 114.376 46.3524C114.462 46.0495 114.455 45.7383 114.356 45.4187C114.256 45.1008 114.085 44.8417 113.842 44.6415C113.599 44.4413 113.3 44.316 112.944 44.2657C112.588 44.2169 112.192 44.2606 111.756 44.3969C111.321 44.5326 110.971 44.7217 110.706 44.964C110.442 45.2063 110.265 45.4791 110.178 45.7825C110.092 46.0853 110.099 46.3966 110.198 46.7161C110.298 47.0357 110.469 47.2955 110.712 47.4957C110.956 47.6975 111.255 47.8228 111.611 47.8716C111.968 47.9198 112.364 47.8753 112.798 47.738Z" fill="white"/>
<path d="M116.501 59.0873L116.54 59.5505L113.182 59.8362C112.837 59.8655 112.521 59.8109 112.235 59.6722C111.95 59.5334 111.717 59.3262 111.536 59.0506C111.356 58.7765 111.25 58.4487 111.218 58.0673C111.185 57.6875 111.235 57.3465 111.367 57.0441C111.5 56.7418 111.694 56.4983 111.951 56.3134C112.209 56.1285 112.51 56.0214 112.855 55.9921L116.213 55.7064L116.253 56.1696L112.926 56.4525C112.657 56.4754 112.422 56.5561 112.221 56.6946C112.021 56.833 111.871 57.0163 111.769 57.2445C111.667 57.4744 111.628 57.7363 111.653 58.0302C111.678 58.3241 111.761 58.5758 111.9 58.7851C112.039 58.9945 112.219 59.1497 112.438 59.2507C112.66 59.3533 112.905 59.3931 113.174 59.3703L116.501 59.0873Z" fill="white"/>
<path d="M110.708 66.4983L115.765 67.0856L115.576 68.7178C115.534 69.0766 115.434 69.3687 115.276 69.5939C115.12 69.821 114.92 69.9821 114.677 70.0774C114.436 70.1745 114.168 70.2059 113.873 70.1717C113.578 70.1374 113.325 70.0455 113.114 69.8958C112.903 69.7478 112.748 69.5463 112.649 69.2912C112.55 69.0362 112.521 68.7309 112.563 68.3753L112.724 66.9851L113.146 67.0342L112.986 68.412C112.956 68.6754 112.974 68.8994 113.041 69.084C113.108 69.2703 113.217 69.4156 113.368 69.5199C113.519 69.6259 113.705 69.6917 113.926 69.7173C114.146 69.7429 114.344 69.7217 114.519 69.6536C114.695 69.5856 114.839 69.4689 114.95 69.3032C115.061 69.1393 115.131 68.9239 115.162 68.6573L115.297 67.4992L110.655 66.96L110.708 66.4983ZM112.731 68.993L110.305 69.9725L110.367 69.4391L112.792 68.472L112.731 68.993Z" fill="white"/>
<path d="M107.148 79.3777L111.887 81.2374L111.286 82.767C111.154 83.1033 110.98 83.3586 110.762 83.533C110.545 83.7095 110.303 83.8116 110.038 83.8392C109.772 83.8683 109.501 83.8287 109.225 83.7203C108.949 83.612 108.722 83.4571 108.544 83.2558C108.369 83.055 108.26 82.8166 108.219 82.5406C108.179 82.2651 108.225 81.96 108.357 81.6252L108.829 80.4219L109.217 80.5745L108.75 81.7662C108.652 82.0146 108.618 82.2387 108.646 82.4385C108.676 82.639 108.756 82.8111 108.887 82.9549C109.017 83.1002 109.185 83.2134 109.392 83.2945C109.598 83.3757 109.799 83.4071 109.993 83.3889C110.186 83.3723 110.362 83.2996 110.519 83.1708C110.676 83.0436 110.804 82.8543 110.902 82.6029L111.328 81.5176L106.978 79.8104L107.148 79.3777Z" fill="white"/>
<path d="M102.723 87.6645L107.048 90.3499L106.181 91.7458C105.99 92.0527 105.776 92.2744 105.537 92.4109C105.298 92.5497 105.049 92.6104 104.789 92.5931C104.529 92.5781 104.273 92.4923 104.021 92.3358C103.769 92.1794 103.579 91.9884 103.452 91.7631C103.324 91.5392 103.269 91.2907 103.288 91.0179C103.308 90.745 103.412 90.4565 103.601 90.1524L104.339 88.9635L104.7 89.1877L103.968 90.3661C103.828 90.5914 103.749 90.8018 103.731 90.9973C103.712 91.1943 103.749 91.3722 103.842 91.5311C103.933 91.6914 104.074 91.8301 104.262 91.9473C104.451 92.0644 104.639 92.1294 104.826 92.1422C105.014 92.1558 105.194 92.1114 105.365 92.0088C105.535 91.9077 105.691 91.743 105.833 91.515L106.448 90.5245L102.477 88.0594L102.723 87.6645ZM103.49 90.783L100.878 90.6358L101.161 90.1797L103.767 90.3374L103.49 90.783Z" fill="white"/>
<path d="M95.0644 100.633C94.6787 100.269 94.4078 99.884 94.2518 99.4771C94.097 99.0713 94.0549 98.6739 94.1257 98.285C94.1965 97.8984 94.3792 97.549 94.6737 97.2368C94.9683 96.9246 95.307 96.7214 95.69 96.627C96.073 96.535 96.4716 96.5544 96.8857 96.6854C97.2999 96.8188 97.6998 97.0674 98.0855 97.4313C98.4713 97.7952 98.7421 98.1795 98.8981 98.5841C99.0541 98.991 99.0961 99.3884 99.0242 99.7762C98.9534 100.165 98.7713 100.515 98.4779 100.826C98.1833 101.138 97.8446 101.34 97.4616 101.432C97.0786 101.527 96.6795 101.508 96.2641 101.376C95.85 101.245 95.4501 100.997 95.0644 100.633ZM95.3749 100.304C95.7063 100.617 96.0425 100.829 96.3834 100.941C96.7255 101.055 97.0496 101.074 97.3558 101.001C97.662 100.928 97.93 100.769 98.1597 100.526C98.3883 100.284 98.5303 100.007 98.5858 99.6975C98.6412 99.3876 98.6037 99.0651 98.4732 98.7301C98.3416 98.3963 98.1094 98.0724 97.7768 97.7586C97.4453 97.4458 97.1091 97.2334 96.7682 97.1214C96.4273 97.0094 96.1032 96.9895 95.7958 97.0618C95.4896 97.1352 95.2217 97.2936 94.992 97.5371C94.7622 97.7806 94.6196 98.0573 94.5642 98.3672C94.5076 98.6783 94.5451 99.0008 94.6767 99.3346C94.8095 99.6695 95.0422 99.9928 95.3749 100.304Z" fill="white"/>
<path d="M89.8206 107.474L89.4437 107.746L87.2948 104.769C87.1021 104.499 86.9885 104.24 86.9539 103.991C86.9203 103.743 86.9555 103.514 87.0594 103.304C87.1634 103.095 87.3242 102.911 87.5419 102.754C87.7555 102.6 87.9749 102.502 88.2001 102.46C88.4253 102.418 88.6382 102.434 88.8387 102.508C89.0379 102.582 89.2073 102.717 89.347 102.91L88.9761 103.178C88.8879 103.056 88.7775 102.971 88.6452 102.923C88.5137 102.877 88.3733 102.868 88.224 102.896C88.0733 102.925 87.9274 102.991 87.7863 103.093C87.6398 103.198 87.5338 103.322 87.4683 103.463C87.4014 103.605 87.3824 103.763 87.4114 103.936C87.4414 104.111 87.5281 104.298 87.6717 104.497L89.8206 107.474Z" fill="white"/>
<path d="M81.3728 106.224L83.6484 110.778L81.0067 112.098L80.82 111.724L83.0459 110.612L82.1892 108.898L80.1034 109.94L79.9168 109.566L82.0025 108.524L81.1436 106.805L78.8733 107.94L78.6866 107.566L81.3728 106.224Z" fill="white"/>
<path d="M69.5531 113.944L70.0022 113.815C70.0837 113.972 70.1886 114.109 70.317 114.226C70.4442 114.345 70.5884 114.438 70.7497 114.508C70.9109 114.577 71.0829 114.617 71.2654 114.628C71.448 114.64 71.6357 114.618 71.8284 114.562C72.1374 114.474 72.3962 114.312 72.6048 114.078C72.8118 113.844 72.947 113.55 73.0102 113.193C73.0722 112.839 73.0385 112.437 72.909 111.986C72.7786 111.532 72.5931 111.172 72.3525 110.905C72.1104 110.638 71.8395 110.461 71.5401 110.373C71.2395 110.286 70.9347 110.288 70.6257 110.377C70.433 110.432 70.2622 110.513 70.1135 110.619C69.9648 110.726 69.8403 110.851 69.7399 110.993C69.6399 111.137 69.5675 111.294 69.5227 111.462C69.4763 111.63 69.4604 111.803 69.475 111.98L69.0258 112.109C69.0011 111.873 69.0158 111.642 69.0699 111.416C69.1228 111.192 69.2129 110.983 69.3401 110.79C69.4656 110.597 69.6259 110.429 69.8207 110.285C70.0156 110.141 70.2436 110.031 70.5049 109.956C70.9158 109.838 71.31 109.836 71.6876 109.95C72.0657 110.065 72.3995 110.285 72.6891 110.609C72.9771 110.933 73.1945 111.351 73.3414 111.862C73.4883 112.373 73.5258 112.843 73.4538 113.27C73.3802 113.698 73.2137 114.061 72.9542 114.358C72.6951 114.656 72.3601 114.865 71.9492 114.983C71.688 115.058 71.4366 115.086 71.1951 115.068C70.954 115.051 70.7288 114.993 70.5194 114.895C70.309 114.798 70.1219 114.669 69.9582 114.507C69.7929 114.346 69.6579 114.158 69.5531 113.944Z" fill="white"/>
<path d="M63.199 115.701L63.236 116.117L59.5591 116.444L59.5221 116.028L61.129 115.885L60.715 111.231L61.1781 111.189L61.592 115.844L63.199 115.701Z" fill="white"/>
<path d="M49.6845 114.318C49.6852 114.603 49.7881 114.839 49.993 115.027C50.1979 115.215 50.4678 115.325 50.8027 115.357C51.0385 115.38 51.2503 115.36 51.4379 115.297C51.6239 115.233 51.7749 115.134 51.8911 115.001C52.0054 114.869 52.0713 114.712 52.0889 114.53C52.1018 114.397 52.0843 114.277 52.0362 114.171C51.9882 114.064 51.9191 113.97 51.8288 113.888C51.7367 113.808 51.6337 113.736 51.5199 113.674C51.4044 113.611 51.2873 113.556 51.1686 113.51L50.649 113.305C50.4917 113.245 50.3355 113.172 50.1806 113.087C50.0256 113.002 49.8864 112.901 49.763 112.782C49.6378 112.665 49.5421 112.527 49.476 112.367C49.408 112.209 49.3843 112.025 49.4047 111.813C49.4308 111.543 49.5245 111.306 49.6856 111.104C49.8467 110.901 50.0645 110.749 50.3391 110.648C50.6135 110.548 50.9337 110.515 51.2999 110.551C51.6447 110.584 51.9386 110.67 52.1816 110.808C52.4244 110.948 52.6086 111.127 52.7342 111.344C52.8597 111.561 52.9186 111.804 52.9109 112.073L52.4359 112.027C52.4387 111.825 52.3891 111.65 52.287 111.5C52.1849 111.35 52.045 111.23 51.8673 111.14C51.6894 111.051 51.4867 110.996 51.259 110.974C51.0066 110.949 50.7782 110.97 50.5738 111.035C50.3676 111.101 50.201 111.205 50.0742 111.346C49.9456 111.489 49.8714 111.661 49.8518 111.864C49.8352 112.036 49.8659 112.183 49.9438 112.308C50.0215 112.433 50.1366 112.543 50.2889 112.638C50.4396 112.733 50.6168 112.82 50.8203 112.902L51.4093 113.139C51.7954 113.296 52.0879 113.49 52.2871 113.72C52.4862 113.951 52.5701 114.229 52.5386 114.554C52.5123 114.826 52.4166 115.058 52.2515 115.25C52.0846 115.444 51.871 115.587 51.6108 115.678C51.3487 115.771 51.0618 115.802 50.7501 115.772C50.435 115.742 50.1618 115.657 49.9305 115.518C49.6992 115.379 49.5224 115.201 49.4002 114.985C49.2762 114.77 49.2216 114.533 49.2366 114.275L49.6845 114.318Z" fill="white"/>
<path d="M38.9665 109.748L39.0999 109.352L41.1068 110.029L40.9734 110.424L38.9665 109.748Z" fill="white"/>
<path d="M22.0204 99.4526C22.3386 99.0284 22.6911 98.7158 23.0779 98.515C23.4637 98.3154 23.8538 98.2289 24.2482 98.2555C24.6403 98.2823 25.008 98.4245 25.3514 98.682C25.6948 98.9395 25.9349 99.2532 26.0718 99.6231C26.2064 99.9933 26.2319 100.392 26.1484 100.818C26.0625 101.244 25.8605 101.67 25.5423 102.094C25.2242 102.518 24.8728 102.831 24.4884 103.031C24.1016 103.232 23.7115 103.319 23.3181 103.291C22.9236 103.264 22.5554 103.123 22.2134 102.866C21.87 102.609 21.631 102.295 21.4965 101.925C21.3596 101.555 21.3334 101.156 21.4179 100.728C21.5014 100.302 21.7023 99.8769 22.0204 99.4526ZM22.3824 99.7241C22.1089 100.089 21.9358 100.447 21.8629 100.798C21.7889 101.151 21.8057 101.475 21.9131 101.771C22.0205 102.067 22.2081 102.315 22.4759 102.516C22.7423 102.716 23.0327 102.826 23.3469 102.846C23.6611 102.866 23.9773 102.793 24.2955 102.625C24.6123 102.457 24.908 102.19 25.1824 101.824C25.4558 101.459 25.629 101.102 25.7019 100.75C25.7748 100.399 25.7581 100.075 25.6517 99.7772C25.5443 99.4813 25.3567 99.2329 25.0889 99.032C24.8211 98.8312 24.5301 98.7206 24.2159 98.7004C23.9004 98.6792 23.5842 98.7528 23.2673 98.9212C22.9495 99.0909 22.6545 99.3585 22.3824 99.7241Z" fill="white"/>
<path d="M12.6915 92.6192L12.3888 92.2664L14.9471 90.0716C15.21 89.8461 15.4981 89.7059 15.8114 89.6511C16.1234 89.5974 16.4335 89.6294 16.7419 89.747C17.0479 89.8644 17.3255 90.0684 17.5747 90.3589C17.8229 90.6482 17.9817 90.9542 18.051 91.2768C18.1204 91.5994 18.1048 91.9108 18.0042 92.211C17.9037 92.5113 17.722 92.7741 17.4592 92.9997L14.9009 95.1944L14.5982 94.8416L17.132 92.6679C17.337 92.492 17.4806 92.2891 17.5628 92.0592C17.6438 91.8303 17.6589 91.5935 17.6083 91.3487C17.5566 91.1026 17.4348 90.8677 17.2427 90.6438C17.0506 90.4199 16.8369 90.2637 16.6016 90.1752C16.3663 90.0867 16.1299 90.0657 15.8924 90.1122C15.6527 90.1585 15.4303 90.2696 15.2253 90.4454L12.6915 92.6192Z" fill="white"/>
<path d="M13.1844 83.4222L8.74501 85.914L7.94076 84.4811C7.76394 84.1661 7.67339 83.8711 7.66913 83.596C7.66261 83.3203 7.72977 83.0726 7.87062 82.8529C8.00921 82.6326 8.20784 82.4498 8.46652 82.3046C8.72519 82.1594 8.98394 82.0855 9.24276 82.0827C9.50076 82.0786 9.74461 82.1507 9.97431 82.2993C10.204 82.4478 10.4065 82.6781 10.5817 82.9903L11.2667 84.2107L10.896 84.4187L10.2171 83.2092C10.0873 82.9779 9.94113 82.8072 9.77855 82.697C9.61517 82.5854 9.44158 82.5318 9.25778 82.5361C9.07317 82.539 8.88404 82.5948 8.69039 82.7035C8.49675 82.8122 8.34916 82.9454 8.24764 83.1031C8.14468 83.2616 8.09685 83.4405 8.10416 83.6397C8.11066 83.8375 8.17961 84.0535 8.31102 84.2876L8.88165 85.3042L12.9569 83.0168L13.1844 83.4222ZM10.0828 82.589L11.4725 80.3722L11.7353 80.8405L10.3395 83.0464L10.0828 82.589Z" fill="white"/>
<path d="M8.5674 71.1066L3.64376 72.4008L3.22603 70.8117C3.13419 70.4623 3.12483 70.1529 3.19795 69.8835C3.26905 69.6129 3.4036 69.3882 3.60162 69.2094C3.79921 69.0289 4.04146 68.901 4.32835 68.8256C4.61524 68.7501 4.88967 68.7414 5.15165 68.7993C5.41202 68.8577 5.64027 68.9862 5.83641 69.1848C6.03095 69.3838 6.17393 69.6572 6.26535 70.005L6.59397 71.2552L6.19008 71.3614L5.86462 70.1232C5.79679 69.8652 5.69247 69.6639 5.55164 69.5192C5.40922 69.3751 5.2429 69.2834 5.05271 69.2443C4.86209 69.2036 4.6594 69.2115 4.44463 69.2679C4.22986 69.3244 4.0495 69.4172 3.90354 69.5464C3.75716 69.674 3.65842 69.8361 3.60734 70.0329C3.55583 70.2281 3.56441 70.4563 3.63309 70.7175L3.92947 71.8451L8.44923 70.657L8.5674 71.1066Z" fill="white"/>
<path d="M7.25514 61.7568L2.1779 62.1296L2.05758 60.4909C2.03112 60.1306 2.07432 59.825 2.18717 59.5741C2.29825 59.3217 2.46416 59.1259 2.68491 58.9867C2.90389 58.846 3.1613 58.7648 3.45714 58.7431C3.75298 58.7214 4.01867 58.7642 4.2542 58.8715C4.4896 58.9772 4.67979 59.146 4.82477 59.3779C4.96975 59.6099 5.05535 59.9044 5.08156 60.2614L5.18404 61.6571L4.76011 61.6882L4.65854 60.3049C4.63912 60.0405 4.57919 59.8239 4.47873 59.6551C4.37815 59.4847 4.24372 59.3625 4.07544 59.2884C3.90704 59.2127 3.7121 59.183 3.49063 59.1992C3.26917 59.2155 3.07901 59.2735 2.92017 59.3732C2.75967 59.4731 2.64047 59.6148 2.56255 59.7983C2.48451 59.9802 2.45532 60.205 2.47498 60.4727L2.56035 61.6354L7.2211 61.2932L7.25514 61.7568ZM4.80006 59.6863L6.99903 58.2687L7.03834 58.8042L4.83847 60.2094L4.80006 59.6863Z" fill="white"/>
</svg>
